<svg xmlns="http://www.w3.org/2000/svg" viewBox="0 0 1035.07 642.31"><defs><style>.cls-1,.cls-2{fill:#27a5b7;}.cls-1{opacity:0.2;}</style></defs><title>border</title><g id="Layer_2" data-name="Layer 2"><g id="section2how_to_qualify" data-name="section2how to qualify"><rect class="cls-1" x="89.02" y="635.22" width="867.72" height="3.68"/><rect class="cls-1" x="89.02" y="3.3" width="867.72" height="3.68"/><rect class="cls-1" x="772.09" y="321.96" width="516.2" height="5.43" transform="translate(1354.85 -705.51) rotate(90)"/><rect class="cls-1" x="-252.3" y="321.96" width="516.2" height="5.43" transform="translate(330.47 318.88) rotate(90)"/><polygon class="cls-2" points="1023.86 598.69 1023.86 630.95 981.62 630.95 981.62 642.31 1035.07 642.31 1035.07 598.69 1023.86 598.69"/><polygon class="cls-2" points="11.21 598.69 11.21 630.95 53.45 630.95 53.45 642.31 0 642.31 0 598.69 11.21 598.69"/><polygon class="cls-2" points="1023.86 43.62 1023.86 11.37 981.62 11.37 981.62 0 1035.07 0 1035.07 43.62 1023.86 43.62"/><polygon class="cls-2" points="12.06 43.62 12.06 11.37 54.29 11.37 54.29 0 0.84 0 0.84 43.62 12.06 43.62"/></g></g></svg>