<svg xmlns="http://www.w3.org/2000/svg" viewBox="0 0 990.84 655.57"><defs><style>.cls-1{fill:#4dadce;}.cls-2{fill:#27a5b7;opacity:0.2;}</style></defs><title>Asset 3</title><g id="Layer_2" data-name="Layer 2"><g id="section5"><polygon class="cls-1" points="980.1 611.05 980.1 643.97 939.67 643.97 939.67 655.57 990.84 655.57 990.84 611.05 980.1 611.05"/><rect class="cls-2" x="85.21" y="648.33" width="830.64" height="3.76"/><rect class="cls-2" x="85.21" y="3.37" width="830.64" height="3.76"/><rect class="cls-2" x="722.73" y="328.78" width="526.85" height="5.2" transform="translate(1317.53 -654.79) rotate(90)"/><rect class="cls-2" x="-257.88" y="328.78" width="526.85" height="5.2" transform="translate(336.92 325.83) rotate(90)"/><polygon class="cls-1" points="10.73 611.05 10.73 643.97 51.16 643.97 51.16 655.57 0 655.57 0 611.05 10.73 611.05"/><polygon class="cls-1" points="980.1 44.52 980.1 11.6 939.67 11.6 939.67 0 990.84 0 990.84 44.52 980.1 44.52"/><polygon class="cls-1" points="11.54 44.52 11.54 11.6 51.97 11.6 51.97 0 0.81 0 0.81 44.52 11.54 44.52"/></g></g></svg>