<?xml version="1.0" encoding="utf-8"?>
<!-- Generator: Adobe Illustrator 22.1.0, SVG Export Plug-In . SVG Version: 6.00 Build 0)  -->
<svg version="1.1" id="Layer_1" xmlns="http://www.w3.org/2000/svg" xmlns:xlink="http://www.w3.org/1999/xlink" x="0px" y="0px"
	 viewBox="0 0 1122.3 1081" style="enable-background:new 0 0 1122.3 1081;" xml:space="preserve">
<style type="text/css">
	.st0{fill:#99CADC;}
	.st1{fill:#22272E;}
	.st2{fill:#1A2239;}
	.st3{fill:#F4D7CE;}
	.st4{fill:#D3EFF4;}
	.st5{fill:none;stroke:#133A50;stroke-miterlimit:10;}
	.st6{fill:#EBCBAB;}
	.st7{fill:#E5BF9A;}
	.st8{fill:#EFE565;}
	.st9{fill:#EACCB2;}
	.st10{fill:#F3D9BF;}
	.st11{fill:#223406;}
	.st12{fill:#1B2805;}
	.st13{fill:#7F9F22;}
	.st14{fill:#263808;}
	.st15{fill:#F4A800;}
	.st16{fill:#FFC436;}
	.st17{fill:#BF9328;}
	.st18{fill:#E9F2F4;}
	.st19{fill:#253242;}
	.st20{fill:url(#SVGID_1_);}
	.st21{fill:#A6AEBA;}
	.st22{fill:#D2DCEB;}
</style>
<title>homebg</title>
<path class="st0" d="M0,500.4V1081h174.8c-2.6-39,4.4-77.6,24.6-111.6c29.3-49.6,81.2-80.1,135.6-97.3c59.4-18.8,126.3-8,182.9-31.1
	c24.7-10,46.7-29.1,54-54.2c6.7-23.3,0.2-47.9-2.3-72s0.8-51.9,20.7-66.2c20.5-14.9,49.1-9.1,73.8-2.6
	c40.5,10.6,126.6,52.3,154.4-1.1c19.1-36.7-23.1-74.2-36.2-113.4c-13.9-41.7,8.5-88.9,44-115.7S907.5,379,952,374.6
	c33.8-3.3,68.4-4,100.4-15c32-11,62-34.9,68.4-67.5c13-65.8-69.5-112.3-85.1-177.6c-9.8-40.6,9.3-85.8,40.8-114.4H874
	c22,69.6,9.2,164.2-76.9,175.2c-88.4,12.4-189.3-70-256.7,8.2C490,241,553.1,335.7,473.2,376.9c-96.8,45.3-193.5-8.2-290.3-4.1h-0.6
	c-32.2,0.1-60.5,21.1-69.9,51.9C87.9,505,41.4,480.5,0,500.4z"/>
<path class="st1" d="M225.6,873.7c0.1,2.6-1.8,4.7-4.4,4.9c0,0-0.1,0-0.1,0l0,0c-2.6,0.3-5-1.4-5.5-4L196,691.5
	c-0.1-2.6,1.9-4.7,4.4-4.9c0,0,0.1,0,0.1,0l0,0c2.6-0.3,5,1.4,5.5,4L225.6,873.7z"/>
<path class="st1" d="M85.3,873.7c-0.1,2.6,1.9,4.7,4.4,4.9c0,0,0.1,0,0.1,0l0,0c2.6,0.3,5-1.4,5.5-4l19.6-183.1
	c0.1-2.6-1.8-4.7-4.4-4.9c0,0-0.1,0-0.1,0l0,0c-2.6-0.3-5,1.4-5.5,4L85.3,873.7z"/>
<path class="st1" d="M214.5,688.8c0,3.2-2.3,5.8-5,5.8H101.7c-2.8,0-5-2.6-5-5.8l0,0c0-3.2,2.2-5.8,5-5.8h107.8
	C212.2,683,214.5,685.6,214.5,688.8L214.5,688.8z"/>
<path class="st1" d="M217.2,823.9c0,2.2-2.4,4-5.3,4H99c-2.9,0-5.3-1.8-5.3-4l0,0c0-2.2,2.4-3.9,5.3-3.9h112.9
	C214.8,820,217.2,821.7,217.2,823.9L217.2,823.9z"/>
<path class="st1" d="M207.4,735.7c-0.2,2.3-2.1,4.1-4.4,3.9h-95.1c-2.3,0.1-4.3-1.6-4.4-3.9l0,0c0.1-2.3,2.1-4.1,4.4-4c0,0,0,0,0,0
	H203C205.3,731.6,207.3,733.4,207.4,735.7C207.4,735.7,207.4,735.7,207.4,735.7z"/>
<path class="st1" d="M107.8,733.8c0.1,1.2-0.8,2.3-2,2.4c-1.2,0.1-2.3-0.8-2.4-2s0.8-2.3,2-2.4c0.1,0,0.1,0,0.2,0
	C106.8,731.7,107.8,732.6,107.8,733.8z"/>
<path class="st1" d="M207.4,733.8c0.1,1.2-0.8,2.3-2,2.4c-1.2,0.1-2.3-0.8-2.4-2c-0.1-1.2,0.8-2.3,2-2.4c0.1,0,0.2,0,0.2,0
	C206.4,731.7,207.4,732.6,207.4,733.8C207.4,733.7,207.4,733.7,207.4,733.8z"/>
<path class="st1" d="M217.1,823.9c0.1,1.2-0.8,2.3-2,2.4c-1.2,0.1-2.3-0.8-2.4-2s0.8-2.3,2-2.4c0.1,0,0.2,0,0.2,0
	C216.1,821.9,217.1,822.7,217.1,823.9z"/>
<ellipse class="st1" cx="155.1" cy="686.6" rx="64.9" ry="12.5"/>
<path class="st2" d="M115.1,631.7c0,0-20,23.4-9.2,45.2c4.1,8.2,68.2,58.5,68.2,58.5l-13.2,140.9h19.2c0,0,32-80.2,38.5-110
	s14.6-43.1,6.1-58.6s-44.6-48.8-44.6-48.8L167.8,624L115.1,631.7z"/>
<path class="st2" d="M160.6,627.8c0,0-20,23.4-9.2,45.2c4.1,8.2,100.3,62.4,100.3,62.4l-13.2,140.9h19.2c0,0,32-80.2,38.5-110
	s14.6-43.1,6.1-58.6S225.6,655,225.6,655l-12.3-34.9L160.6,627.8z"/>
<path class="st3" d="M187.5,434.3c0,0,2.8,11.2,9.2,16.3c10,7.9,28.7,19.4,28.7,19.4s1,5.5-14.2,16.8s-36.8,17.4-56.5,8.3
	s-4.6-46.8-4.6-46.8s8.3-1.8,12.4-8.8c4.5-7.7,4-12.5,4-12.5L187.5,434.3z"/>
<path class="st4" d="M269.2,548.7c0,0-31.8-76-41.4-80.9c0,0-12.5-7.9-24.4-11.8c-4.8,7.8-12.5,13.3-21.4,15.3
	c0,0-13.1-1.6-20.7-8.5c-4.6-4.1-8.3-9.1-11.1-14.6c0,0-31.6,8.3-31.8,9.2c-12.3,4.6-17.1,15.1-18.2,60.7
	c-0.4,19.8,6.6,43.4,13.2,56.6c0.3,33.5,0.7,64.7,0.7,64.7s19.4,12.4,47.9,12.2s49.5-21.7,49.5-21.7s6.8-73.8,9.2-110.6
	c0,0,18.4,45.2,28.1,52.9c9.7,7.7,44.9,33.7,44.9,33.7c3.6-6.1,9.8-10.1,16.8-11L269.2,548.7z"/>
<path class="st3" d="M174.4,376.8c-7.8,4.5-6.4,18.8-6.4,18.8c-0.8,2.5-1.4,5-1.9,7.5c-0.2,0-0.3,0-0.5,0c-6.7-0.2-6,8.7-2.6,14.5
	c0.8,1.4,2,3.3,3.1,4.9c0.6,4.2,2.3,8.1,4.9,11.4c5.1,6.9,18.1,16.3,25.4,13.5s11.7-11.6,14.8-21.2c2.2-6.9,4-19.8,3.9-27.3
	S204.1,359.4,174.4,376.8z"/>
<ellipse class="st5" cx="192.5" cy="409.3" rx="7.2" ry="8.4"/>
<ellipse class="st5" cx="209.2" cy="408.3" rx="5.9" ry="8"/>
<line class="st5" x1="171.1" y1="403.7" x2="185.8" y2="405.5"/>
<line class="st5" x1="199.3" y1="406.1" x2="203.2" y2="406"/>
<path class="st6" d="M540.2,543.5c0.7,9-10.1,25.3-11.8,28.6c-5.1,9.7-10.7,19.1-16.7,28.2c-5.8,8.7-9.8,14-11.4,14.6l-6-3.3
	c-3.9-2-0.6,1.4,16.3-51.5l11.7-29.4C528.9,531.2,540.5,534.8,540.2,543.5z"/>
<path class="st6" d="M501.7,605c-2.3-1.8-3.8-2.2-6.2-1.3c-6.3,7-12.8,14.9-17.5,23c-0.2,0.8-0.5,1.5-0.7,2.3
	c-0.1,0.7-0.1,1.3-0.2,2c-0.2,2.5-0.7,5.1-0.7,7.7c0,1.3,0.2,2.6,0.7,3.8l0.1,0.1c1,1.6,2.3,3.1,3.8,4.3c1.1,1.1,2.7,1.6,4.3,1.4
	c0.8,0,1.3,0.6,1.9,1.1c0.8,0.3,1.6,0.3,2.4,0.2c0.7-0.4,1.5-0.6,2.3-0.7c0.5,0,1,0,1.5,0c0.9-0.2,1.7-0.3,2.6-0.5
	c0.3-0.1,0.6-0.3,0.9-0.5c0.3-0.3,0.6-0.5,1-0.6c0.8-0.1,1.6-0.3,2.3-0.7c0.3-0.4,0.5-0.8,0.7-1.2c0.6-1.6,1-3.2,1.2-4.9
	c0-0.2,0-0.5,0-0.7c0-1,0-4.9-2-4.1c-0.4,0.2-0.7,0.6-0.8,1c0.1-0.3,0.2-0.6,0.3-0.9c1-2.4,2.1-4.7,3.5-6.9c0.5-0.8,1-1.6,1.4-2.4
	c0.8-3.5,1.1-7,1-10.6C505.1,612.2,504.7,607.4,501.7,605z M482.3,640.7c0,0,1,3.1,0.9,3.1s-1.3-3-1.3-3.1c0.1-1.8,0.3-3.5,0.6-5.3
	c0.1-0.5,0.4-1.2,0.6-1.8C482.6,635.8,482.4,638.2,482.3,640.7L482.3,640.7z"/>
<path class="st6" d="M480.7,631c-0.5,0-1.1-0.1-1.6-0.3c-0.4-0.2-0.7-0.7-0.7-1.1l0,0c0,0.5,0.2,1,0.6,1.3c0.3,0.2,0.6,0.3,1,0.4
	c0.3,0.1,0.5,0,0.8-0.1C480.8,631.2,480.8,631,480.7,631z"/>
<path class="st6" d="M487.5,632.8c-0.4,0.1-0.9,0.1-1.3,0.1c-0.5-0.1-0.9-0.4-1.3-0.7l0,0c0.3,0.4,0.7,0.7,1.2,0.9
	c0.5,0.1,1,0.1,1.4-0.2C487.6,632.9,487.6,632.8,487.5,632.8z"/>
<path class="st6" d="M498.4,640L498.4,640c0.2-1.2,0.7-2.4,1-3.7c0,0,0-0.1-0.1,0c-0.7,2.2-1.6,4.3-0.8,6.5l0,0
	c-0.2-0.9-0.2-1.8-0.1-2.7c0.1,0.2,0.3,0.5,0.5,0.7c0.2,0.2,0.2,0.6,0.4,0.8c0,0,0.1,0,0-0.1s-0.1-0.5-0.2-0.7
	S498.6,640.3,498.4,640z"/>
<path class="st6" d="M498,647.2c-1.3-0.2-2.5-1.8-3.4-2.8c-2-2.3-2.1-4.9-2-7.8l0,0c-0.1,2.6-0.2,5.2,1.4,7.3
	C494.9,645,496.4,647.2,498,647.2C498,647.2,498,647.2,498,647.2z"/>
<path class="st6" d="M493.1,648.8c-1.6,0.3-3.5-2.6-4.4-3.7c-1.7-2-1.7-4-1.9-6.5l0,0c0.2,2.9,0.4,4.8,2.3,7.1
	C490.1,646.8,491.5,649.2,493.1,648.8C493.2,648.9,493.2,648.8,493.1,648.8z"/>
<path class="st6" d="M487.4,649.5c-1.4-0.7-2.4-2.6-3-3.9s-1.2-2.6-1.7-3.9l0,0C483.6,644.1,484.8,648.2,487.4,649.5
	C487.4,649.5,487.4,649.5,487.4,649.5z"/>
<path class="st7" d="M553,455.1c0.8,5.8-22.8,13.8-23.3,10.7c0,0-0.3-10.6-7.3-32.5c-1.6-5.1,2.7-8.4,7.5-11.3l7-5.9
	c4.3-3,5-1,10.1,17.6L553,455.1z"/>
<path class="st8" d="M534.5,453.5c0,0-5.2,2.9-14.3,10.6c-10.4,8.9-30.9,25.4-25,44.6l6.7,21.8c0,0,0.1,19.5-0.4,32.7
	c-0.6,16.8,0,32.3,1.2,37.9c2.6,12.4,48.9,62.2,76.1,60.1c0,0,5.7-48.3-16.3-96.4c-5.6-21.4,3.8-36.6,6.5-47.7
	c5.3-21.8-2-51.4-15.6-66.9C548.3,444.2,545.2,448.8,534.5,453.5z"/>
<path class="st9" d="M538.9,466.4c0,0-10.3-1.7-18.6,19.6s-2.6,35.1,11.4,37.5s24.8-13.1,23-33.7C553,469.7,547,467.4,538.9,466.4z"
	/>
<path class="st6" d="M570.2,405.4c3.2-4.7,5.5-9.3,5.6-15.3c0.2-6.3-1-12.5-3.4-18.2c-4-9-11.8-15-21.2-17.7
	c-11.2-3.2-23.8-3-34.3,2.2c-0.4,0.2-0.8,0.4-1.2,0.6c-8.1,13.6,3.3,38.5,6.1,45.8l10.2,24.5l1.3,5.9l10.6-3.2
	c0,0,2.1-3.4,17.7-16.6C564.7,410.8,567.5,408.1,570.2,405.4z"/>
<path class="st10" d="M516.9,356.4c-4.6,2.2-8.7,5.3-12,9.3c-3.5,4.4-4.9,9.3-5.8,14.7c-0.5,3.3,0.1,5.6,0.5,8.9
	c0.3,2.1,4,6.9,3.1,8.9c-1.8,3.8-1,3.3-3.8,7.7c-2.2,3.4-3.7,5.1-2.9,6c2.2,2.6,6.1,2.6,6.4,2.6c0,0.6-0.1,1.3-0.3,1.9
	c-0.2,0.8-1.3,1.6-1,2.5c0.5,1.6,2.5,1.6,3.6,2.7c0.1,0.1-2,2.8-1.2,4.1c0.4,0.8,1.7,1,2.5,2.2c0.1,0.3,0.1,3,0.3,5.7
	c0.3,1.4,0.9,2.6,1.8,3.7c1.9,1.9,4.7,1.6,7.2,1.3c7-1.5,16.1-7.2,19-10.8s2.5-2.8,6-13.5l5.4-61.4
	C536.1,351.1,525.8,352,516.9,356.4z"/>
<path class="st11" d="M581.3,425.4c-0.6-0.7-1.1-1.4-1.5-2.2c-1.3-1.7-2-3.7-2-5.8c0.1-0.7,0.4-1.4,0.6-2c1.2-2.7,3.4-5.2,3.7-8.2
	c0.6-4.9-3.6-8.4-4.6-12.9c-1.7-7,4.6-8.6,0.8-21.1c-2.2-7.3-9.7-14.8-16.8-18.4c-9.2-4.6-19.4-6.7-29.7-6.1
	c-5,0.4-9.8,1.3-14.6,2.8c-4.2,1.3-8.1,3.3-11.6,6c-0.8,0.6-1.6,1.2-2.3,1.8c-1.6,1.1-3.1,2.3-4.5,3.6c-4.2,2.9-8,6.7-8,12.1
	c0,2.4,1.4,4.7,2.9,6.6c1.5,1.5,3.1,2.8,4.8,4c1.6,1.1,3.3,1.9,5,2.9c4.2,2.4,9,5.5,10.7,10.3c1,2.7,0.7,6.8-1.7,8.7
	c-0.3,0.6-0.8,1.1-1.5,1.2c3.9,1.9,6.7-3.3,7.7-6.2c0.1-0.3,0.2-0.7,0.3-1c-0.2,2.9-1,5.7-1.4,8.5c-0.5,3,0.4,6.1,2.3,8.6
	c0.8,1,1.9,1.8,3,2.4c1.2,0.7,2.4,0.7,3,2.2c0.5,1.2-0.2,4.8-2.4,3.9c-0.1,0-0.1,0-0.2,0c0.6,1.1,2.8,1,3.8,0.5l0.1-0.1
	c0.6-0.5,1.1-1.2,1.3-1.9c0.5-1.7,0.5-3.5,0.3-5.2c2.6,1.4,4.2,4.1,4,7.1c-0.9,6.3-9.4,13.8-5.8,20.3c0.8,1.5,2.5,2.7,3.6,4.1
	c1.1,1,2,2.1,1.7,3.4c-0.3,1-1.2,1.7-2.2,1.8c-0.3,0-0.5-0.1-0.7-0.1c0.5,0.9,1.6,1.4,2.7,1.3c2.7-0.8,4.3-3.8,4.1-6.5
	c0.4,0.6,0.8,1.2,1.3,1.8c1.9,2.2,5.3,2.8,8,3.5c3.8,1,7.6,2.3,9.9,5.7c1.3,1.9,1.4,4.4,0.2,6.4c-0.1,1.2-1.1,2.2-2.4,2.1
	c0,0-0.1,0-0.1,0c-0.2,0-0.4,0-0.6-0.1l-0.4-0.2c-0.8-0.4-1.5-1.1-1.9-2c-0.1,0.2-0.1,0.5-0.2,0.7c-0.4,2,1.4,3.4,3.2,3.6
	c1.8,0.1,3.6-0.7,4.7-2.2c-0.6,2.5-0.3,5.2,0.8,7.5c1,2.4,3.5,3.8,6,3.3c1.7-0.6,3.1-2,3.5-3.8c-0.8,0.8-1.9,1.1-3,1
	c-1,0-1.9-0.8-1.9-1.9c0-0.3,0.1-0.6,0.1-0.9c0-0.6,0-1.1,0.1-1.7c0.6-1.1,1.4-2,2.4-2.8c0.5-0.6,1-1.3,1.4-1.9
	c0.1-0.2,0.3-0.2,0.5-0.1c0,0,0.1,0,0.1,0.1c1.1-1.1,2.1-2.4,3-3.8c0.5-0.8,0.8-1.6,1-2.4c1.7,0,2.6-1.1,3.7-2.6
	c1.3-1.9,1.5-4.3,0.5-6.4c-1-2.4-2.6-4.4-3.4-6.8l0.2,0.2c1.4,1.6,3.7,0.9,5-0.4c0.1-0.1,0.1-0.2,0.1-0.4c-0.5,0.5-1.3,0.7-2,0.5
	c-1-0.2-1.9-0.8-1.8-2c0.2-1.1,0.7-2.1,1.4-2.9c0.3-0.4,0.6-0.8,0.9-1.1c1.1-1.3,2.4-2.6,3.8-3.6c2.2-1.7,3.5-4.4,3.5-7.1
	C583.6,429,582.7,427.1,581.3,425.4z"/>
<path class="st12" d="M502.7,601c0,0-5,59.4,6.7,83.8s4.9,56.7,4.9,56.7l3,56.7L527,768l7.8-50.8l-2.9-42l5.9-48.9l-16.6-16.6
	L502.7,601z"/>
<path class="st10" d="M534.5,875.3c0-0.1,0-0.2-0.1-0.2c0,0,0,0,0,0c0.7-2.1,0.5-4.4,0.9-6.6c0.6-2.8,0.8-5.7,1.2-8.5
	c0.9-5,1.8-10,2.2-15c0.5-4.7,0.3-9.1-1.5-13.5c-0.8-2-2-3.7-3.5-5.3c-0.7-0.7-1.1-1.6-1.3-2.6l-0.5-0.9l0,0
	c-1.5-2.4-5.1-2.9-7.7-2.9c-1.6,0-3.2,0.7-4.2,1.9c-0.1,0.2-0.2,0.4-0.4,0.6c-0.4,0.7-0.7,1.4-1,2.1c-0.1,0.9-0.3,1.7-0.6,2.5
	c-0.5,1.9-1.4,3.7-2.5,5.4c-1.3,2.1-2.7,4.1-4.3,6c-0.3,0.4-0.6,0.7-0.9,1c-3.8,4.7-6.7,9.8-10,14.8c-1.9,2.9-3.8,6-6.7,8
	s-6.8,2.7-10,4c-2.3,0.8-4.5,1.9-6.5,3.3c-3,2.4,2.5,6.3,4.7,6.8c10.3,2.5,19.9,2.8,26.5-0.9c2.8-1.6,4.3-4.9,6.3-7.5
	c1.5-2.1,3-4,4.8-5.9c0.1-0.2,0.2-0.3,0.4-0.5c1.6-2.1,3.6-4,5.8-5.5c1.1-0.7,2.2-1.1,3.5-1.4c1.5,1.7,1.6,5,2,7.3
	c0.5,2.8,0.7,5.7,0.8,8.5c0,1.1-0.6,4.7,0.6,5.4C533.4,876.6,534,876.3,534.5,875.3z"/>
<path class="st13" d="M534.5,875.3c0-0.1,0-0.2-0.1-0.2c0,0,0,0,0,0c0.7-2.1,0.5-4.4,0.9-6.6c0.6-2.8,0.8-5.7,1.2-8.5
	c0.9-5,1.8-10,2.2-15c0.5-4.7,0.3-9.1-1.5-13.5c-0.8-2-2-3.7-3.5-5.3c-0.4-0.4-0.7-0.9-0.9-1.4l0,0c0.8,10.7-19,33.3-27.4,39.8
	c-4.8,3.7-15.1-0.7-15.1-0.7l0,0c-2.2,0.8-4.5,1.4-6.6,2.3c-2.3,0.8-4.5,1.9-6.5,3.3c-3,2.4,2.5,6.3,4.7,6.8
	c10.3,2.5,19.9,2.8,26.5-0.9c2.8-1.6,4.4-4.9,6.3-7.5c1.5-2.1,3-4,4.8-5.9c0.1-0.2,0.2-0.3,0.4-0.5c1.6-2.1,3.6-4,5.8-5.5
	c1.1-0.7,2.2-1.1,3.5-1.4c1.5,1.7,1.6,5,2,7.3c0.5,2.8,0.7,5.7,0.8,8.5c0,1.1-0.6,4.7,0.6,5.4C533.4,876.6,534,876.3,534.5,875.3z"
	/>
<path class="st12" d="M539.7,694.3c-0.4-1.1,2.5-80-5.8-90.2c-4.9-6-6.5-10.4-27.2-3c-11.4,4-1.6,67.7,3.1,110.2
	c1.4,40.6-0.7-19.7,9.2,115.2c0.1,1.8,9.2,2.4,12.9-1.4c1.1-10.9,1.3-24.3,2.5-35.2C536.4,769.4,545.2,711.2,539.7,694.3z"/>
<path class="st14" d="M577.6,605.3c0,0,30.5,39,2.5,70.2c-10.4,15.2-9.7,35.7-8.2,52.3c-17.6,22.5-29.6,2.6-29.6,2.6
	s-37.8-69.1-35.7-123.6C534.5,597.1,577.6,605.3,577.6,605.3z"/>
<path class="st10" d="M561.1,886.4c0-0.1,0-0.2-0.1-0.2c0,0,0,0,0,0c0.7-2.1,0.5-4.4,0.9-6.6c0.6-2.8,0.8-5.7,1.2-8.5
	c0.9-5,1.8-10,2.2-15c0.5-4.7,0.3-9-1.5-13.5c-0.8-2-2-3.7-3.5-5.2c-0.7-0.7-1.1-1.6-1.3-2.6l-0.5-0.9l0,0c-1.5-2.4-5.1-2.9-7.7-2.9
	c-1.6,0-3.2,0.7-4.2,1.9c-0.1,0.2-0.2,0.4-0.4,0.6c-0.4,0.7-0.7,1.4-1,2.1c-0.1,0.9-0.3,1.7-0.6,2.5c-0.5,1.9-1.4,3.7-2.5,5.4
	c-1.3,2.1-2.8,4.1-4.3,6c-0.3,0.3-0.6,0.7-0.9,1c-3.8,4.7-6.7,9.8-10,14.8c-1.9,2.9-3.8,6-6.7,8s-6.8,2.7-10,4
	c-2.2,0.9-4.7,1.8-6.5,3.3c-3,2.4,2.5,6.3,4.7,6.8c10.3,2.5,19.9,2.8,26.5-0.9c2.8-1.6,4.4-4.9,6.3-7.5c1.5-2.1,3.1-4,4.8-5.9
	l0.4-0.5c1.6-2.1,3.6-4,5.8-5.4c1.1-0.7,2.2-1.1,3.5-1.4c1.5,1.7,1.6,5,2,7.3c0.5,2.8,0.7,5.7,0.8,8.5c0,1.1-0.6,4.7,0.5,5.4
	C560,887.7,560.7,887.4,561.1,886.4z"/>
<path class="st13" d="M561.1,886.4c0-0.1,0-0.2-0.1-0.2c0,0,0,0,0,0c0.7-2.1,0.5-4.4,0.9-6.6c0.6-2.8,0.8-5.7,1.2-8.5
	c0.9-5,1.8-10,2.2-15c0.5-4.7,0.3-9-1.5-13.5c-0.8-2-2-3.7-3.5-5.2c-0.4-0.4-0.7-0.9-0.9-1.4l0,0c0.8,10.7-19,33.3-27.4,39.8
	c-4.8,3.7-15.1-0.7-15.1-0.7l0,0c-2.2,0.8-4.5,1.4-6.6,2.3c-2.2,0.9-4.7,1.8-6.5,3.3c-3,2.4,2.5,6.3,4.7,6.8
	c10.3,2.5,19.9,2.8,26.5-0.9c2.8-1.6,4.4-4.9,6.3-7.5c1.5-2.1,3.1-4,4.8-5.9l0.4-0.5c1.6-2.1,3.6-4,5.8-5.4c1.1-0.7,2.2-1.1,3.5-1.4
	c1.5,1.7,1.6,5,2,7.3c0.5,2.8,0.7,5.7,0.8,8.5c0,1.1-0.6,4.7,0.5,5.4C560,887.7,560.7,887.4,561.1,886.4z"/>
<path class="st14" d="M565.8,705.5c-0.8-2.3-34.6-71.2-32.6-12.2c1.4,40.6,1.9,9.5,11.8,144.4c0.1,1.8,9.2,2.4,12.9-1.4
	c1.1-11,1.3-24.3,2.5-35.2C562.5,780.6,572.3,724,565.8,705.5z"/>
<path class="st10" d="M513.6,565.6l8-63c1.5-4.5,0-26.8,14.6-30.8c0,0,16.5-2.1,13.8,21.7l-12.3,67
	C532.4,569,514.6,573.8,513.6,565.6z"/>
<path class="st10" d="M536.9,548.7c2,8.8-6.5,26.4-7.8,30c-3.7,10.3-8,20.4-12.7,30.3c-4.5,9.4-7.7,15.3-9.3,16l-6.4-2.5
	c-4.1-1.5-0.4,1.5,9.1-53.2l7.6-30.7C524.1,538,536,540,536.9,548.7z"/>
<path class="st10" d="M506.1,619.6c-2.4-1.7-4-1.9-6.3-0.8c-5.7,7.4-11.6,15.9-15.7,24.3c-0.2,0.8-0.4,1.6-0.5,2.4v2
	c0,2.6-0.3,5.1-0.1,7.7c0.1,1.3,0.4,2.6,1,3.8l0.1,0.1c1.2,1.5,2.5,2.9,4.1,4c1.2,1,2.8,1.3,4.4,1c0.8-0.1,1.3,0.5,2,0.9
	c0.8,0.2,1.6,0.2,2.4,0c0.7-0.4,1.4-0.7,2.2-0.9c0.5-0.1,1-0.1,1.5-0.1c0.9-0.2,1.7-0.5,2.5-0.7c0.3-0.2,0.6-0.4,0.9-0.6
	c0.3-0.3,0.6-0.5,1-0.7c0.8-0.1,1.6-0.4,2.2-0.9c0.3-0.4,0.5-0.8,0.6-1.3c0.5-1.6,0.8-3.3,0.8-5c0-0.2,0-0.5,0-0.7
	c-0.1-1-0.4-4.9-2.4-3.9c-0.4,0.2-0.6,0.6-0.7,1.1c0.1-0.3,0.1-0.6,0.2-0.9c0.8-2.5,1.8-4.9,3-7.2c0.4-0.8,0.8-1.7,1.2-2.5
	c0.5-3.5,0.6-7.1,0.1-10.6C510,626.6,509.3,621.8,506.1,619.6z M489.5,656.6c0,0,1.2,3.1,1.1,3s-1.5-2.8-1.6-3
	c-0.1-1.8,0-3.5,0.2-5.3c0-0.5,0.3-1.2,0.4-1.9C489.4,651.9,489.4,654.3,489.5,656.6L489.5,656.6z"/>
<path class="st15" d="M256,351c0,0.3,0.1,0.5,0.1,0.8c0,0,0,0.1,0,0.1c0,0.3,0,0.6,0.1,0.9l0,0c0,0.1,0,0.2,0.1,0.3s0,0.1,0,0.2
	c0,0.3,0.1,0.5,0.2,0.8s0.1,0.6,0.2,0.9c0,0.1,0.1,0.2,0.1,0.3s0,0.2,0.1,0.2c0.1,0.2,0.2,0.5,0.3,0.7s0.2,0.6,0.4,0.9
	c0.1,0.1,0.1,0.2,0.2,0.4s0.1,0.2,0.1,0.3s0.3,0.4,0.4,0.6s0.3,0.6,0.5,0.9s0.3,0.4,0.4,0.5s0.2,0.3,0.3,0.4s0.2,0.2,0.4,0.4
	s0.4,0.5,0.6,0.7s0.8,0.7,1.1,1.1c0.1,0.1,0.2,0.3,0.4,0.4s0.1,0.1,0.2,0.2s0.1,0.2,0.2,0.2c0.3,0.3,0.7,0.5,1,0.8s0.7,0.5,1,0.8
	l0.2,0.2c0.4,0.3,0.8,0.5,1.2,0.8s0.6,0.4,1,0.6l0.5,0.3c1.2,0.7,2.4,1.3,3.7,1.9l1.1,0.5c1,0.4,2,0.8,3.1,1.2
	c0.2,0.1,0.5,0.2,0.7,0.3l0.5,0.1c0.6,0.2,1.3,0.4,2,0.6s1,0.3,1.6,0.4c0.7,0.2,1.5,0.3,2.2,0.5l1.2,0.3h0.2c1.5,0.3,3,0.5,4.5,0.6
	h0.3c0.4,0,0.7,0,1,0.1c0.9,0.1,1.8,0.1,2.7,0.2c0.2,0,0.4,0,0.6,0c0.4,0,0.7,0,1.1,0c0.7,0,1.5,0,2.2,0h0.8l1,0
	c0.7,0,1.4-0.1,2-0.1h0.9l0.9-0.1c0.7-0.1,1.3-0.1,2-0.2l0.9-0.1c0.3,0,0.6-0.1,0.8-0.1c0.7-0.1,1.4-0.2,2.1-0.4
	c0.3-0.1,0.7-0.1,1-0.2s0.4-0.1,0.6-0.2c0.8-0.2,1.6-0.4,2.4-0.6c0.3-0.1,0.7-0.2,1-0.3l0.3-0.1c1.5-0.4,2.9-0.9,4.2-1.4l0.2-0.1
	c0.6-0.2,1.2-0.5,1.8-0.8c0.3-0.1,0.7-0.3,1-0.4c1-0.5,2-1,2.9-1.5s1.9-1.1,2.7-1.7c0.2-0.1,0.4-0.3,0.6-0.5
	c0.6-0.5,1.2-0.9,1.8-1.4c0.2-0.2,0.4-0.4,0.6-0.6c0.5-0.5,1-0.9,1.4-1.4c0.2-0.2,0.4-0.5,0.6-0.7c0.4-0.4,0.7-0.9,1-1.3
	c0.2-0.3,0.3-0.5,0.5-0.8s0.5-0.8,0.8-1.3c0.1-0.3,0.3-0.6,0.4-0.9c0.2-0.4,0.4-0.8,0.5-1.2c0.1-0.3,0.2-0.6,0.2-1s0.2-0.8,0.3-1.2
	s0.1-0.7,0.1-1c0.1-0.4,0.1-0.8,0.1-1.2v-0.1v8c0,5.9-3.9,11.8-11.6,16.2c-0.9,0.5-1.9,1-2.9,1.5c-0.3,0.2-0.7,0.3-1.1,0.5
	c-0.6,0.2-1.1,0.5-1.7,0.7l-0.2,0.1c-1.4,0.5-2.8,1-4.2,1.4l-0.3,0.1l-1,0.3c-0.8,0.2-1.6,0.4-2.5,0.6l-0.6,0.1l-1,0.2
	c-0.7,0.1-1.4,0.3-2.1,0.4l-0.8,0.1l-0.9,0.1l-2,0.2l-0.9,0.1l-0.9,0.1c-0.7,0-1.3,0.1-2,0.1c-0.3,0-0.7,0-1,0h-0.8
	c-0.7,0-1.4,0-2.1,0h-1.1h-0.6c-0.9,0-1.8-0.1-2.7-0.2l-1-0.1c-0.1,0-0.2,0-0.3,0c-1.5-0.1-3-0.4-4.5-0.6h-0.2L282,380
	c-0.7-0.1-1.5-0.3-2.1-0.5c-0.5-0.1-1-0.3-1.5-0.4c-0.7-0.2-1.4-0.4-2-0.6l-0.4-0.1l-0.7-0.2c-1.1-0.4-2.1-0.8-3.1-1.2l-1.1-0.5
	c-1.3-0.6-2.5-1.2-3.7-1.9l-0.5-0.3c-0.4-0.2-0.7-0.4-1-0.7c-0.5-0.3-1-0.6-1.4-0.9s-0.7-0.6-1.1-0.9s-0.8-0.6-1.2-1
	c-0.1-0.1-0.2-0.2-0.2-0.2l-0.4-0.4c-0.6-0.6-1.1-1.2-1.6-1.8l-0.4-0.5l-0.3-0.3c-0.3-0.5-0.6-0.9-0.9-1.4c-0.1-0.2-0.3-0.4-0.4-0.6
	l-0.1-0.2c-0.2-0.4-0.4-0.8-0.5-1.2s-0.2-0.5-0.4-0.8l-0.1-0.2c-0.1-0.4-0.2-0.8-0.3-1.1s-0.2-0.6-0.2-1c0,0,0-0.1,0-0.1
	c-0.1-0.4-0.1-0.8-0.1-1.2c-0.1-0.4-0.1-0.8-0.1-1.2l0,0v-8C256,350.8,256,350.9,256,351z"/>
<path class="st16" d="M334.7,350.5c-0.1-3.6-1.4-7.1-3.8-9.8c-2.1-2.5-4.7-4.7-7.6-6.3c-6.2-3.4-13-5.5-20-6.2c-0.1,0-0.2,0-0.2,0
	c-0.4,0-0.8-0.1-1.2-0.1c-4.6-0.4-9.2-0.4-13.8,0.1c-7.1,0.7-14.1,2.8-20.3,6.2c-8.7,5-12.5,11.8-11.4,18.3l0,0
	c0.1,0.4,0.2,0.8,0.3,1.3s0.1,0.6,0.2,0.9s0.3,0.8,0.5,1.2s0.2,0.6,0.4,0.9s0.5,0.8,0.7,1.2s0.3,0.6,0.5,0.9c0.3,0.5,0.6,0.9,1,1.3
	c0.2,0.2,0.4,0.5,0.6,0.7c0.5,0.6,1.1,1.2,1.7,1.7c0.1,0.1,0.1,0.2,0.2,0.2c0.7,0.6,1.4,1.1,2.1,1.6l0.2,0.2
	c0.8,0.6,1.7,1.2,2.7,1.7c1.2,0.7,2.4,1.3,3.7,1.9l1.1,0.5c1,0.4,2,0.8,3.1,1.2l1.2,0.4c0.6,0.2,1.3,0.4,2,0.6s1,0.3,1.6,0.4
	c0.7,0.2,1.5,0.3,2.2,0.5c0.5,0.1,0.9,0.2,1.4,0.3c1.5,0.3,3,0.5,4.5,0.6l1.4,0.1c0.9,0.1,1.8,0.1,2.7,0.2c0.6,0,1.1,0,1.7,0
	c0.7,0,1.5,0,2.2,0l1.8,0c0.7,0,1.4-0.1,2-0.1s1.2-0.1,1.8-0.1s1.3-0.1,2-0.2l1.8-0.2c0.7-0.1,1.4-0.2,2.1-0.4s1.1-0.2,1.6-0.3
	c0.8-0.2,1.6-0.4,2.4-0.6c0.5-0.1,0.9-0.2,1.4-0.4c1.5-0.4,2.9-0.9,4.2-1.4c0.7-0.3,1.4-0.6,2-0.9c0.3-0.1,0.7-0.3,1-0.4
	c1-0.5,2-1,2.9-1.5s1.9-1.1,2.7-1.7c0.2-0.1,0.4-0.3,0.6-0.5c0.6-0.5,1.2-0.9,1.8-1.4c0.2-0.2,0.4-0.4,0.6-0.6
	c0.5-0.5,1-0.9,1.4-1.4c0.2-0.2,0.4-0.5,0.6-0.7c0.4-0.4,0.7-0.9,1-1.3c0.2-0.3,0.3-0.5,0.5-0.8s0.5-0.8,0.8-1.3
	c0.1-0.3,0.3-0.6,0.4-0.9c0.2-0.4,0.4-0.8,0.5-1.2c0.1-0.3,0.2-0.6,0.2-1s0.2-0.8,0.3-1.2s0.1-0.7,0.1-1
	C334.6,351.3,334.6,350.9,334.7,350.5z M311,357.4l4.4,2.6l-2,1.1l-2.2,1.3l-4.5-2.6c-1,0.3-2,0.6-3,0.7c-2.1,0.3-4.1,0.3-6.2,0
	c-1.9-0.3-3.7-0.9-5.4-1.8c-2.4-1.4-3.5-3.1-3.1-5.1c0.4-1.3,1.1-2.5,2-3.5l0.7-0.9c0.1-0.2,0.3-0.3,0.4-0.5
	c0.4-0.5,0.7-1.1,0.9-1.8c0-0.6-0.4-1.1-1.2-1.5c-0.8-0.5-1.8-0.7-2.7-0.7c-0.9,0-1.9,0.2-2.7,0.6l-0.1,0.1
	c-0.7,0.3-1.1,0.9-1.3,1.6c0,0.7,0.5,1.4,1.1,1.7l-5.1,2.9c-1.2-0.7-2.1-1.7-2.8-2.9c-0.5-1-0.4-2.2,0.1-3.2c0.3-0.5,0.7-1,1.1-1.4
	l-4.5-2.6l2.2-1.3l2-1.1l4.5,2.6l0,0c0.8-0.3,1.7-0.5,2.5-0.6c1.8-0.3,3.7-0.3,5.6-0.1c1.7,0.2,3.3,0.7,4.8,1.6
	c1.1,0.6,2,1.5,2.6,2.6c0.5,0.9,0.5,2,0.1,3c-0.3,0.7-0.7,1.3-1.2,1.9l-0.7,0.8c-0.2,0.2-0.4,0.5-0.6,0.7c-0.6,0.6-1,1.4-1.2,2.2
	c-0.1,0.9,0.4,1.6,1.5,2.3c1.1,0.6,2.2,0.9,3.4,0.8c1.2,0,2.4-0.3,3.5-0.9l0.2-0.1c0.8-0.4,1.3-1.1,1.5-1.9c0-0.7-0.4-1.4-1.4-2
	l5.1-3c0.9,0.5,1.7,1.2,2.3,2.1c0.6,0.7,0.9,1.6,0.9,2.5C312.9,355,312.2,356.4,311,357.4z"/>
<path class="st17" d="M313.4,361.1l-2.2,1.3l-4.5-2.6c-1,0.3-2,0.6-3,0.7c-2.1,0.3-4.1,0.3-6.2,0c-1.9-0.3-3.7-0.9-5.4-1.8
	c-2.4-1.4-3.5-3.1-3.1-5.1c0.4-1.3,1.1-2.5,2-3.5l0.7-0.9c0.1-0.2,0.3-0.3,0.4-0.5c0.4-0.5,0.7-1.1,0.9-1.8c0-0.6-0.4-1.1-1.2-1.5
	c-0.8-0.5-1.8-0.7-2.7-0.7c-0.9,0-1.9,0.2-2.7,0.6l-0.1,0.1c-0.7,0.3-1.1,0.9-1.3,1.6c0,0.7,0.5,1.4,1.1,1.7l-5.1,2.9
	c-1.2-0.7-2.1-1.7-2.8-2.9c-0.5-1-0.4-2.2,0.1-3.2c0.3-0.5,0.7-1,1.1-1.4l-4.5-2.6l2.2-1.3l2-1.1l4.5,2.6l0,0
	c0.8-0.3,1.7-0.5,2.5-0.6c1.8-0.3,3.7-0.3,5.6-0.1c1.7,0.2,3.3,0.7,4.8,1.6c1.1,0.6,2,1.5,2.6,2.6c0.5,0.9,0.5,2,0.1,3
	c-0.3,0.7-0.7,1.3-1.2,1.9l-0.7,0.8c-0.2,0.2-0.4,0.5-0.6,0.7c-0.6,0.6-1,1.4-1.2,2.2c-0.1,0.9,0.4,1.6,1.5,2.3
	c1.1,0.6,2.2,0.9,3.4,0.8c1.2,0,2.4-0.3,3.5-0.9l0.2-0.1c0.8-0.4,1.3-1.1,1.5-1.9c0-0.7-0.4-1.4-1.4-2l5.1-3
	c0.9,0.5,1.7,1.2,2.3,2.1c0.6,0.7,0.9,1.6,0.9,2.5c0,1.5-0.7,2.9-1.9,3.9l4.4,2.6L313.4,361.1z"/>
<path class="st15" d="M0,696.8c0,0.3,0.1,0.5,0.1,0.8c0,0,0,0.1,0,0.1c0,0.3,0,0.6,0.1,0.9c0,0.1,0,0.2,0.1,0.3c0,0.1,0,0.1,0,0.2
	c0,0.3,0.2,0.5,0.2,0.8s0.1,0.6,0.2,0.9l0.1,0.3c0,0.1,0,0.2,0.1,0.3s0.2,0.5,0.3,0.7s0.2,0.6,0.4,0.9l0.2,0.4
	c0,0.1,0.1,0.2,0.1,0.3s0.2,0.4,0.4,0.5s0.3,0.6,0.5,0.9s0.3,0.3,0.4,0.5s0.2,0.3,0.3,0.4s0.2,0.2,0.4,0.4s0.4,0.5,0.6,0.7
	c0.3,0.4,0.7,0.8,1.1,1.1c0.1,0.1,0.2,0.3,0.4,0.4s0.2,0.1,0.2,0.2l0.2,0.2c0.3,0.3,0.7,0.5,1,0.8s0.7,0.5,1,0.8
	c0.1,0.1,0.2,0.1,0.2,0.2c0.4,0.3,0.8,0.5,1.2,0.8s0.6,0.4,1,0.7l0.5,0.3c1.2,0.7,2.4,1.3,3.7,1.9l1.1,0.5c1,0.4,2,0.8,3.1,1.2
	c0.2,0.1,0.4,0.2,0.7,0.3s0.3,0.1,0.4,0.1c0.7,0.2,1.4,0.4,2,0.6l1.5,0.4c0.7,0.2,1.5,0.3,2.2,0.5c0.4,0.1,0.8,0.2,1.2,0.2h0.2
	c1.5,0.3,3,0.5,4.5,0.6h0.3c0.3,0,0.7,0,1.1,0.1c0.9,0.1,1.8,0.1,2.7,0.2h0.6h4h1c0.7,0,1.3-0.1,2-0.1c0.3,0,0.6,0,0.9,0
	s0.6-0.1,0.9-0.1c0.7-0.1,1.3-0.1,1.9-0.2l0.9-0.1l0.8-0.2c0.7-0.1,1.4-0.2,2.1-0.4c0.3-0.1,0.7-0.1,1-0.2s0.4-0.1,0.7-0.2
	c0.8-0.2,1.6-0.4,2.4-0.6c0.3-0.1,0.7-0.2,1-0.2l0.3-0.1c1.4-0.4,2.8-0.9,4.2-1.4l0.2-0.1c0.6-0.2,1.2-0.5,1.8-0.8
	c0.3-0.2,0.7-0.3,1-0.4c1-0.5,2-1,2.9-1.5s1.9-1.1,2.7-1.7c0.2-0.2,0.4-0.4,0.7-0.5c0.6-0.4,1.2-0.9,1.7-1.3
	c0.2-0.2,0.4-0.5,0.7-0.7c0.5-0.4,0.9-0.9,1.3-1.3c0.2-0.3,0.4-0.5,0.7-0.8s0.7-0.8,1-1.2s0.4-0.6,0.5-0.9s0.5-0.8,0.7-1.2
	s0.3-0.6,0.4-0.9s0.4-0.8,0.5-1.2s0.2-0.6,0.2-0.9s0.2-0.8,0.3-1.2s0.1-0.6,0.1-0.9s0.1-0.8,0.1-1.2v7.9c0,5.9-3.8,11.8-11.6,16.2
	c-0.9,0.5-1.9,1-2.9,1.5l-1,0.4c-0.6,0.3-1.2,0.5-1.8,0.8l-0.2,0.1c-1.4,0.5-2.8,1-4.2,1.4l-0.3,0.1l-1,0.3
	c-0.8,0.2-1.7,0.4-2.5,0.6l-0.6,0.1l-1,0.2c-0.7,0.1-1.4,0.3-2.1,0.4l-0.8,0.1c-0.3,0-0.6,0.1-0.9,0.1c-0.7,0.1-1.3,0.2-2,0.2
	c-0.3,0-0.6,0.1-0.9,0.1l-0.9,0.1c-0.7,0-1.3,0.1-2,0.1h-1h-0.8c-0.7,0-1.4,0-2.1,0h-1.1c-0.2,0-0.4,0-0.6,0c-0.9,0-1.8-0.1-2.7-0.2
	c-0.3,0-0.7,0-1-0.1H32c-1.5-0.2-3-0.4-4.5-0.6h-0.2c-0.4-0.1-0.9-0.2-1.3-0.3c-0.7-0.2-1.4-0.3-2.1-0.5c-0.5-0.1-1-0.3-1.6-0.4
	c-0.7-0.2-1.4-0.4-2-0.6l-0.4-0.2l-0.7-0.2c-1-0.4-2.1-0.7-3.1-1.2l-1.1-0.5c-1.3-0.6-2.5-1.2-3.7-1.9l-0.3-0.3
	c-0.4-0.2-0.7-0.5-1.1-0.7s-0.9-0.6-1.3-0.9s-0.8-0.6-1.2-0.9s-0.8-0.6-1.2-1L6,716.5l-0.4-0.4c-0.6-0.6-1.2-1.2-1.6-1.8
	c-0.1-0.2-0.3-0.3-0.4-0.5s-0.2-0.2-0.3-0.3c-0.3-0.4-0.6-0.9-0.9-1.4c-0.1-0.2-0.3-0.4-0.4-0.7s-0.1-0.2-0.1-0.2
	c-0.2-0.4-0.4-0.8-0.6-1.2s-0.2-0.5-0.4-0.8l-0.1-0.2c-0.1-0.4-0.2-0.8-0.3-1.1s-0.2-0.6-0.2-1v-0.1c-0.1-0.4-0.1-0.8-0.1-1.2
	c-0.1-0.4-0.1-0.8-0.1-1.2l0,0v-8C0,696.6,0,696.7,0,696.8z"/>
<path class="st16" d="M78.5,697.6c0-0.4,0.1-0.8,0.1-1.2l0,0l0,0c-0.1-3.6-1.4-7-3.8-9.8c-2.1-2.5-4.7-4.7-7.6-6.3
	c-3.5-2-7.3-3.6-11.2-4.6c-10.8-2.8-22.2-2.8-33,0c-4,1-7.8,2.5-11.3,4.5c-3.4,1.9-6.4,4.4-8.7,7.5c-2.1,2.8-3.1,6.4-2.8,9.9
	c0,0.3,0,0.6,0.1,0.9c0.1,0.4,0.2,0.8,0.3,1.3s0.1,0.6,0.2,0.9s0.3,0.8,0.5,1.2s0.2,0.6,0.4,0.9s0.5,0.8,0.7,1.2s0.3,0.6,0.5,0.9
	s0.7,0.9,1,1.3c0.2,0.2,0.4,0.5,0.6,0.7c0.5,0.6,1.1,1.2,1.7,1.7l0.2,0.2c0.6,0.6,1.3,1.1,2.1,1.7c0.1,0.1,0.2,0.1,0.2,0.2
	c0.8,0.6,1.7,1.2,2.7,1.7c1.2,0.7,2.4,1.3,3.7,1.9l1.1,0.5c1,0.4,2,0.8,3.1,1.2l1.1,0.4c0.7,0.2,1.4,0.4,2,0.6l1.5,0.4
	c0.7,0.2,1.5,0.3,2.2,0.5c0.5,0.1,0.9,0.2,1.4,0.3c1.5,0.3,3,0.5,4.5,0.6l1.4,0.1c0.9,0.1,1.8,0.1,2.7,0.2c0.6,0,1.1,0,1.7,0h2.2
	h1.8c0.7,0,1.3-0.1,2-0.1l1.8-0.2c0.7-0.1,1.3-0.1,1.9-0.2s1.2-0.2,1.8-0.2s1.4-0.2,2.1-0.4s1.1-0.2,1.6-0.3
	c0.8-0.2,1.6-0.4,2.4-0.6l1.3-0.4c1.4-0.4,2.8-0.9,4.2-1.4c0.7-0.3,1.4-0.6,2-0.9c0.3-0.2,0.7-0.3,1-0.4c1-0.5,2-1,2.9-1.5
	s1.9-1.1,2.7-1.7c0.2-0.2,0.4-0.4,0.7-0.5c0.6-0.4,1.2-0.9,1.7-1.3c0.2-0.2,0.4-0.5,0.7-0.7c0.5-0.4,0.9-0.9,1.3-1.3
	c0.2-0.3,0.4-0.5,0.7-0.8s0.7-0.8,1-1.2s0.4-0.6,0.5-0.9s0.5-0.8,0.7-1.2s0.3-0.6,0.4-0.9s0.4-0.8,0.5-1.2s0.2-0.6,0.2-0.9
	s0.2-0.8,0.3-1.2S78.5,697.9,78.5,697.6z M59.7,687.2l-4.5,2.6c0.5,0.5,0.9,1.1,1.2,1.7c0.5,1.1,0.5,2.5,0,3.6
	c-0.7,1.4-1.8,2.4-3.2,3.1c-2.7,1.5-5.7,2.1-8.7,1.8c-2.1-0.2-4.1-0.6-6.1-1.2l-1.5-0.4l-0.9-0.2c-1-0.3-2.1-0.4-3.1-0.5
	c-0.9,0-1.8,0.2-2.6,0.7c-0.7,0.3-1.2,0.8-1.3,1.5c0,0.6,0.4,1.1,1.1,1.5h0.1c0.8,0.5,1.8,0.7,2.7,0.7c1,0,2.1-0.2,3-0.7l5,2.9
	c-1.6,0.8-3.3,1.3-5,1.6c-1.8,0.3-3.7,0.3-5.5-0.1c-0.8-0.1-1.7-0.3-2.5-0.6l-4.5,2.6l-2.2-1.3l-2-1.1l4.6-2.7l0,0
	c-0.4-0.4-0.8-0.9-1.1-1.4c-0.5-1-0.6-2.2-0.1-3.2c0.6-1.2,1.5-2.2,2.7-2.8c1.4-0.8,2.9-1.3,4.5-1.5c1.7-0.3,3.5-0.3,5.2-0.1
	c1.1,0.2,2.2,0.4,3.2,0.7l1.4,0.4l1.2,0.3c1.2,0.3,2.5,0.6,3.8,0.7c1.4,0.1,2.8-0.2,4-0.9c1-0.6,1.5-1.2,1.4-2
	c-0.1-0.9-0.7-1.7-1.5-2l-0.2-0.1c-1-0.5-2.1-0.8-3.3-0.9c-1.2,0-2.4,0.2-3.5,0.8l-5.1-3c1.1-0.6,2.3-1.1,3.6-1.3
	c1.4-0.4,2.8-0.5,4.3-0.5c2.3,0,4.6,0.3,6.7,1.1l4.4-2.6l2,1.2L59.7,687.2z"/>
<path class="st17" d="M56.4,691.5c0.5,1.1,0.5,2.5,0,3.6c-0.7,1.4-1.8,2.4-3.2,3.1c-2.7,1.5-5.7,2.1-8.7,1.8
	c-2.1-0.2-4.1-0.6-6.1-1.2l-1.5-0.4l-0.9-0.2c-1-0.3-2.1-0.4-3.1-0.5c-0.9,0-1.8,0.2-2.6,0.7c-0.7,0.3-1.2,0.8-1.3,1.5
	c0,0.6,0.4,1.1,1.1,1.5h0.1c0.8,0.5,1.8,0.7,2.7,0.7c1,0,2.1-0.2,3-0.7l5,2.9c-1.6,0.8-3.3,1.3-5,1.6c-1.8,0.3-3.7,0.3-5.5-0.1
	c-0.8-0.1-1.7-0.3-2.5-0.6l-4.5,2.6l-2.2-1.3l-2-1.1l4.6-2.7l0,0c-0.4-0.4-0.8-0.9-1.1-1.4c-0.5-1-0.6-2.2-0.1-3.2
	c0.6-1.2,1.5-2.2,2.7-2.8c1.4-0.8,2.9-1.3,4.5-1.5c1.7-0.3,3.5-0.3,5.2-0.1c1.1,0.2,2.2,0.4,3.2,0.7l1.4,0.4l1.2,0.3
	c1.2,0.3,2.5,0.6,3.8,0.7c1.4,0.1,2.8-0.2,4-0.9c1-0.6,1.5-1.2,1.4-2c-0.1-0.9-0.7-1.7-1.5-2l-0.2-0.1c-1-0.5-2.1-0.8-3.3-0.9
	c-1.2,0-2.4,0.2-3.5,0.8l-5.1-3c1.1-0.6,2.3-1.1,3.6-1.3c1.4-0.4,2.8-0.5,4.3-0.5c2.3,0,4.6,0.3,6.7,1.1l4.4-2.6l2,1.2l2.2,1.3
	l-4.5,2.6C55.7,690.2,56.1,690.8,56.4,691.5z"/>
<path class="st15" d="M63.1,456.8c0.2-0.2,0.5-0.4,0.7-0.6c0.3-0.3,0.6-0.7,0.8-1.1c0.2-0.2,0.4-0.5,0.6-0.8s0.5-0.9,0.7-1.3
	s0.3-0.5,0.5-0.8c0.2-0.5,0.4-1,0.6-1.6c0.1-0.3,0.2-0.5,0.3-0.8c0.2-0.6,0.3-1.2,0.5-1.8c0.1-0.3,0.2-0.5,0.2-0.8
	c0.1-0.7,0.2-1.5,0.3-2.2c0-0.2,0.1-0.5,0.1-0.7c0.1-1,0.2-2.1,0.2-3.2s0-2-0.1-3.1l0,0c0-0.5-0.1-1-0.2-1.5s-0.1-1-0.2-1.5l0,0
	c-0.3-2.3-0.8-4.6-1.5-6.9c0-0.1-0.1-0.2-0.1-0.3l0,0c-0.1-0.4-0.2-0.8-0.3-1.2l0,0c-0.2-0.7-0.5-1.5-0.8-2.2l0,0l-0.3-0.9l0,0
	c-0.4-1-0.8-2-1.2-3.1l0,0c-0.1-0.1-0.1-0.2-0.2-0.4l0,0c-0.2-0.5-0.4-0.9-0.7-1.4c-1-2-2-4-3.2-6c-0.4-0.7-0.8-1.4-1.2-2l0,0
	c-0.8-1.3-1.7-2.6-2.7-3.8l0,0c-0.2-0.2-0.3-0.5-0.5-0.7c-0.7-1-1.5-1.9-2.3-2.8l-0.6-0.7l0,0c-0.6-0.7-1.2-1.3-1.8-2l0,0
	c-0.4-0.4-0.8-0.8-1.2-1.2l0,0c-0.3-0.3-0.6-0.6-0.9-0.9l0,0l-1.1-1c-0.7-0.6-1.5-1.2-2.2-1.8c-0.3-0.2-0.6-0.5-1-0.7l0,0
	c-1.1-0.8-2.3-1.6-3.5-2.3c-0.7-0.4-1.5-0.8-2.2-1.1c-0.4-0.2-0.9-0.4-1.3-0.6l0,0l-0.2-0.1c-0.9-0.4-1.9-0.7-2.9-1l0,0
	c-1.5-0.5-3.1-0.8-4.6-0.9h0c-0.3,0-0.6,0-0.9,0s-0.9,0-1.3,0h0c-0.3,0-0.6,0.1-1,0.1c-0.5,0.1-1,0.1-1.5,0.2h-0.1l-0.6,0.2
	c-0.5,0.1-0.9,0.2-1.4,0.4h-0.1c-0.3,0.1-0.5,0.2-0.7,0.3s-0.7,0.3-1,0.5h0l6.9-4l0.2-0.1c0.5-0.3,0.9-0.5,1.4-0.7l0.3-0.1l0.5-0.2
	c0.2-0.1,0.5-0.2,0.7-0.2c0.3-0.1,0.5-0.1,0.8-0.2l0.5-0.1c0.1,0,0.2,0,0.3-0.1c0.6-0.1,1.1-0.2,1.7-0.2h0.5c0.4,0,0.9,0,1.3,0h0.5
	l0.8,0.1c0.3,0,0.5,0,0.8,0.1h-0.1l0,0c0.8,0.1,1.7,0.3,2.5,0.5l0,0l0,0c0.2,0,0.4,0.1,0.6,0.2c0.7,0.2,1.3,0.4,2,0.7
	c0.2,0.1,0.5,0.1,0.7,0.2s0.3,0.1,0.4,0.2c1.2,0.5,2.4,1.1,3.5,1.8c0.9,0.5,1.8,1.1,2.7,1.7c0.3,0.2,0.5,0.4,0.8,0.6
	c0.6,0.4,1.2,0.9,1.8,1.3c0.3,0.2,0.6,0.5,0.9,0.8c0.5,0.5,1.1,0.9,1.6,1.4l0.9,0.9l0.6,0.6c0.2,0.2,0.4,0.4,0.6,0.6
	c0.6,0.6,1.2,1.3,1.8,2c0.2,0.2,0.4,0.4,0.6,0.6s0.3,0.4,0.5,0.6c0.4,0.4,0.7,0.9,1.1,1.3s0.5,0.6,0.7,0.9s0.4,0.5,0.5,0.7l0.8,1.1
	c0.2,0.2,0.4,0.5,0.5,0.7c0.3,0.4,0.6,0.8,0.8,1.2s0.4,0.5,0.6,0.8l0.2,0.3c0.5,0.8,1,1.6,1.4,2.4l0.1,0.2l0.3,0.5
	c0.3,0.6,0.6,1.1,0.9,1.7c0.2,0.3,0.3,0.5,0.4,0.8l0.4,0.8c0.1,0.2,0.3,0.5,0.4,0.7c0.3,0.6,0.6,1.3,0.9,1.9l0.2,0.5v0.1
	c0.4,0.8,0.7,1.7,1,2.5c0.1,0.1,0.1,0.3,0.2,0.5c0.1,0.3,0.2,0.6,0.3,1s0.3,0.8,0.4,1.2s0.2,0.6,0.3,1s0.2,0.8,0.4,1.2
	c0.1,0.2,0.2,0.5,0.2,0.7c0.1,0.4,0.2,0.9,0.3,1.3s0.2,1,0.4,1.4c0,0.2,0.1,0.3,0.1,0.5c0.1,0.3,0.1,0.7,0.2,1
	c0.1,0.8,0.3,1.5,0.4,2.2c0,0.2,0.1,0.4,0.1,0.6c0.1,0.5,0.1,0.9,0.1,1.4s0.1,0.7,0.1,1c0.1,1,0.1,2.1,0.1,3.1
	c0,8.8-3.1,15-8.2,17.9l-6.9,4c0.3-0.2,0.7-0.5,1-0.7c0.3-0.2,0.5-0.3,0.7-0.5C62.5,457.4,62.8,457.1,63.1,456.8z"/>
<path class="st16" d="M12.8,408.8c-0.1,17.7,12.4,39.3,27.8,48.2s27.9,1.8,28-16s-12.4-39.3-27.8-48.2S12.8,391.1,12.8,408.8z
	 M32,426.1c0-2.8,0.9-4.5,2.8-5.2c1.3-0.3,2.7-0.3,4.1,0l1.1,0.2c0.2,0,0.4,0.1,0.6,0.1c0.7,0.1,1.4,0.1,2-0.2
	c0.5-0.4,0.8-1.1,0.8-1.8c0-1-0.3-1.9-0.7-2.7c-0.4-0.8-1.1-1.5-1.9-2h-0.1c-0.6-0.4-1.3-0.5-2-0.3c-0.6,0.4-0.9,1.1-0.9,1.8
	l-5.1-2.9c0-1.4,0.4-2.7,1.1-3.8c0.7-0.9,1.7-1.4,2.8-1.5c0.6,0,1.2,0.1,1.8,0.2v-5.2l2.3,1.2l2,1.1v5.2l0,0
	c0.6,0.6,1.2,1.2,1.8,1.9c1.2,1.4,2.1,3.1,2.8,4.8c0.7,1.6,1,3.2,1,4.9c0,1.3-0.3,2.5-0.9,3.6c-0.6,0.9-1.5,1.5-2.5,1.6
	c-0.7,0.1-1.5,0-2.2-0.1l-1.1-0.2c-0.3-0.1-0.6-0.1-0.9-0.1c-0.8-0.2-1.7-0.1-2.5,0.1c-0.8,0.3-1.2,1.2-1.2,2.5c0,1.2,0.4,2.4,1,3.4
	c0.6,1.1,1.5,1.9,2.5,2.6l0.2,0.1c0.7,0.5,1.6,0.6,2.4,0.4c0.7-0.3,1-1,1.1-2.2l5.2,3c0,1-0.2,2.1-0.6,3c-0.3,0.8-0.9,1.5-1.7,2
	c-1.3,0.7-2.9,0.8-4.3,0.3v5.1l-2-1.1l-2.2-1.3v-5.2c-0.8-0.7-1.5-1.4-2.1-2.2c-1.3-1.6-2.4-3.4-3.1-5.4C32.4,429.9,32,428,32,426.1
	z"/>
<path class="st17" d="M34.8,420.9c1.3-0.3,2.7-0.3,4.1,0l1.1,0.2c0.2,0,0.4,0.1,0.6,0.1c0.7,0.1,1.4,0.1,2-0.2
	c0.5-0.4,0.8-1.1,0.8-1.8c0-1-0.3-1.9-0.7-2.7c-0.4-0.8-1.1-1.5-1.9-2h-0.1c-0.6-0.4-1.3-0.5-2-0.3c-0.6,0.4-0.9,1.1-0.9,1.8
	l-5.1-2.9c0-1.4,0.4-2.7,1.1-3.8c0.7-0.9,1.7-1.4,2.8-1.5c0.6,0,1.2,0.1,1.8,0.2v-5.2l2.3,1.2l2,1.1v5.2l0,0
	c0.6,0.6,1.2,1.2,1.8,1.9c1.2,1.4,2.1,3.1,2.8,4.8c0.7,1.6,1,3.2,1,4.9c0,1.3-0.3,2.5-0.9,3.6c-0.6,0.9-1.5,1.5-2.5,1.6
	c-0.7,0.1-1.5,0-2.2-0.1l-1.1-0.2c-0.3-0.1-0.6-0.1-0.9-0.1c-0.8-0.2-1.7-0.1-2.5,0.1c-0.8,0.3-1.2,1.2-1.2,2.5c0,1.2,0.4,2.4,1,3.4
	c0.6,1.1,1.5,1.9,2.5,2.6l0.2,0.1c0.7,0.5,1.6,0.6,2.4,0.4c0.7-0.3,1-1,1.1-2.2l5.2,3c0,1-0.2,2.1-0.6,3c-0.3,0.8-0.9,1.5-1.7,2
	c-1.3,0.7-2.9,0.8-4.3,0.3v5.1l-2-1.1l-2.2-1.3v-5.2c-0.8-0.7-1.5-1.4-2.1-2.2c-1.3-1.6-2.4-3.4-3.1-5.4c-0.7-1.8-1.1-3.7-1.1-5.6
	C32,423.3,33,421.5,34.8,420.9z"/>
<polygon class="st2" points="160.9,876.2 180.1,876.2 199,889.5 181.4,894.7 161.2,890.8 "/>
<polygon class="st2" points="237.8,876.2 257,876.2 275.9,889.5 258.3,894.7 238.1,890.8 "/>
<polygon class="st2" points="182.5,479.6 189.5,612.7 179.6,621.7 169.3,612.7 178,479.9 "/>
<polygon class="st18" points="155.2,444.5 181.2,468 164.9,480.1 150.2,448.2 "/>
<polygon class="st18" points="199.9,451.9 181.2,468 192.2,480.9 205,456 "/>
<polygon class="st19" points="205.5,646.2 459,603.8 370.8,582.1 114,612.2 "/>
<rect x="205.1" y="639.6" class="st19" width="7.8" height="260.6"/>
<rect x="120.1" y="614.1" class="st19" width="7.8" height="285.3"/>
<rect x="451.2" y="603.8" class="st19" width="7.8" height="271.5"/>
<rect x="361.3" y="602.8" class="st19" width="7.8" height="247.3"/>
<polygon class="st19" points="204.9,677.7 114.8,648.5 114,612.2 206.1,645.1 "/>
<polygon class="st19" points="459,641 211.1,680.7 211.1,643.5 459,603.8 "/>
<polygon class="st18" points="171.1,582.7 178.1,584.2 172.3,604.5 166.4,603.7 "/>
<linearGradient id="SVGID_1_" gradientUnits="userSpaceOnUse" x1="68.0201" y1="4320.1665" x2="71.5201" y2="4294.4868" gradientTransform="matrix(-0.91 -7.000000e-02 4.000000e-02 -0.48 119.14 2679.4199)">
	<stop  offset="0" style="stop-color:#FFFFFF"/>
	<stop  offset="0.15" style="stop-color:#F1F6FB"/>
	<stop  offset="0.42" style="stop-color:#DEEAF7"/>
	<stop  offset="0.7" style="stop-color:#D3E3F4"/>
	<stop  offset="1" style="stop-color:#CFE1F3"/>
</linearGradient>
<polygon class="st20" points="228.9,605.7 285.8,610.2 225.8,618.6 167.4,611.7 "/>
<path class="st21" d="M166.5,614.7l56.6,5.8l0.4-3.1l-55.8-5.7c-0.4,0-0.8,0.3-0.9,0.7L166.5,614.7z"/>
<path class="st3" d="M171.1,583.1c6.3,1.6,12.6,2.8,19,3.6c1.9,0,8.9,0.1,12.2,0.2l0,0c9.6-0.2,20.3,0,22.4,1.8
	c1.8,1.5,9.8,10.7,13.4,15l0,0l0.5,0.7l0.2,0.2l0.4,0.5l0.1,0.2l0.4,0.5c1.5,2.2,0.8,4.5-4,2.8c-0.9-0.4-1.7-0.8-2.5-1.4
	c0.2,0.7,0.3,1.4,0.1,2.1c-1.1,2.2-3.8,1.9-6-0.5c-1-1.2-2-2.5-2.8-3.9c-1.1-1.7-2.4-3.3-3.8-4.8l-0.9,0.2c1,1.5,1.9,3,2.6,4.6
	c1.3,2.9,0.8,5.2-0.2,6.1c-0.4,0.4-0.9,0.6-1.4,0.4c-1.5-0.7-4.3-4.7-7-8.3c-0.3-0.4-0.5-0.7-0.8-1c-0.9,0.2-1.9,0.4-2.9,0.4l0,0
	c1.5,1.3,2.7,2.8,3.6,4.6c1.1,2.6-1.1,4.6-3.4,3.4s-9.8-6.1-12.2-4.7s-7.5,3.9-10.3,4.2s-5.9-1-8.8-4s-11-4.5-11.8-4.6
	C169.4,595.6,169.6,589.4,171.1,583.1z"/>
<path class="st21" d="M228.7,535.9l-3.5,84.8c-1.7,0.2-5.4-0.6-5.3-2.5l4.3-78.2C224.4,538.1,227.1,536,228.7,535.9z"/>
<path class="st22" d="M229.9,535.6l96.1-4.5c1.4-0.1,2.4,1.2,2.4,2.9l-6.2,69.6c0,1.6-1.1,3.1-2.7,3.5l-94.2,13.6
	c-1.7,0.2-3-1.1-2.9-3l4.3-78.5C226.7,537.4,228.1,535.8,229.9,535.6z"/>
<path class="st2" d="M177.5,395.6c0.1,4.1,1.4,17.7-3.1,17.7c-0.8,0,0.3-7-3.4-9c-7.7-3.8-7,15.1-1.7,14c1,0.9-2.4,13.8-4.3,15.8
	s-3.9-0.8-3.9-0.8s1.4-6.3-0.2-7.9c-22.4-23-1.4-74.5,43.9-53.2c2.6,1.2,12.9,8,18.7,6.9c-0.3,1.8-1.4,4.1-5,3.8
	c2.2,1.2,3.5,1.3,5.9-0.1C221.5,410.8,176.2,380.9,177.5,395.6z"/>
<path class="st2" d="M173.9,470.3l1.2,8.2c0.2,1.2,0.8,2.2,1.7,3c-0.2,0.5-0.3,1.1-0.3,1.6c0,2.5,1.7,4.5,3.8,4.5s3.8-2,3.8-4.5
	c0-0.5-0.1-0.9-0.2-1.4c1-0.6,1.7-1.7,1.9-2.9l1.6-8.6l-3.4-2.8l-5.1,0.9L173.9,470.3z"/>
</svg>
