<svg xmlns="http://www.w3.org/2000/svg" xmlns:xlink="http://www.w3.org/1999/xlink" viewBox="0 0 1122.28 1081.02"><defs><style>.cls-1{fill:#27a5b7;}.cls-2{fill:#22272e;}.cls-3{fill:#1a2239;}.cls-4{fill:#f4d7ce;}.cls-5{fill:#b5d9e2;}.cls-6{fill:none;stroke:#133a50;stroke-miterlimit:10;}.cls-7{fill:#ebcbab;}.cls-8{fill:#e5bf9a;}.cls-9{fill:#efe565;}.cls-10{fill:#eaccb2;}.cls-11{fill:#f3d9bf;}.cls-12{fill:#223406;}.cls-13{fill:#1b2805;}.cls-14{fill:#7f9f22;}.cls-15{fill:#263808;}.cls-16{fill:#f4a800;}.cls-17{fill:#ffc436;}.cls-18{fill:#bf9328;}.cls-19{fill:#e9f2f4;}.cls-20{fill:#253242;}.cls-21{fill:url(#linear-gradient);}.cls-22{fill:#a6aeba;}.cls-23{fill:#d2dceb;}</style><linearGradient id="linear-gradient" x1="889.2" y1="-3172.18" x2="892.7" y2="-3146.5" gradientTransform="matrix(-0.91, -0.07, -0.04, 0.48, 922.56, 2187.4)" gradientUnits="userSpaceOnUse"><stop offset="0" stop-color="#fff"/><stop offset="0.15" stop-color="#f1f6fb"/><stop offset="0.42" stop-color="#deeaf7"/><stop offset="0.7" stop-color="#d3e3f4"/><stop offset="1" stop-color="#cfe1f3"/></linearGradient></defs><title>homebg</title><g id="Layer_2" data-name="Layer 2"><g id="section1"><path class="cls-1" d="M0,500.35V1081H174.79c-2.57-39,4.45-77.59,24.57-111.59,29.32-49.56,81.2-80.1,135.64-97.35,59.41-18.85,126.26-8,182.89-31.12,24.66-10,46.71-29.1,54-54.21,6.73-23.26.25-47.91-2.28-72s.81-51.86,20.66-66.23c20.49-14.86,49.1-9.06,73.76-2.59,40.51,10.62,126.64,52.35,154.36-1.07,19.06-36.72-23.09-74.18-36.18-113.36-13.88-41.7,8.5-88.87,44-115.71S907.45,379,952.05,374.56c33.79-3.34,68.37-4,100.39-15s62-34.94,68.45-67.54c13-65.82-69.46-112.33-85.11-177.58C1026,73.83,1045.08,28.61,1076.59,0H874.05c22,69.56,9.25,164.18-76.91,175.17-88.36,12.35-189.33-70-256.65,8.23C490,241,553.11,335.7,473.17,376.86c-96.77,45.28-193.54-8.23-290.31-4.11h-.63a73.41,73.41,0,0,0-69.95,51.88C87.86,505,41.38,480.55,0,500.35Z"/><path class="cls-2" d="M225.55,873.74a4.63,4.63,0,0,1-4.51,4.87h0a4.89,4.89,0,0,1-5.46-4L196,691.49a4.65,4.65,0,0,1,4.52-4.87h0a4.89,4.89,0,0,1,5.46,4Z"/><path class="cls-2" d="M85.26,873.74a4.65,4.65,0,0,0,4.52,4.87h0a4.89,4.89,0,0,0,5.46-4l19.6-183.1a4.63,4.63,0,0,0-4.51-4.87h0a4.89,4.89,0,0,0-5.46,4Z"/><path class="cls-2" d="M214.51,688.76c0,3.18-2.26,5.76-5,5.76H101.68c-2.79,0-5-2.58-5-5.76h0c0-3.18,2.25-5.76,5-5.76H209.46c2.79,0,5,2.58,5,5.76Z"/><path class="cls-2" d="M217.22,823.9c0,2.18-2.37,4-5.29,4H99c-2.91,0-5.28-1.77-5.28-4h0c0-2.17,2.37-3.94,5.28-3.94H211.93c2.92,0,5.29,1.77,5.29,3.94Z"/><path class="cls-2" d="M207.45,735.73a4.23,4.23,0,0,1-4.45,3.94H107.87a4.22,4.22,0,0,1-4.45-3.94h0a4.22,4.22,0,0,1,4.45-4H203a4.23,4.23,0,0,1,4.45,4Z"/><path class="cls-2" d="M107.84,733.75a2.22,2.22,0,1,1-2.21-2A2.11,2.11,0,0,1,107.84,733.75Z"/><path class="cls-2" d="M207.45,733.75a2.23,2.23,0,1,1-2.22-2A2.11,2.11,0,0,1,207.45,733.75Z"/><path class="cls-2" d="M217.11,823.91a2.23,2.23,0,1,1-2.21-2A2.11,2.11,0,0,1,217.11,823.91Z"/><ellipse class="cls-2" cx="155.12" cy="686.62" rx="64.93" ry="12.52"/><path class="cls-3" d="M115.1,631.67s-20,23.44-9.17,45.17c4.12,8.25,68.18,58.49,68.18,58.49l-13.22,140.9H180.1s32-80.22,38.48-110.05,14.62-43.06,6.1-58.56-44.58-48.77-44.58-48.77L167.78,624Z"/><path class="cls-3" d="M160.57,627.79s-20,23.43-9.16,45.16c4.12,8.25,100.26,62.38,100.26,62.38l-13.22,140.9h19.21s32-80.22,38.48-110.05,14.62-43.06,6.1-58.56S225.58,655,225.58,655l-12.33-34.9Z"/><path class="cls-4" d="M187.54,434.31s2.82,11.21,9.17,16.26c10,7.93,28.69,19.36,28.69,19.36s1,5.46-14.18,16.81-36.83,17.44-56.46,8.28-4.58-46.84-4.58-46.84,8.3-1.83,12.4-8.84c4.52-7.72,4-12.48,4-12.48Z"/><path class="cls-5" d="M269.18,548.66s-31.77-76-41.41-80.91c0,0-12.49-7.86-24.4-11.78A33.5,33.5,0,0,1,182,471.22s-13.12-1.61-20.7-8.46a49.71,49.71,0,0,1-11.08-14.58s-31.56,8.29-31.77,9.22c-12.35,4.63-17.14,15.1-18.17,60.68-.45,19.81,6.6,43.41,13.19,56.6.29,33.46.7,64.67.7,64.67s19.36,12.42,47.91,12.22,49.51-21.66,49.51-21.66,6.82-73.82,9.17-110.64c0,0,18.4,45.19,28.08,52.89s44.87,33.71,44.87,33.71a22.73,22.73,0,0,1,16.79-11Z"/><path class="cls-4" d="M174.38,376.75c-7.76,4.53-6.44,18.8-6.44,18.8a56.24,56.24,0,0,0-1.86,7.55,3.44,3.44,0,0,0-.46,0c-6.74-.16-6,8.69-2.56,14.47.83,1.42,2,3.28,3.06,4.89A24.53,24.53,0,0,0,171,433.87c5.08,6.85,18.12,16.3,25.37,13.47s11.68-11.62,14.77-21.16c2.23-6.89,4-19.75,3.89-27.32S204.08,359.39,174.38,376.75Z"/><ellipse class="cls-6" cx="192.49" cy="409.3" rx="7.22" ry="8.44"/><ellipse class="cls-6" cx="209.16" cy="408.31" rx="5.95" ry="7.97"/><line class="cls-6" x1="171.07" y1="403.67" x2="185.83" y2="405.47"/><line class="cls-6" x1="199.3" y1="406.08" x2="203.24" y2="406.04"/><path class="cls-7" d="M540.18,543.54c.74,9-10.1,25.29-11.81,28.62a322.14,322.14,0,0,1-16.74,28.25c-5.77,8.68-9.75,14.05-11.4,14.62l-6-3.31c-3.91-2-.61,1.43,16.33-51.47l11.71-29.36C528.94,531.19,540.51,534.8,540.18,543.54Z"/><path class="cls-7" d="M501.68,605c-2.3-1.84-3.82-2.19-6.19-1.27-6.29,7-12.83,14.91-17.54,23q-.37,1.14-.66,2.31c-.06.67-.1,1.34-.16,2-.22,2.54-.7,5.08-.73,7.65a10.53,10.53,0,0,0,.68,3.85l.06.07a18.32,18.32,0,0,0,3.79,4.35,5.35,5.35,0,0,0,4.26,1.38c.75,0,1.27.57,1.87,1.07a4.61,4.61,0,0,0,2.36.16,6.36,6.36,0,0,1,2.3-.71,11.81,11.81,0,0,1,1.46,0c.87-.16,1.74-.32,2.59-.5a4.13,4.13,0,0,0,.91-.54,2.43,2.43,0,0,1,1-.6,6,6,0,0,0,2.3-.71,5.43,5.43,0,0,0,.72-1.22,21,21,0,0,0,1.22-4.92c0-.25,0-.5,0-.74,0-1,0-4.88-2-4.1a1.51,1.51,0,0,0-.8,1c.09-.3.16-.61.26-.91a50.05,50.05,0,0,1,3.49-6.94c.49-.8,1-1.61,1.39-2.44a39.46,39.46,0,0,0,1-10.56C505.09,612.2,504.69,607.36,501.68,605Zm-19.37,35.65s1,3.14.89,3.07-1.27-2.95-1.32-3.14a37.47,37.47,0,0,1,.57-5.27c.1-.48.38-1.15.57-1.84A50,50,0,0,0,482.31,640.61Z"/><path class="cls-7" d="M480.72,631a3.24,3.24,0,0,1-1.56-.32,1.42,1.42,0,0,1-.72-1.13s0,0,0,0a1.54,1.54,0,0,0,.59,1.31,2.7,2.7,0,0,0,1,.42,1.11,1.11,0,0,0,.78-.1C480.84,631.18,480.83,631,480.72,631Z"/><path class="cls-7" d="M487.54,632.77a8.29,8.29,0,0,1-1.32.1,2.9,2.9,0,0,1-1.27-.7h0a2.74,2.74,0,0,0,1.19.94,2.18,2.18,0,0,0,1.42-.16C487.65,632.91,487.64,632.77,487.54,632.77Z"/><path class="cls-7" d="M498.38,640h0c.21-1.23.66-2.43,1-3.73,0,0-.05-.06-.07,0-.71,2.16-1.56,4.27-.83,6.52h0a6.66,6.66,0,0,1-.09-2.69,5.11,5.11,0,0,0,.45.66c.16.2.16.62.37.79,0,0,.08,0,.05-.06s-.08-.51-.24-.72S498.6,640.26,498.38,640Z"/><path class="cls-7" d="M498,647.17c-1.34-.15-2.53-1.79-3.4-2.81-1.95-2.28-2.14-4.87-2.05-7.84h0c-.13,2.6-.18,5.22,1.44,7.32.9,1.18,2.42,3.39,4,3.38C498,647.22,498,647.17,498,647.17Z"/><path class="cls-7" d="M493.14,648.8c-1.61.27-3.49-2.63-4.37-3.68-1.66-2-1.74-4-1.94-6.46,0,0,0,0,0,0,.21,2.94.39,4.77,2.31,7.06.91,1.1,2.31,3.45,4,3.15C493.18,648.88,493.19,648.8,493.14,648.8Z"/><path class="cls-7" d="M487.37,649.45c-1.36-.69-2.35-2.64-3.05-3.9s-1.18-2.6-1.74-3.9c0,0,0,0,0,0,1,2.46,2.19,6.54,4.78,7.84C487.37,649.54,487.41,649.47,487.37,649.45Z"/><path class="cls-8" d="M553,455.07c.8,5.76-22.77,13.81-23.29,10.71,0,0-.33-10.65-7.3-32.49-1.62-5.08,2.72-8.35,7.48-11.27l7-5.85c4.27-3.05,5-1,10.1,17.56Z"/><path class="cls-9" d="M534.55,453.51s-5.18,2.85-14.29,10.58c-10.43,8.86-30.93,25.44-25,44.64l6.66,21.75s.09,19.47-.36,32.68c-.58,16.79.05,32.35,1.22,37.89,2.61,12.41,48.91,62.24,76.11,60.07,0,0,5.65-48.34-16.29-96.43-5.64-21.41,3.83-36.59,6.52-47.7,5.29-21.76-2-51.42-15.57-66.89C548.34,444.23,545.21,448.77,534.55,453.51Z"/><path class="cls-10" d="M538.92,466.39S528.6,464.67,520.35,486s-2.6,35.09,11.43,37.5,24.8-13.11,23-33.72C553,469.66,547,467.35,538.92,466.39Z"/><path class="cls-7" d="M570.23,405.36c3.22-4.67,5.49-9.33,5.64-15.32a43,43,0,0,0-3.41-18.25c-4-9-11.79-15-21.18-17.67-11.15-3.22-23.81-3-34.34,2.25-.4.2-.79.42-1.19.63-8.15,13.61,3.34,38.52,6.1,45.8l10.21,24.45,1.32,5.86L544,429.9s2.07-3.43,17.67-16.63A110.26,110.26,0,0,0,570.23,405.36Z"/><path class="cls-11" d="M516.94,356.37a35.42,35.42,0,0,0-12,9.26c-3.47,4.39-4.94,9.29-5.77,14.74-.51,3.34.1,5.58.52,8.94.26,2.1,4,6.93,3.08,8.93-1.78,3.82-1,3.34-3.76,7.67-2.2,3.44-3.68,5.11-2.94,6,2.18,2.65,6.06,2.58,6.42,2.58a4.88,4.88,0,0,1-.29,1.9c-.25.77-1.29,1.6-1,2.46.55,1.56,2.52,1.57,3.59,2.72.13.06-1.95,2.8-1.25,4.13.42.81,1.69,1,2.47,2.21.07.31.09,3,.32,5.67a8.62,8.62,0,0,0,1.8,3.69c1.91,1.94,4.66,1.61,7.21,1.31,7-1.47,16.11-7.21,19-10.84s2.46-2.82,6-13.54l5.38-61.37C536.07,351.11,525.75,352,516.94,356.37Z"/><path class="cls-12" d="M581.34,425.4a14.21,14.21,0,0,1-1.52-2.24,9.42,9.42,0,0,1-2-5.79,10.4,10.4,0,0,1,.63-2c1.17-2.7,3.36-5.25,3.71-8.23.59-4.9-3.58-8.43-4.64-12.93-1.65-7,4.64-8.56.83-21.06-2.24-7.34-9.74-14.83-16.78-18.38a58.65,58.65,0,0,0-29.67-6.08,66.54,66.54,0,0,0-14.58,2.82,37.91,37.91,0,0,0-11.56,6c-.79.61-1.57,1.2-2.31,1.81a42.27,42.27,0,0,0-4.51,3.56c-4.17,2.87-8,6.7-8,12.09,0,2.38,1.43,4.74,2.94,6.65a28.94,28.94,0,0,0,4.81,4c1.61,1.06,3.32,1.91,5,2.86,4.19,2.4,9,5.51,10.72,10.26,1,2.7.7,6.8-1.68,8.67a2.13,2.13,0,0,1-1.51,1.22c3.88,1.86,6.71-3.3,7.73-6.23.12-.34.22-.68.31-1-.16,2.86-1,5.68-1.38,8.5a11.16,11.16,0,0,0,2.29,8.56,10.89,10.89,0,0,0,3,2.41c1.22.67,2.38.71,3,2.19.52,1.18-.2,4.79-2.41,3.9a.22.22,0,0,0-.21,0c.64,1.11,2.78,1,3.75.49l.14-.1a4.72,4.72,0,0,0,1.35-1.91,12.69,12.69,0,0,0,.28-5.2,7.53,7.53,0,0,1,4,7.09c-.87,6.34-9.44,13.75-5.75,20.27.85,1.5,2.46,2.73,3.57,4.12,1.07,1,2,2.14,1.73,3.44a2.5,2.5,0,0,1-2.22,1.76,2.07,2.07,0,0,1-.74-.15,2.64,2.64,0,0,0,2.66,1.28c2.72-.78,4.27-3.75,4.13-6.5a17.15,17.15,0,0,0,1.33,1.78c1.93,2.25,5.28,2.81,8,3.52,3.81,1,7.64,2.3,9.89,5.74a6,6,0,0,1,.2,6.41,2.25,2.25,0,0,1-2.43,2.14,1.27,1.27,0,0,1-.61-.14l-.39-.17a4.13,4.13,0,0,1-1.9-2,2.82,2.82,0,0,0-.15.73c-.36,2,1.38,3.38,3.18,3.63a5.59,5.59,0,0,0,4.73-2.18,11.9,11.9,0,0,0,.78,7.52,5.38,5.38,0,0,0,6,3.3,5.18,5.18,0,0,0,3.47-3.8,3.67,3.67,0,0,1-3,1,1.9,1.9,0,0,1-1.9-1.89,6.58,6.58,0,0,1,.13-.89,6,6,0,0,1,.1-1.7,10.8,10.8,0,0,1,2.36-2.78c.5-.64,1-1.26,1.44-1.85a.34.34,0,0,1,.54-.09,22.44,22.44,0,0,0,3-3.77,8.94,8.94,0,0,0,1-2.44c1.74,0,2.63-1.09,3.68-2.59a6.29,6.29,0,0,0,.45-6.35c-1-2.4-2.58-4.35-3.43-6.82l.2.25c1.38,1.61,3.72.85,5-.38a.3.3,0,0,0,.06-.36,2.2,2.2,0,0,1-2,.55c-1-.23-1.94-.82-1.79-2a6.08,6.08,0,0,1,1.42-2.92c.29-.4.62-.77.93-1.14a23.49,23.49,0,0,1,3.78-3.61,9,9,0,0,0,3.47-7.14A13.21,13.21,0,0,0,581.34,425.4Z"/><path class="cls-13" d="M502.74,601.05s-5,59.4,6.72,83.84,4.89,56.68,4.89,56.68l3,56.69,9.67-30.3,7.82-50.82-2.93-42,5.87-48.87-16.62-16.61Z"/><path class="cls-11" d="M534.45,875.33a.14.14,0,0,0-.08-.2c.7-2.07.48-4.43.94-6.58.6-2.75.76-5.67,1.25-8.46.89-5,1.76-10,2.25-15.05.45-4.73.35-9.06-1.46-13.5a17.13,17.13,0,0,0-3.47-5.26,5.43,5.43,0,0,1-1.33-2.61l-.47-.88v0c-1.48-2.42-5.06-2.93-7.71-2.93a5.4,5.4,0,0,0-4.24,1.93c-.11.16-.25.37-.4.62-.36.68-.67,1.38-1,2.1a13.43,13.43,0,0,1-.56,2.53,18.61,18.61,0,0,1-2.52,5.38,62.09,62.09,0,0,1-4.3,6c-.3.36-.6.7-.87,1-3.82,4.66-6.69,9.75-10,14.75-1.89,2.87-3.76,6-6.66,8s-6.77,2.65-10,4a26.61,26.61,0,0,0-6.54,3.3c-3,2.44,2.46,6.29,4.66,6.83,10.27,2.55,19.94,2.84,26.48-.91,2.82-1.62,4.35-4.86,6.27-7.47a54.17,54.17,0,0,1,4.77-5.86c.12-.17.24-.34.37-.5a22.91,22.91,0,0,1,5.79-5.45,9.73,9.73,0,0,1,3.48-1.36c1.46,1.74,1.6,5,2,7.29a64.28,64.28,0,0,1,.82,8.54c0,1.08-.61,4.67.56,5.36C533.43,876.59,534.05,876.3,534.45,875.33Z"/><path class="cls-14" d="M534.45,875.33a.14.14,0,0,0-.08-.2c.7-2.07.48-4.43.94-6.58.6-2.75.76-5.67,1.25-8.46.89-5,1.76-10,2.25-15.05.45-4.73.35-9.06-1.46-13.5a17.13,17.13,0,0,0-3.47-5.26,5.12,5.12,0,0,1-.94-1.43h0c.83,10.67-19,33.32-27.39,39.83-4.75,3.69-15.13-.72-15.13-.72h0c-2.17.83-4.49,1.43-6.56,2.31a26.61,26.61,0,0,0-6.54,3.3c-3,2.44,2.46,6.29,4.66,6.83,10.27,2.55,19.94,2.84,26.48-.91,2.82-1.62,4.35-4.86,6.27-7.47a54.17,54.17,0,0,1,4.77-5.86c.12-.17.24-.34.37-.5a22.91,22.91,0,0,1,5.79-5.45,9.73,9.73,0,0,1,3.48-1.36c1.46,1.74,1.6,5,2,7.29a64.28,64.28,0,0,1,.82,8.54c0,1.08-.61,4.67.56,5.36C533.43,876.59,534.05,876.3,534.45,875.33Z"/><path class="cls-13" d="M539.7,694.26c-.38-1.14,2.48-80-5.8-90.17-4.94-6.05-6.52-10.43-27.25-3-11.36,4.05-1.63,67.68,3.07,110.22,1.38,40.64-.72-19.7,9.17,115.24.14,1.81,9.17,2.41,12.87-1.37,1.07-10.94,1.35-24.27,2.5-35.21C536.4,769.36,545.21,711.15,539.7,694.26Z"/><path class="cls-15" d="M577.64,605.32s30.54,38.95,2.52,70.23c-10.43,15.2-9.65,35.67-8.15,52.34-17.59,22.48-29.64,2.61-29.64,2.61s-37.79-69.07-35.72-123.58C534.51,597.14,577.64,605.32,577.64,605.32Z"/><path class="cls-11" d="M561.06,886.43a.14.14,0,0,0-.07-.2c.7-2.07.48-4.43.94-6.57.6-2.76.76-5.68,1.25-8.47.88-5,1.76-10,2.25-15.05.45-4.72.35-9-1.46-13.5a16.94,16.94,0,0,0-3.48-5.25,5.66,5.66,0,0,1-1.33-2.61l-.46-.89v0c-1.48-2.42-5.06-2.92-7.72-2.93a5.42,5.42,0,0,0-4.24,1.94c-.11.16-.24.37-.39.61a22,22,0,0,0-1,2.1,12.4,12.4,0,0,1-.57,2.53,18.27,18.27,0,0,1-2.51,5.39,63.85,63.85,0,0,1-4.3,6c-.3.35-.6.7-.87,1-3.82,4.66-6.69,9.76-10,14.76-1.89,2.86-3.76,6-6.67,8s-6.76,2.65-10,4c-2.23.94-4.67,1.79-6.54,3.31-3,2.44,2.46,6.28,4.66,6.83,10.27,2.55,19.93,2.83,26.47-.92,2.83-1.62,4.36-4.86,6.27-7.46a55.48,55.48,0,0,1,4.78-5.86l.36-.51a23.09,23.09,0,0,1,5.8-5.44,9.33,9.33,0,0,1,3.47-1.36c1.47,1.74,1.61,5,2,7.29a62.67,62.67,0,0,1,.83,8.54c0,1.07-.61,4.67.55,5.36C560.05,887.7,560.67,887.41,561.06,886.43Z"/><path class="cls-14" d="M561.06,886.43a.14.14,0,0,0-.07-.2c.7-2.07.48-4.43.94-6.57.6-2.76.76-5.68,1.25-8.47.88-5,1.76-10,2.25-15.05.45-4.72.35-9-1.46-13.5a16.94,16.94,0,0,0-3.48-5.25,5.13,5.13,0,0,1-.93-1.44h0c.84,10.68-19,33.33-27.38,39.83-4.76,3.7-15.14-.71-15.14-.71h0c-2.17.84-4.49,1.44-6.56,2.31-2.23.94-4.67,1.79-6.54,3.31-3,2.44,2.46,6.28,4.66,6.83,10.27,2.55,19.93,2.83,26.47-.92,2.83-1.62,4.36-4.86,6.27-7.46a55.48,55.48,0,0,1,4.78-5.86l.36-.51a23.09,23.09,0,0,1,5.8-5.44,9.33,9.33,0,0,1,3.47-1.36c1.47,1.74,1.61,5,2,7.29a62.67,62.67,0,0,1,.83,8.54c0,1.07-.61,4.67.55,5.36C560.05,887.7,560.67,887.41,561.06,886.43Z"/><path class="cls-15" d="M565.77,705.48c-.75-2.3-34.6-71.16-32.6-12.19,1.38,40.63,1.9,9.49,11.8,144.44.13,1.81,9.17,2.41,12.86-1.37,1.07-11,1.35-24.27,2.5-35.21C562.48,780.58,572.34,724,565.77,705.48Z"/><path class="cls-11" d="M513.56,565.59l8-63c1.53-4.46,0-26.75,14.62-30.81,0,0,16.52-2.11,13.81,21.67l-12.34,67C532.44,569,514.61,573.75,513.56,565.59Z"/><path class="cls-11" d="M536.92,548.71c2,8.76-6.55,26.44-7.78,30A321,321,0,0,1,516.43,609c-4.53,9.39-7.74,15.26-9.3,16l-6.35-2.47c-4.14-1.47-.4,1.5,9.13-53.21l7.58-30.69C524.09,538,536.05,540,536.92,548.71Z"/><path class="cls-11" d="M506.07,619.63c-2.44-1.65-4-1.89-6.27-.78-5.73,7.44-11.63,15.86-15.7,24.32-.18.78-.35,1.56-.48,2.36v2c0,2.56-.3,5.12-.14,7.69a10.6,10.6,0,0,0,1,3.78l.07.06a18,18,0,0,0,4.12,4,5.34,5.34,0,0,0,4.35,1c.75-.06,1.31.47,1.95.93a4.6,4.6,0,0,0,2.36,0,6.19,6.19,0,0,1,2.25-.88,10.06,10.06,0,0,1,1.45-.07c.85-.23,1.71-.45,2.54-.7a4.18,4.18,0,0,0,.88-.61,2.41,2.41,0,0,1,1-.68,5.9,5.9,0,0,0,2.24-.89,5.15,5.15,0,0,0,.62-1.27,20.75,20.75,0,0,0,.83-5c0-.25,0-.5,0-.73-.06-1.05-.39-4.87-2.36-3.93a1.45,1.45,0,0,0-.71,1.06c.06-.31.11-.62.18-.93a51,51,0,0,1,2.95-7.19c.41-.83.83-1.67,1.19-2.54a39.19,39.19,0,0,0,.14-10.6C510,626.59,509.26,621.79,506.07,619.63Zm-16.54,37s1.19,3.06,1.13,3-1.51-2.84-1.56-3a36.18,36.18,0,0,1,.16-5.29c.05-.49.28-1.18.42-1.88A48,48,0,0,0,489.53,656.68Z"/><path class="cls-16" d="M256,351c0,.26.07.51.09.77,0,0,0,.07,0,.1,0,.29,0,.57.06.85a.08.08,0,0,1,0,0c0,.1.05.19.07.29s0,.13,0,.2c0,.26.15.52.22.77s.13.61.23.91c0,.1.07.19.11.29s0,.17.07.25c.09.23.23.47.33.7s.23.6.38.89c.06.12.14.23.21.35s.08.2.13.29.26.37.37.56.33.59.54.87.27.35.41.53.16.26.26.39.25.25.36.38.36.48.57.72.75.74,1.13,1.11c.14.14.24.28.38.41s.15.12.22.18.15.16.24.23c.32.29.7.55,1,.83s.67.55,1,.82l.23.19c.39.27.83.53,1.24.79s.62.44,1,.65l.48.29a41.28,41.28,0,0,0,3.7,1.87l1.14.48c1,.42,2,.81,3.06,1.16.24.09.47.19.71.27l.45.13c.65.21,1.33.39,2,.57s1,.29,1.57.42c.73.18,1.48.33,2.23.48l1.21.26.2,0c1.48.26,3,.47,4.49.63l.33,0c.35,0,.71.05,1.05.08.9.07,1.78.13,2.68.17.21,0,.42,0,.63,0,.36,0,.71,0,1.07,0,.72,0,1.45,0,2.18,0h.78l1-.05c.68,0,1.36-.06,2-.11l.88,0,.93-.11c.66-.06,1.31-.13,2-.22l.93-.1c.29,0,.56-.1.84-.15.69-.11,1.39-.23,2.08-.36.33-.06.66-.1,1-.17s.43-.11.65-.16c.82-.18,1.63-.38,2.43-.59.33-.09.69-.16,1-.26l.34-.11c1.45-.42,2.85-.89,4.21-1.42l.22-.08c.62-.24,1.22-.52,1.82-.79.32-.14.66-.27,1-.42,1-.47,2-1,2.89-1.5s1.87-1.14,2.72-1.74c.21-.15.38-.31.58-.46.61-.46,1.23-.92,1.77-1.39.22-.2.39-.4.6-.59.48-.45,1-.9,1.4-1.36.21-.24.37-.48.58-.72.36-.43.73-.87,1-1.31.2-.27.34-.55.51-.83s.55-.84.76-1.26a8.64,8.64,0,0,0,.38-.9,12.31,12.31,0,0,0,.53-1.25c.11-.31.16-.63.25-.95s.23-.81.3-1.22.06-.67.08-1a11.93,11.93,0,0,0,.1-1.19v-.06l0,8c0,5.87-3.86,11.75-11.61,16.22-.92.54-1.89,1-2.88,1.51-.34.16-.71.3-1.08.46-.56.25-1.13.5-1.71.73l-.22.09c-1.36.54-2.78,1-4.22,1.43l-.34.09-1,.26c-.82.22-1.64.43-2.48.61l-.64.13-1,.19c-.7.14-1.4.26-2.11.37l-.83.12-.92.13-2,.22-.93.08-.88.07c-.66.05-1.33.08-2,.1-.33,0-.67,0-1,0l-.82,0c-.71,0-1.43,0-2.14,0l-1.08,0-.63,0c-.9,0-1.79-.11-2.68-.18l-1.05-.09a3.16,3.16,0,0,1-.32,0c-1.51-.15-3-.36-4.47-.62l-.23,0-1.28-.26c-.73-.15-1.45-.29-2.15-.46-.53-.13-1-.28-1.55-.42-.68-.19-1.37-.37-2-.58l-.43-.14-.69-.24c-1.06-.36-2.1-.75-3.1-1.18l-1.12-.47a39,39,0,0,1-3.71-1.88l-.48-.31c-.36-.21-.69-.44-1-.66-.48-.31-1-.61-1.41-.93s-.74-.59-1.1-.88-.82-.65-1.2-1c-.09-.08-.16-.17-.25-.24l-.41-.41c-.6-.59-1.15-1.18-1.65-1.78l-.37-.47-.28-.34c-.33-.45-.63-.9-.92-1.36-.13-.22-.26-.43-.38-.65l-.15-.23c-.21-.4-.38-.79-.55-1.19s-.25-.55-.36-.83l-.07-.18c-.13-.37-.22-.75-.32-1.12s-.18-.63-.24-.95c0,0,0-.07,0-.1-.07-.39-.1-.78-.14-1.18a11.49,11.49,0,0,1-.1-1.18v0l0-8C256,350.81,256,350.92,256,351Z"/><path class="cls-17" d="M334.67,350.52a15.35,15.35,0,0,0-3.82-9.76,27.75,27.75,0,0,0-7.6-6.29,52.31,52.31,0,0,0-20-6.22,1.81,1.81,0,0,0-.23,0c-.41-.05-.83-.07-1.23-.11a68.32,68.32,0,0,0-13.79.11,53,53,0,0,0-20.34,6.25c-8.66,5-12.48,11.76-11.44,18.29a.08.08,0,0,1,0,0c.07.42.2.84.31,1.26s.13.61.23.91.34.83.51,1.24.23.6.38.89.47.8.71,1.2.33.59.54.87a15.43,15.43,0,0,0,1,1.3c.2.24.36.48.57.72a23.22,23.22,0,0,0,1.73,1.7c.09.08.15.16.24.23a23.58,23.58,0,0,0,2.08,1.65l.23.19c.84.59,1.73,1.17,2.69,1.73a41.28,41.28,0,0,0,3.7,1.87l1.14.48c1,.42,2,.81,3.06,1.16l1.16.4c.65.21,1.33.39,2,.57s1,.29,1.57.42c.73.18,1.48.33,2.23.48.47.09.94.2,1.41.28,1.48.26,3,.47,4.49.63l1.38.12c.9.07,1.78.13,2.68.17.56,0,1.13,0,1.7.05.72,0,1.45,0,2.18,0l1.75-.05c.68,0,1.36-.06,2-.11s1.21-.09,1.81-.15,1.31-.13,2-.22l1.77-.25c.69-.11,1.39-.23,2.08-.36s1.1-.21,1.63-.33c.82-.18,1.63-.38,2.43-.59.46-.13.92-.24,1.36-.37,1.45-.42,2.85-.89,4.21-1.42.69-.27,1.36-.56,2-.87.32-.14.66-.27,1-.42,1-.47,2-1,2.89-1.5s1.87-1.14,2.72-1.74c.21-.15.38-.31.58-.46.61-.46,1.23-.92,1.77-1.39.22-.2.39-.4.6-.59.48-.45,1-.9,1.4-1.36.21-.24.37-.48.58-.72.36-.43.73-.87,1-1.31.2-.27.34-.55.51-.83s.55-.84.76-1.26a8.64,8.64,0,0,0,.38-.9,12.31,12.31,0,0,0,.53-1.25c.11-.31.16-.63.25-.95s.23-.81.3-1.22.06-.67.08-1A11.93,11.93,0,0,0,334.67,350.52ZM311,357.35l4.4,2.56-2,1.15-2.23,1.29-4.47-2.6a19.55,19.55,0,0,1-3,.71,20.46,20.46,0,0,1-6.2,0,15.43,15.43,0,0,1-5.41-1.83c-2.44-1.42-3.47-3.09-3.12-5.07a8.38,8.38,0,0,1,2-3.51l.73-.89a3.45,3.45,0,0,0,.4-.49,3.69,3.69,0,0,0,.85-1.81c0-.56-.39-1.08-1.16-1.53a5.59,5.59,0,0,0-2.73-.73,5,5,0,0,0-2.67.65l-.06.06a2.15,2.15,0,0,0-1.27,1.57,2.07,2.07,0,0,0,1.1,1.7l-5.06,2.93a7,7,0,0,1-2.76-2.91,3.57,3.57,0,0,1,.14-3.18,5.7,5.7,0,0,1,1.09-1.44l-4.51-2.62,2.24-1.3,2-1.14,4.53,2.63h0a16.43,16.43,0,0,1,2.51-.6,18,18,0,0,1,5.57-.06,12.82,12.82,0,0,1,4.79,1.57,6.49,6.49,0,0,1,2.63,2.59,3.67,3.67,0,0,1,.15,3,8.55,8.55,0,0,1-1.2,1.88l-.74.81c-.22.25-.39.49-.58.72a5.19,5.19,0,0,0-1.16,2.21c-.11.86.38,1.63,1.53,2.3a6.62,6.62,0,0,0,3.44.83,6.86,6.86,0,0,0,3.47-.89l.19-.11a2.77,2.77,0,0,0,1.51-1.91c.05-.73-.41-1.4-1.39-2l5.15-3A7.19,7.19,0,0,1,312,351a4,4,0,0,1,.88,2.48A5.13,5.13,0,0,1,311,357.35Z"/><path class="cls-18" d="M313.37,361.06l-2.23,1.29-4.47-2.6a19.55,19.55,0,0,1-3,.71,20.46,20.46,0,0,1-6.2,0,15.43,15.43,0,0,1-5.41-1.83c-2.44-1.42-3.47-3.09-3.12-5.07a8.38,8.38,0,0,1,2-3.51l.73-.89a3.45,3.45,0,0,0,.4-.49,3.69,3.69,0,0,0,.85-1.81c0-.56-.39-1.08-1.16-1.53a5.59,5.59,0,0,0-2.73-.73,5,5,0,0,0-2.67.65l-.06.06a2.15,2.15,0,0,0-1.27,1.57,2.07,2.07,0,0,0,1.1,1.7l-5.06,2.93a7,7,0,0,1-2.76-2.91,3.57,3.57,0,0,1,.14-3.18,5.7,5.7,0,0,1,1.09-1.44l-4.51-2.62,2.24-1.3,2-1.14,4.53,2.63h0a16.43,16.43,0,0,1,2.51-.6,18,18,0,0,1,5.57-.06,12.82,12.82,0,0,1,4.79,1.57,6.49,6.49,0,0,1,2.63,2.59,3.67,3.67,0,0,1,.15,3,8.55,8.55,0,0,1-1.2,1.88l-.74.81c-.22.25-.39.49-.58.72a5.19,5.19,0,0,0-1.16,2.21c-.11.86.38,1.63,1.53,2.3a6.62,6.62,0,0,0,3.44.83,6.86,6.86,0,0,0,3.47-.89l.19-.11a2.77,2.77,0,0,0,1.51-1.91c.05-.73-.41-1.4-1.39-2l5.15-3A7.19,7.19,0,0,1,312,351a4,4,0,0,1,.88,2.48,5.13,5.13,0,0,1-1.94,3.89l4.4,2.56Z"/><path class="cls-16" d="M0,696.84c0,.26.06.52.08.78,0,0,0,.07,0,.1a8.66,8.66,0,0,0,.07.89c0,.1,0,.19.06.29a1.62,1.62,0,0,0,0,.2c0,.26.15.51.22.77s.13.61.22.91l.12.28c0,.09,0,.17.07.26s.23.46.33.7.23.6.37.88l.22.36c.05.1.08.2.13.29s.25.37.37.55.33.59.53.88.28.35.41.52.17.27.27.4.25.25.36.38.36.48.57.71c.34.39.74.75,1.13,1.12.14.13.24.28.38.41s.15.12.22.18l.23.23c.32.28.7.55,1,.83s.66.55,1,.82c.09.06.16.13.24.19.39.27.83.53,1.24.79s.62.44,1,.65l.48.28a38.85,38.85,0,0,0,3.7,1.88l1.13.48c1,.42,2,.81,3.1,1.17.23.08.44.18.68.26s.29.08.43.12c.67.21,1.35.4,2,.58l1.53.42c.74.18,1.49.32,2.24.48.4.08.8.18,1.21.25l.2,0c1.48.26,3,.47,4.49.63l.32,0c.35,0,.71,0,1.06.07q1.34.12,2.67.18l.64,0h4l1,0c.68,0,1.35-.06,2-.11.29,0,.58,0,.88-.05s.62-.07.94-.1c.65-.06,1.3-.14,1.94-.22l.94-.1.84-.15q1.05-.17,2.07-.36c.33-.06.67-.1,1-.17s.43-.12.65-.16c.82-.18,1.64-.39,2.44-.6.33-.09.68-.15,1-.25l.34-.11c1.44-.42,2.85-.89,4.21-1.42l.22-.08c.62-.24,1.2-.52,1.8-.78.33-.15.67-.28,1-.43,1-.48,2-1,2.88-1.51s1.87-1.14,2.72-1.73c.24-.17.45-.36.68-.53.58-.44,1.16-.87,1.68-1.32.24-.22.44-.45.67-.66.46-.43.92-.86,1.32-1.29.24-.27.43-.54.65-.81s.69-.81,1-1.22.36-.59.54-.89.52-.8.73-1.2.26-.61.39-.92.38-.81.52-1.23.15-.62.23-.93.24-.83.31-1.25.05-.59.08-.89.1-.82.11-1.23l0,7.9c0,5.87-3.85,11.75-11.61,16.22-.92.54-1.89,1-2.88,1.51l-1,.44c-.58.26-1.16.51-1.76.75l-.22.09c-1.37.53-2.78,1-4.23,1.43l-.33.09-1,.26c-.83.22-1.65.43-2.49.61l-.64.13-1,.19c-.7.14-1.41.26-2.11.37l-.83.11c-.31,0-.61.1-.92.13-.65.09-1.31.16-2,.22-.31,0-.61.06-.92.08l-.88.08c-.66,0-1.33.08-2,.1l-1,0-.81,0c-.71,0-1.43,0-2.14,0l-1.08,0c-.21,0-.42,0-.63,0-.9,0-1.79-.11-2.68-.18-.35,0-.71,0-1-.09l-.33,0c-1.5-.17-3-.37-4.46-.63l-.23,0c-.44-.07-.87-.17-1.3-.26-.72-.15-1.44-.28-2.13-.46-.53-.12-1-.27-1.56-.41-.68-.19-1.36-.37-2-.58l-.43-.15-.71-.24c-1.05-.36-2.07-.74-3.07-1.16l-1.14-.49c-1.28-.58-2.52-1.19-3.7-1.87L11,720.2c-.38-.23-.73-.47-1.1-.71s-.9-.58-1.32-.88-.77-.6-1.15-.91-.79-.63-1.15-1L6,716.5l-.42-.41c-.59-.59-1.15-1.17-1.64-1.77-.13-.16-.26-.31-.37-.47s-.2-.23-.28-.34a14,14,0,0,1-.91-1.36c-.14-.22-.28-.43-.4-.65s-.1-.16-.14-.23c-.21-.4-.38-.79-.56-1.19s-.24-.55-.35-.83l-.07-.18c-.13-.37-.22-.75-.32-1.12s-.18-.64-.24-1l0-.09c-.07-.39-.09-.79-.13-1.18a11.74,11.74,0,0,1-.1-1.18v0l0-8C0,696.61,0,696.73,0,696.84Z"/><path class="cls-17" d="M78.54,697.62c0-.41.1-.82.11-1.23v0a.43.43,0,0,1,0,0,15.33,15.33,0,0,0-3.81-9.75,27.66,27.66,0,0,0-7.61-6.29A46.81,46.81,0,0,0,56,675.74a65.91,65.91,0,0,0-33,0,46.85,46.85,0,0,0-11.34,4.55,26.94,26.94,0,0,0-8.68,7.53,14.57,14.57,0,0,0-2.82,9.91,8.66,8.66,0,0,0,.07.89c.07.43.2.84.31,1.26s.13.61.22.91.34.83.52,1.24.23.6.37.88.47.8.72,1.2.33.59.53.88.68.87,1,1.3c.19.24.36.48.57.71a23.34,23.34,0,0,0,1.73,1.71l.23.23c.64.56,1.35,1.11,2.08,1.65.09.06.16.13.24.19.84.59,1.73,1.17,2.69,1.72a38.85,38.85,0,0,0,3.7,1.88l1.13.48c1,.42,2,.81,3.1,1.17l1.11.38c.67.21,1.35.4,2,.58l1.53.42c.74.18,1.49.32,2.24.48.47.09.94.2,1.41.28,1.48.26,3,.47,4.49.63l1.38.11q1.34.12,2.67.18c.57,0,1.13,0,1.71,0h2.18l1.75,0c.68,0,1.35-.06,2-.11l1.82-.15c.65-.06,1.3-.14,1.94-.22s1.19-.16,1.78-.25,1.39-.23,2.07-.36,1.1-.21,1.64-.33c.82-.18,1.64-.39,2.44-.6l1.35-.36c1.44-.42,2.85-.89,4.21-1.42.69-.27,1.36-.56,2-.86.33-.15.67-.28,1-.43,1-.48,2-1,2.88-1.51s1.87-1.14,2.72-1.73c.24-.17.45-.36.68-.53.58-.44,1.16-.87,1.68-1.32.24-.22.44-.45.67-.66.46-.43.92-.86,1.32-1.29.24-.27.43-.54.65-.81s.69-.81,1-1.22.36-.59.54-.89.52-.8.73-1.2.26-.61.39-.92.38-.81.52-1.23.15-.62.23-.93.24-.83.31-1.25S78.51,697.92,78.54,697.62ZM59.7,687.21l-4.5,2.59a6.46,6.46,0,0,1,1.24,1.72,4.17,4.17,0,0,1,0,3.6,7.41,7.41,0,0,1-3.19,3.14,15.23,15.23,0,0,1-8.73,1.81,28.75,28.75,0,0,1-6.08-1.16l-1.5-.43-.88-.22a13.89,13.89,0,0,0-3.12-.48,5.1,5.1,0,0,0-2.63.67A2.16,2.16,0,0,0,29,700c0,.56.35,1.07,1.14,1.53l.08,0a5.85,5.85,0,0,0,2.71.73,6.48,6.48,0,0,0,3-.65l5,2.93a15.54,15.54,0,0,1-5,1.59,16.78,16.78,0,0,1-5.48-.06,16,16,0,0,1-2.5-.62l-4.55,2.62-2.22-1.3-2-1.14,4.58-2.65h0a5.35,5.35,0,0,1-1.06-1.43,3.67,3.67,0,0,1-.08-3.23,6,6,0,0,1,2.73-2.78,13.65,13.65,0,0,1,4.49-1.54,17.6,17.6,0,0,1,5.17-.09,27.82,27.82,0,0,1,3.23.69l1.42.41,1.23.35a21.32,21.32,0,0,0,3.81.67,7.29,7.29,0,0,0,4-.91c1-.57,1.47-1.23,1.43-2a2.48,2.48,0,0,0-1.51-2l-.21-.1a7.3,7.3,0,0,0-3.29-.87,7.21,7.21,0,0,0-3.53.81l-5.12-3a12.84,12.84,0,0,1,3.56-1.35,16.5,16.5,0,0,1,4.28-.53,18.74,18.74,0,0,1,6.71,1.12l4.44-2.57,2,1.15Z"/><path class="cls-18" d="M56.44,691.52a4.17,4.17,0,0,1,0,3.6,7.41,7.41,0,0,1-3.19,3.14,15.23,15.23,0,0,1-8.73,1.81,28.75,28.75,0,0,1-6.08-1.16l-1.5-.43-.88-.22a13.89,13.89,0,0,0-3.12-.48,5.1,5.1,0,0,0-2.63.67A2.16,2.16,0,0,0,29,700c0,.56.35,1.07,1.14,1.53l.08,0a5.85,5.85,0,0,0,2.71.73,6.48,6.48,0,0,0,3-.65l5,2.93a15.54,15.54,0,0,1-5,1.59,16.78,16.78,0,0,1-5.48-.06,16,16,0,0,1-2.5-.62l-4.55,2.62-2.22-1.3-2-1.14,4.58-2.65h0a5.35,5.35,0,0,1-1.06-1.43,3.67,3.67,0,0,1-.08-3.23,6,6,0,0,1,2.73-2.78,13.65,13.65,0,0,1,4.49-1.54,17.6,17.6,0,0,1,5.17-.09,27.82,27.82,0,0,1,3.23.69l1.42.41,1.23.35a21.32,21.32,0,0,0,3.81.67,7.29,7.29,0,0,0,4-.91c1-.57,1.47-1.23,1.43-2a2.48,2.48,0,0,0-1.51-2l-.21-.1a7.3,7.3,0,0,0-3.29-.87,7.21,7.21,0,0,0-3.53.81l-5.12-3a12.84,12.84,0,0,1,3.56-1.35,16.5,16.5,0,0,1,4.28-.53,18.74,18.74,0,0,1,6.71,1.12l4.44-2.57,2,1.15,2.23,1.3-4.5,2.59A6.46,6.46,0,0,1,56.44,691.52Z"/><path class="cls-16" d="M63.11,456.79c.22-.21.45-.41.66-.64a13,13,0,0,0,.83-1.09c.19-.25.39-.48.57-.75s.48-.86.72-1.29.32-.54.46-.83c.22-.49.41-1,.61-1.56.1-.28.23-.54.33-.84.18-.58.33-1.21.47-1.83.07-.28.16-.55.22-.84.14-.71.23-1.46.33-2.22,0-.24.08-.47.1-.72.1-1,.15-2.08.15-3.19s0-2-.12-3.08h0c0-.48-.1-1-.15-1.45s-.11-1-.19-1.54h0a50.41,50.41,0,0,0-1.48-6.86c0-.1-.05-.19-.07-.29h0c-.11-.39-.23-.78-.35-1.17h0q-.36-1.11-.75-2.22h0l-.32-.9a0,0,0,0,0,0,0q-.57-1.54-1.23-3.06h0c-.06-.13-.12-.25-.17-.38h0c-.21-.47-.44-.92-.65-1.38q-1.44-3.06-3.18-6c-.41-.67-.82-1.36-1.24-2l0,0c-.84-1.3-1.74-2.57-2.66-3.8l0,0c-.17-.23-.35-.45-.52-.67-.74-.95-1.49-1.88-2.27-2.77l-.61-.69s0,0,0,0c-.59-.67-1.2-1.32-1.82-1.95h0c-.39-.4-.79-.8-1.19-1.19h0c-.31-.29-.61-.58-.92-.85v0l-1.13-1c-.72-.63-1.47-1.23-2.21-1.8-.32-.24-.64-.49-1-.71l0,0a41.24,41.24,0,0,0-3.47-2.27c-.74-.43-1.47-.8-2.2-1.14-.44-.22-.87-.42-1.31-.61h0l-.2-.08a27.75,27.75,0,0,0-2.87-1h0a22,22,0,0,0-4.64-.9h-.05c-.29,0-.58,0-.87,0s-.86,0-1.28,0h-.05c-.34,0-.65.09-1,.13a14.26,14.26,0,0,0-1.48.23l-.08,0-.59.17a11.74,11.74,0,0,0-1.35.41l-.07,0c-.26.09-.49.23-.74.34s-.71.31-1.05.5l-.05,0,6.93-4,.16-.09a14.87,14.87,0,0,1,1.39-.68l.29-.1.46-.17c.25-.08.48-.18.73-.25a7.66,7.66,0,0,1,.8-.18l.51-.12a2.44,2.44,0,0,1,.26-.06,15.31,15.31,0,0,1,1.69-.2h.52c.44,0,.87,0,1.32,0l.47,0,.84.09a7.11,7.11,0,0,1,.78.08l-.06,0h0a20.38,20.38,0,0,1,2.46.52h0l0,0c.21,0,.42.15.62.21.65.2,1.31.42,2,.68.24.09.47.14.7.24s.27.15.41.2a33.7,33.7,0,0,1,3.51,1.75c.9.52,1.78,1.09,2.66,1.69.28.19.55.4.83.6.59.43,1.19.87,1.77,1.34.32.25.63.51.94.77.54.46,1.07.92,1.6,1.4l.92.86.6.56c.2.2.4.44.61.65q.93.94,1.83,1.95c.2.22.41.42.6.64s.31.39.48.58c.36.43.72.87,1.07,1.31s.49.57.72.87.36.5.54.74l.79,1.07c.17.24.36.47.52.71.29.41.56.83.84,1.25s.37.55.56.83l.22.33c.5.78,1,1.56,1.44,2.36l.09.16.28.5c.32.56.64,1.12.94,1.69.15.27.27.54.41.81l.42.83c.13.25.26.49.37.74.31.63.59,1.26.87,1.89l.21.45,0,.08c.36.83.71,1.66,1,2.5.05.15.1.3.16.45.12.32.23.64.34.95s.3.82.44,1.24.19.64.29,1,.25.78.36,1.17c.07.24.15.47.22.71.12.42.21.85.31,1.27s.25,1,.36,1.44c0,.16.08.33.12.49.07.34.1.67.17,1,.14.75.28,1.5.38,2.25,0,.2.09.41.11.61.06.46.09.91.14,1.36s.07.69.09,1c.08,1,.13,2.06.13,3.07,0,8.81-3.14,15-8.15,17.92l-6.93,4c.35-.21.67-.46,1-.7a7.57,7.57,0,0,0,.74-.52C62.49,457.42,62.8,457.1,63.11,456.79Z"/><path class="cls-17" d="M12.75,408.78c-.05,17.7,12.41,39.28,27.81,48.17s27.94,1.75,28-15.95-12.38-39.26-27.81-48.16S12.8,391.09,12.75,408.78ZM32,426.09c0-2.81.94-4.54,2.83-5.23a8.38,8.38,0,0,1,4.06,0l1.13.2a5.12,5.12,0,0,0,.63.1,3.72,3.72,0,0,0,2-.18,1.9,1.9,0,0,0,.75-1.76,5.66,5.66,0,0,0-.74-2.74,5.11,5.11,0,0,0-1.89-2l-.09,0a2.14,2.14,0,0,0-2-.31,2.1,2.1,0,0,0-.93,1.8l-5.06-2.92a6.94,6.94,0,0,1,1.14-3.84,3.55,3.55,0,0,1,2.81-1.47,5.73,5.73,0,0,1,1.8.22l0-5.21L40.71,404l2,1.15,0,5.24h0a15.86,15.86,0,0,1,1.78,1.87,18.09,18.09,0,0,1,2.84,4.79,12.73,12.73,0,0,1,1,4.94,6.5,6.5,0,0,1-.93,3.58,3.69,3.69,0,0,1-2.52,1.63,9.09,9.09,0,0,1-2.23-.11l-1.06-.23c-.34-.07-.63-.1-.92-.15a5.3,5.3,0,0,0-2.5.1c-.8.34-1.22,1.16-1.22,2.48a6.5,6.5,0,0,0,1,3.39,6.84,6.84,0,0,0,2.5,2.56l.19.11a2.73,2.73,0,0,0,2.41.35c.65-.32,1-1.05,1.08-2.22l5.15,3a7.17,7.17,0,0,1-.62,3,4,4,0,0,1-1.7,2,5.07,5.07,0,0,1-4.34.26l0,5.1-2-1.15-2.24-1.29,0-5.17a18.1,18.1,0,0,1-2.11-2.23,20.41,20.41,0,0,1-3.13-5.35A15.52,15.52,0,0,1,32,426.09Z"/><path class="cls-18" d="M34.84,420.86a8.38,8.38,0,0,1,4.06,0l1.13.2a5.12,5.12,0,0,0,.63.1,3.72,3.72,0,0,0,2-.18,1.9,1.9,0,0,0,.75-1.76,5.66,5.66,0,0,0-.74-2.74,5.11,5.11,0,0,0-1.89-2l-.09,0a2.14,2.14,0,0,0-2-.31,2.1,2.1,0,0,0-.93,1.8l-5.06-2.92a6.94,6.94,0,0,1,1.14-3.84,3.55,3.55,0,0,1,2.81-1.47,5.73,5.73,0,0,1,1.8.22l0-5.21L40.71,404l2,1.15,0,5.24h0a15.86,15.86,0,0,1,1.78,1.87,18.09,18.09,0,0,1,2.84,4.79,12.73,12.73,0,0,1,1,4.94,6.5,6.5,0,0,1-.93,3.58,3.69,3.69,0,0,1-2.52,1.63,9.09,9.09,0,0,1-2.23-.11l-1.06-.23c-.34-.07-.63-.1-.92-.15a5.3,5.3,0,0,0-2.5.1c-.8.34-1.22,1.16-1.22,2.48a6.5,6.5,0,0,0,1,3.39,6.84,6.84,0,0,0,2.5,2.56l.19.11a2.73,2.73,0,0,0,2.41.35c.65-.32,1-1.05,1.08-2.22l5.15,3a7.17,7.17,0,0,1-.62,3,4,4,0,0,1-1.7,2,5.07,5.07,0,0,1-4.34.26l0,5.1-2-1.15-2.24-1.29,0-5.17a18.1,18.1,0,0,1-2.11-2.23,20.41,20.41,0,0,1-3.13-5.35A15.52,15.52,0,0,1,32,426.09C32,423.28,33,421.55,34.84,420.86Z"/><polygon class="cls-3" points="160.89 876.23 180.1 876.23 198.98 889.48 181.39 894.7 161.19 890.79 160.89 876.23"/><polygon class="cls-3" points="237.78 876.23 256.99 876.23 275.87 889.48 258.28 894.7 238.08 890.79 237.78 876.23"/><polygon class="cls-3" points="182.53 479.64 189.51 612.73 179.65 621.68 169.29 612.73 177.97 479.88 182.53 479.64"/><polygon class="cls-19" points="155.21 444.47 181.2 467.99 164.88 480.07 150.18 448.18 155.21 444.47"/><polygon class="cls-19" points="199.88 451.86 181.2 467.99 192.25 480.94 205.03 455.97 199.88 451.86"/><polygon class="cls-20" points="205.47 646.23 459.01 603.78 370.83 582.09 114.03 612.23 205.47 646.23"/><rect class="cls-20" x="205.06" y="639.62" width="7.82" height="260.63"/><rect class="cls-20" x="120.11" y="614.1" width="7.82" height="285.32"/><rect class="cls-20" x="451.19" y="603.78" width="7.82" height="271.46"/><rect class="cls-20" x="361.27" y="602.81" width="7.82" height="247.31"/><polygon class="cls-20" points="204.85 677.72 114.84 648.49 114.03 612.23 206.15 645.14 204.85 677.72"/><polygon class="cls-20" points="459.01 641 211.12 680.72 211.12 643.51 459.01 603.78 459.01 641"/><polygon class="cls-19" points="171.09 582.74 178.1 584.18 172.32 604.49 166.4 603.73 171.09 582.74"/><polygon class="cls-21" points="228.91 605.73 285.76 610.19 225.75 618.57 167.38 611.72 228.91 605.73"/><path class="cls-22" d="M166.51,614.68l56.63,5.76.4-3.08-55.83-5.68a.84.84,0,0,0-.91.72Z"/><path class="cls-4" d="M171.14,583.09a157.3,157.3,0,0,0,19,3.58c1.9,0,8.88.09,12.16.24h0c9.55-.16,20.28,0,22.44,1.85,1.78,1.52,9.77,10.67,13.35,15h0l.54.66.19.24.37.47.14.18.35.46c1.5,2.15.75,4.55-4,2.82a12.73,12.73,0,0,1-2.53-1.39,3.23,3.23,0,0,1,.06,2.08c-1.08,2.16-3.76,1.94-6-.49a34.8,34.8,0,0,1-2.82-3.87,26.67,26.67,0,0,0-3.81-4.75l-.88.2a39.56,39.56,0,0,1,2.65,4.64c1.29,2.87.76,5.15-.2,6.1a1.29,1.29,0,0,1-1.45.38c-1.51-.67-4.32-4.72-7-8.31-.27-.36-.54-.69-.81-1a17.58,17.58,0,0,1-2.85.43h0a14.11,14.11,0,0,1,3.56,4.62c1.13,2.57-1.06,4.6-3.44,3.41s-9.82-6.08-12.17-4.7-7.5,3.88-10.34,4.2-5.86-1-8.77-4-11-4.45-11.78-4.58C169.42,595.56,169.6,589.39,171.14,583.09Z"/><path class="cls-22" d="M228.74,535.89l-3.47,84.85c-1.71.25-5.44-.61-5.31-2.53L224.29,540C224.41,538.13,227.05,536,228.74,535.89Z"/><path class="cls-23" d="M229.91,535.6,326,531.13c1.38-.08,2.43,1.22,2.35,2.91l-6.21,69.63a3.61,3.61,0,0,1-2.66,3.48l-94.18,13.59c-1.7.25-3-1.1-2.9-3l4.3-78.55A3.72,3.72,0,0,1,229.91,535.6Z"/><path class="cls-3" d="M177.48,395.58c.11,4.13,1.41,17.7-3.15,17.7-.84,0,.33-6.95-3.37-9-7.69-3.78-7,15.09-1.68,14,1,.92-2.36,13.76-4.29,15.82s-3.91-.76-3.91-.76,1.4-6.28-.2-7.92c-22.39-23-1.43-74.5,43.88-53.18,2.65,1.25,12.87,8,18.66,6.86-.33,1.79-1.39,4.07-5,3.83,2.24,1.16,3.54,1.28,5.93-.11C221.54,410.81,176.18,380.92,177.48,395.58Z"/><path class="cls-3" d="M173.88,470.33l1.22,8.17a4.8,4.8,0,0,0,1.68,3,4.91,4.91,0,0,0-.28,1.64c0,2.46,1.71,4.45,3.8,4.45s3.81-2,3.81-4.45a5,5,0,0,0-.21-1.36,3.93,3.93,0,0,0,1.89-2.92l1.63-8.63L184,467.42l-5.11.92Z"/></g></g></svg>