<?xml version="1.0" encoding="utf-8"?>
<!-- Generator: Adobe Illustrator 23.0.2, SVG Export Plug-In . SVG Version: 6.00 Build 0)  -->
<svg version="1.1" id="Layer_1" xmlns="http://www.w3.org/2000/svg" xmlns:xlink="http://www.w3.org/1999/xlink" x="0px" y="0px"
	 viewBox="0 0 1922.6 465" style="enable-background:new 0 0 1922.6 465;" xml:space="preserve">
<style type="text/css">
	.st0{fill:#99CADC;}
</style>
<title>locationsbg</title>
<g>
	<g id="section3">
		<path class="st0" d="M1922.3,37.9c-79.9-20.9-25.4,76-130.8,22.2c-60.6-20.5-162.1,47-252.8,46.9c-63-0.1-162.9-41-276.3,0
			c-70.4,34.2-124.8,120.5-319.3,75.6c-100.3-18.2-174-67.8-269.8-36.5c-98.1,22.4-192.4,0.4-229.4-17.8
			c-22.5-11.1-20.4-47.3-20.4-47.3c-65.6-19.8-109.3,31.2-217,40.7C71.9,66.7,86.9,127.1,16.4,111.4c0-22.7-0.2-106.8-0.2-106.8
			l1905.9-0.8C1922.6-17.3,1922.8,57.7,1922.3,37.9z"/>
		<path class="st0" d="M0,465c71.6,1.4,88.4-78.6,87-113.7c-2.8-40.7,14-96.8,74.4-101c50.1-2,66.4-20.2,80.4-34.2
			c29.5-30.5,30.5-63.3,58-87c23.1-22.7,87-33.4,144.3-0.9c85.8,13.6-18.9-109-23.2-123.6H0V465z"/>
	</g>
</g>
</svg>
