<svg xmlns="http://www.w3.org/2000/svg" viewBox="0 0 1922.6 465.04"><defs><style>.cls-1{fill:#27a5b7;}</style></defs><title>locationsbg</title><g id="Layer_2" data-name="Layer 2"><g id="section3"><path class="cls-1" d="M1922.35,37.86c-79.92-20.85-25.41,76-130.75,22.16-60.6-20.53-162.08,47-252.81,46.91-63-.09-162.9-41.05-276.27,0-70.37,34.21-124.78,120.54-319.28,75.58-100.34-18.24-174-67.76-269.75-36.48-98.06,22.41-192.44.43-229.36-17.81-22.45-11.1-20.42-47.35-20.42-47.35-65.62-19.76-109.32,31.18-217,40.72C71.89,66.74,86.89,127.12,16.37,111.43c0-22.7-.18-106.84-.18-106.84l1905.87-.83C1922.64-17.27,1922.77,57.72,1922.35,37.86Z"/><path class="cls-1" d="M0,465c71.58,1.41,88.42-78.59,87-113.68-2.81-40.7,14-96.84,74.38-101,50.06-2,66.36-20.19,80.4-34.23,29.46-30.46,30.45-63.28,58-87,23.09-22.65,87-33.44,144.33-.86,85.79,13.57-18.87-109-23.24-123.56H0Z"/></g></g></svg>