<svg id="Layer_1" data-name="Layer 1" xmlns="http://www.w3.org/2000/svg" xmlns:xlink="http://www.w3.org/1999/xlink" viewBox="0 0 964 928.56"><defs><style>.cls-1,.cls-9{fill:none;}.cls-2{clip-path:url(#clip-path);}.cls-3{fill:#99cadc;}.cls-4{fill:#1c1918;opacity:0.1;}.cls-5{fill:#22272e;}.cls-6{fill:#1a2239;}.cls-7{fill:#f4d7ce;}.cls-8{fill:#d6e7ee;}.cls-9{stroke:#133a50;stroke-miterlimit:10;}.cls-10{fill:#ebcbab;}.cls-11{fill:#e5bf9a;}.cls-12{fill:#efe565;}.cls-13{fill:#eaccb2;}.cls-14{fill:#f3d9bf;}.cls-15{fill:#223406;}.cls-16{fill:#1b2805;}.cls-17{fill:#7f9f22;}.cls-18{fill:#263808;}.cls-19{fill:#f4a800;}.cls-20{fill:#ffc436;}.cls-21{fill:#bf9328;}.cls-22{fill:#e9f2f4;}.cls-23{fill:#253242;}.cls-24{fill:url(#linear-gradient);}.cls-25{fill:#a6aeba;}.cls-26{fill:#d2dceb;}.cls-27{fill:#303955;}</style><clipPath id="clip-path" transform="translate(0 58.96)"><rect class="cls-1" width="750" height="869"/></clipPath><linearGradient id="linear-gradient" x1="658.08" y1="-92.19" x2="661.28" y2="-68.68" gradientTransform="matrix(-0.91, -0.07, -0.04, 0.48, 810.16, 694.55)" gradientUnits="userSpaceOnUse"><stop offset="0" stop-color="#fff"/><stop offset="0.15" stop-color="#f1f6fb"/><stop offset="0.42" stop-color="#deeaf7"/><stop offset="0.7" stop-color="#d3e3f4"/><stop offset="1" stop-color="#cfe1f3"/></linearGradient></defs><title>mobile-header-bg</title><g id="bg"><g class="cls-2"><path class="cls-3" d="M0,370.83V869.61H150.14c-2.21-33.49,3.82-66.65,21.1-95.86C196.43,731.18,241,705,287.76,690.13c51-16.19,108.45-6.89,157.1-26.73,21.17-8.62,40.11-25,46.4-46.56,5.78-20,.22-41.15-1.95-61.84s.68-44.55,17.74-56.89c17.6-12.76,42.18-7.78,63.36-2.23,34.8,9.13,108.77,45,132.59-.91,16.37-31.54-19.84-63.72-31.08-97.38-11.92-35.81,7.3-76.33,37.77-99.39s69.78-31.64,108.09-35.42c29-2.87,58.73-3.47,86.23-12.87s53.27-30,58.8-58C974,135.35,903.14,95.4,889.7,39.36c-8.38-34.9,8-73.74,35.06-98.32h-174c18.9,59.76,8,141-66.06,150.47-75.9,10.6-162.63-60.11-220.46,7.07-43.37,49.5,10.84,130.82-57.82,166.18-83.12,38.89-166.24-7.08-249.37-3.54h-.54a63.08,63.08,0,0,0-60.09,44.57C75.47,374.86,35.54,353.82,0,370.83Z" transform="translate(0 58.96)"/><path class="cls-4" d="M583.68,799.41c0,5.37-43.68,9.72-97.56,9.72s-97.56-4.35-97.56-9.72,43.68-9.72,97.56-9.72S583.68,794.05,583.68,799.41Z" transform="translate(0 58.96)"/><path class="cls-5" d="M208.6,794.71a4.25,4.25,0,0,1-4.14,4.46h0a4.47,4.47,0,0,1-5-3.68l-18-167.7a4.25,4.25,0,0,1,4.14-4.46h0a4.47,4.47,0,0,1,5,3.68Z" transform="translate(0 58.96)"/><path class="cls-5" d="M80.1,794.71a4.24,4.24,0,0,0,4.13,4.46h0a4.48,4.48,0,0,0,5-3.68l18-167.7a4.24,4.24,0,0,0-4.13-4.46h0a4.47,4.47,0,0,0-5,3.68Z" transform="translate(0 58.96)"/><path class="cls-5" d="M198.48,625.28c0,2.92-2.07,5.28-4.62,5.28H95.13c-2.55,0-4.62-2.36-4.62-5.28h0c0-2.91,2.07-5.28,4.62-5.28h98.73c2.55,0,4.62,2.37,4.62,5.28Z" transform="translate(0 58.96)"/><path class="cls-5" d="M201,749.07c0,2-2.17,3.61-4.84,3.61H92.72c-2.67,0-4.84-1.62-4.84-3.61h0c0-2,2.17-3.61,4.84-3.61h103.4c2.67,0,4.84,1.61,4.84,3.61Z" transform="translate(0 58.96)"/><path class="cls-5" d="M192,668.3a3.87,3.87,0,0,1-4.08,3.62H100.8a3.87,3.87,0,0,1-4.08-3.62h0a3.87,3.87,0,0,1,4.08-3.61h87.13A3.87,3.87,0,0,1,192,668.3Z" transform="translate(0 58.96)"/><path class="cls-5" d="M100.78,666.49a2,2,0,1,1-2-1.8A1.93,1.93,0,0,1,100.78,666.49Z" transform="translate(0 58.96)"/><path class="cls-5" d="M192,666.49a2,2,0,1,1-2-1.8A1.93,1.93,0,0,1,192,666.49Z" transform="translate(0 58.96)"/><path class="cls-5" d="M200.86,749.07a2,2,0,1,1-2-1.81A1.92,1.92,0,0,1,200.86,749.07Z" transform="translate(0 58.96)"/><ellipse class="cls-5" cx="144.08" cy="682.28" rx="59.47" ry="11.46"/><path class="cls-6" d="M107.42,573S89.1,594.46,99,614.36c3.77,7.56,62.45,53.58,62.45,53.58L149.37,797H167s29.34-73.48,35.24-100.8,13.39-39.44,5.59-53.64S167,597.89,167,597.89l-11.29-32Z" transform="translate(0 58.96)"/><path class="cls-6" d="M149.07,569.43s-18.31,21.47-8.39,41.37c3.77,7.56,91.84,57.14,91.84,57.14L220.41,797H238s29.34-73.48,35.24-100.8,13.39-39.44,5.59-53.64-70.22-48.24-70.22-48.24l-11.29-32Z" transform="translate(0 58.96)"/><path class="cls-7" d="M173.78,392.22s2.58,10.27,8.39,14.89c9.13,7.26,26.29,17.73,26.29,17.73s1,5-13,15.4-33.74,16-51.72,7.59-4.19-42.91-4.19-42.91,7.6-1.67,11.35-8.09c4.14-7.08,3.66-11.43,3.66-11.43Z" transform="translate(0 58.96)"/><path class="cls-8" d="M248.56,497s-29.11-69.61-37.93-74.11c0,0-11.45-7.2-22.35-10.79a30.7,30.7,0,0,1-19.61,14s-12-1.48-19-7.75a45.46,45.46,0,0,1-10.15-13.36s-28.91,7.6-29.1,8.45C99.14,417.61,94.75,427.2,93.82,469c-.41,18.14,6,39.76,12.08,51.85.26,30.64.64,59.23.64,59.23s17.73,11.37,43.88,11.19,45.35-19.84,45.35-19.84S202,503.76,204.17,470c0,0,16.85,41.39,25.72,48.44S271,549.36,271,549.36a20.83,20.83,0,0,1,15.38-10.11Z" transform="translate(0 58.96)"/><path class="cls-7" d="M161.72,339.5c-7.1,4.15-5.9,17.22-5.9,17.22a51.4,51.4,0,0,0-1.7,6.91l-.42,0c-6.17-.14-5.46,8-2.35,13.26.76,1.3,1.85,3,2.8,4.48a22.52,22.52,0,0,0,4.45,10.47c4.65,6.28,16.6,14.94,23.24,12.35s10.69-10.65,13.53-19.39c2-6.31,3.65-18.09,3.56-25S188.93,323.6,161.72,339.5Z" transform="translate(0 58.96)"/><ellipse class="cls-9" cx="178.31" cy="428.27" rx="6.61" ry="7.73"/><ellipse class="cls-9" cx="193.58" cy="427.36" rx="5.45" ry="7.3"/><line class="cls-9" x1="158.69" y1="423.11" x2="172.21" y2="424.76"/><line class="cls-9" x1="184.55" y1="425.31" x2="188.16" y2="425.29"/><path class="cls-10" d="M496.78,492.27c.68,8.19-9.26,23.17-10.82,26.22a296.56,296.56,0,0,1-15.33,25.87c-5.29,7.95-8.93,12.87-10.45,13.39l-5.45-3c-3.57-1.85-.56,1.32,15-47.13l10.73-26.9C486.48,481,497.08,484.26,496.78,492.27Z" transform="translate(0 58.96)"/><path class="cls-10" d="M461.52,548.53c-2.11-1.69-3.5-2-5.68-1.17-5.76,6.39-11.74,13.66-16.06,21.09-.23.7-.43,1.41-.61,2.13s-.09,1.22-.14,1.83c-.2,2.34-.64,4.66-.67,7A9.71,9.71,0,0,0,439,583s0,0,0,.06a17,17,0,0,0,3.48,4,4.92,4.92,0,0,0,3.9,1.26c.69,0,1.16.52,1.71,1a4.29,4.29,0,0,0,2.16.15,5.57,5.57,0,0,1,2.12-.65,9.86,9.86,0,0,1,1.33,0l2.37-.46a4.14,4.14,0,0,0,.84-.5,2.22,2.22,0,0,1,.95-.55,5.42,5.42,0,0,0,2.1-.65,4.71,4.71,0,0,0,.66-1.12,19,19,0,0,0,1.12-4.51c0-.22,0-.45,0-.67,0-1,0-4.47-1.87-3.76a1.37,1.37,0,0,0-.73.93c.08-.28.14-.56.23-.84a47.89,47.89,0,0,1,3.2-6.36c.45-.72.88-1.47,1.28-2.23a36.1,36.1,0,0,0,.88-9.67C464.64,555.16,464.27,550.72,461.52,548.53Zm-17.75,32.65s.88,2.88.82,2.81-1.17-2.7-1.21-2.88a34.55,34.55,0,0,1,.52-4.82c.09-.44.35-1.06.52-1.68A45.84,45.84,0,0,0,443.77,581.18Z" transform="translate(0 58.96)"/><path class="cls-10" d="M442.31,572.41a3,3,0,0,1-1.42-.3,1.28,1.28,0,0,1-.66-1s0,0,0,0a1.44,1.44,0,0,0,.54,1.2,2.61,2.61,0,0,0,.89.38,1,1,0,0,0,.71-.09C442.42,572.55,442.42,572.4,442.31,572.41Z" transform="translate(0 58.96)"/><path class="cls-10" d="M448.56,574a6.85,6.85,0,0,1-1.2.09,2.64,2.64,0,0,1-1.17-.64h0a2.48,2.48,0,0,0,1.09.86,2,2,0,0,0,1.3-.14C448.66,574.13,448.65,574,448.56,574Z" transform="translate(0 58.96)"/><path class="cls-10" d="M458.49,580.64h0c.2-1.13.61-2.22.88-3.42,0,0,0-.05-.06,0-.65,2-1.43,3.91-.76,6a0,0,0,0,0,0,0,6.05,6.05,0,0,1-.08-2.46,6.41,6.41,0,0,0,.4.61c.15.18.16.57.35.72,0,0,.07,0,.05-.06-.17-.16-.08-.46-.23-.65S458.69,580.86,458.49,580.64Z" transform="translate(0 58.96)"/><path class="cls-10" d="M458.11,587.19c-1.23-.14-2.32-1.64-3.12-2.57-1.78-2.1-2-4.47-1.88-7.19h0c-.12,2.39-.16,4.79,1.32,6.71.83,1.08,2.22,3.1,3.67,3.1C458.12,587.24,458.13,587.19,458.11,587.19Z" transform="translate(0 58.96)"/><path class="cls-10" d="M453.69,588.69c-1.48.24-3.2-2.41-4-3.37-1.52-1.84-1.6-3.68-1.78-5.92,0,0,0,0,0,0,.18,2.69.35,4.37,2.11,6.47.83,1,2.12,3.16,3.69,2.88C453.72,588.76,453.74,588.68,453.69,588.69Z" transform="translate(0 58.96)"/><path class="cls-10" d="M448.41,589.28c-1.25-.64-2.16-2.42-2.79-3.58a37.91,37.91,0,0,1-1.6-3.56s0,0,0,0c.91,2.25,2,6,4.38,7.18C448.41,589.36,448.44,589.3,448.41,589.28Z" transform="translate(0 58.96)"/><path class="cls-11" d="M508.5,411.24c.73,5.27-20.85,12.65-21.33,9.8,0,0-.3-9.75-6.69-29.76-1.48-4.65,2.49-7.64,6.85-10.31l6.38-5.37c3.91-2.79,4.56-.89,9.25,16.09Z" transform="translate(0 58.96)"/><path class="cls-12" d="M491.62,409.81s-4.74,2.6-13.09,9.69c-9.55,8.11-28.33,23.3-22.94,40.89l6.11,19.91s.08,17.84-.34,29.94c-.52,15.38.05,29.63,1.12,34.71,2.39,11.37,44.8,57,69.72,55,0,0,5.17-44.28-14.92-88.33-5.17-19.61,3.5-33.52,6-43.69,4.84-19.93-1.79-47.1-14.26-61.26C504.25,401.31,501.38,405.46,491.62,409.81Z" transform="translate(0 58.96)"/><path class="cls-13" d="M495.63,421.6s-9.46-1.57-17,18-2.38,32.15,10.47,34.35,22.72-12,21.06-30.88C508.51,424.6,503,422.48,495.63,421.6Z" transform="translate(0 58.96)"/><path class="cls-10" d="M524.3,365.7c3-4.27,5-8.55,5.16-14A39,39,0,0,0,526.34,335c-3.68-8.28-10.79-13.7-19.4-16.19-10.21-2.95-21.81-2.77-31.45,2.06-.36.18-.73.39-1.09.58-7.46,12.47,3.06,35.28,5.59,41.95l9.35,22.39,1.21,5.37,9.7-2.94s1.9-3.15,16.19-15.24A99.84,99.84,0,0,0,524.3,365.7Z" transform="translate(0 58.96)"/><path class="cls-14" d="M475.49,320.83a32.37,32.37,0,0,0-11,8.49c-3.18,4-4.52,8.5-5.28,13.49-.47,3.06.09,5.11.47,8.19.24,1.93,3.68,6.35,2.82,8.18-1.62,3.5-.91,3.06-3.44,7-2,3.15-3.37,4.68-2.69,5.5,2,2.43,5.55,2.37,5.88,2.37a4.45,4.45,0,0,1-.27,1.73c-.22.71-1.18,1.47-.91,2.26.5,1.43,2.3,1.44,3.29,2.49.11.05-1.79,2.56-1.15,3.79.38.73,1.55.93,2.27,2,.06.29.08,2.77.29,5.19a7.82,7.82,0,0,0,1.65,3.38c1.75,1.78,4.26,1.48,6.6,1.2,6.38-1.35,14.75-6.61,17.43-9.93s2.25-2.59,5.5-12.4l4.93-56.21C493,316,483.56,316.78,475.49,320.83Z" transform="translate(0 58.96)"/><path class="cls-15" d="M534.48,384.06a14.23,14.23,0,0,1-1.4-2.05,6.15,6.15,0,0,1-1.23-7.13c1.07-2.47,3.08-4.81,3.4-7.54.54-4.48-3.28-7.72-4.25-11.84-1.51-6.45,4.25-7.84.76-19.29-2-6.73-8.92-13.58-15.37-16.83a53.67,53.67,0,0,0-27.18-5.57,60.27,60.27,0,0,0-13.35,2.58,34.61,34.61,0,0,0-10.59,5.5c-.72.55-1.43,1.09-2.12,1.66a36.31,36.31,0,0,0-4.13,3.26c-3.81,2.62-7.32,6.13-7.34,11.06,0,2.19,1.32,4.35,2.7,6.1a26.61,26.61,0,0,0,4.41,3.68c1.47,1,3,1.75,4.56,2.62,3.85,2.2,8.22,5,9.82,9.4.92,2.47.64,6.23-1.54,7.93a1.94,1.94,0,0,1-1.38,1.13c3.56,1.7,6.14-3,7.09-5.71.1-.31.2-.62.28-.93-.15,2.61-.91,5.2-1.27,7.78a10.28,10.28,0,0,0,2.1,7.84,9.85,9.85,0,0,0,2.76,2.21c1.13.62,2.19.65,2.78,2,.47,1.08-.18,4.38-2.21,3.57a.19.19,0,0,0-.19,0c.59,1,2.54.95,3.44.44l.12-.09a4.34,4.34,0,0,0,1.24-1.75,11.61,11.61,0,0,0,.26-4.76,6.91,6.91,0,0,1,3.67,6.49c-.79,5.81-8.65,12.6-5.26,18.57.77,1.38,2.25,2.5,3.26,3.78,1,.86,1.81,1.95,1.59,3.14a2.28,2.28,0,0,1-2,1.61,1.75,1.75,0,0,1-.68-.13,2.4,2.4,0,0,0,2.43,1.17c2.49-.71,3.92-3.44,3.79-6a13.67,13.67,0,0,0,1.22,1.64c1.76,2.06,4.83,2.57,7.3,3.22,3.49.91,7,2.11,9.07,5.26a5.51,5.51,0,0,1,.17,5.87,2.05,2.05,0,0,1-2.22,2,1.08,1.08,0,0,1-.56-.13,1.81,1.81,0,0,1-.35-.16,3.72,3.72,0,0,1-1.75-1.86,4.34,4.34,0,0,0-.14.66c-.32,1.88,1.27,3.1,2.92,3.33a5.11,5.11,0,0,0,4.33-2,11,11,0,0,0,.71,6.89,4.94,4.94,0,0,0,5.52,3,4.75,4.75,0,0,0,3.18-3.49,3.37,3.37,0,0,1-2.77.91,1.72,1.72,0,0,1-1.73-1.73,4.49,4.49,0,0,1,.11-.82,5.85,5.85,0,0,1,.09-1.56,10.06,10.06,0,0,1,2.16-2.54c.46-.59.92-1.15,1.33-1.7a.31.31,0,0,1,.49-.08,21,21,0,0,0,2.76-3.45,8.33,8.33,0,0,0,1-2.23c1.59,0,2.4-1,3.36-2.37a5.74,5.74,0,0,0,.42-5.82c-.93-2.2-2.37-4-3.14-6.25l.18.23c1.26,1.48,3.41.78,4.58-.35a.28.28,0,0,0,.06-.33,2,2,0,0,1-1.82.51c-.92-.22-1.77-.75-1.64-1.82a5.55,5.55,0,0,1,1.3-2.67c.27-.37.57-.71.85-1a20.9,20.9,0,0,1,3.47-3.31,8.26,8.26,0,0,0,3.18-6.54A12.25,12.25,0,0,0,534.48,384.06Z" transform="translate(0 58.96)"/><path class="cls-16" d="M462.48,545s-4.58,54.4,6.16,76.78,4.48,51.93,4.48,51.93l2.77,51.92,8.87-27.75,7.16-46.55-2.69-38.5L494.6,568,479.38,552.8Z" transform="translate(0 58.96)"/><path class="cls-14" d="M491.53,796.17a.14.14,0,0,0-.07-.19c.64-1.89.44-4.05.86-6,.55-2.53.69-5.21,1.14-7.76.81-4.58,1.62-9.15,2.06-13.79.42-4.32.32-8.29-1.33-12.36a15.36,15.36,0,0,0-3.19-4.81,5.08,5.08,0,0,1-1.21-2.4c-.15-.27-.29-.53-.43-.81v0c-1.36-2.21-4.64-2.68-7.07-2.68a5,5,0,0,0-3.88,1.77c-.1.15-.23.34-.36.57a18.6,18.6,0,0,0-.89,1.92,11.07,11.07,0,0,1-.52,2.31,17,17,0,0,1-2.3,4.94,58,58,0,0,1-3.94,5.51c-.28.33-.55.64-.8,1-3.49,4.27-6.13,8.93-9.16,13.52-1.73,2.62-3.44,5.53-6.1,7.31s-6.2,2.43-9.16,3.68a24.44,24.44,0,0,0-6,3c-2.77,2.23,2.26,5.75,4.27,6.26,9.41,2.33,18.26,2.59,24.25-.84,2.59-1.49,4-4.46,5.74-6.84a50.74,50.74,0,0,1,4.38-5.37l.33-.46a21,21,0,0,1,5.31-5,8.62,8.62,0,0,1,3.18-1.24c1.35,1.59,1.47,4.62,1.83,6.67a57,57,0,0,1,.76,7.82c0,1-.55,4.28.51,4.91C490.59,797.33,491.16,797.06,491.53,796.17Z" transform="translate(0 58.96)"/><path class="cls-17" d="M491.53,796.17a.14.14,0,0,0-.07-.19c.64-1.89.44-4.05.86-6,.55-2.53.69-5.21,1.14-7.76.81-4.58,1.62-9.15,2.06-13.79.42-4.32.32-8.29-1.33-12.36a15.36,15.36,0,0,0-3.19-4.81,4.86,4.86,0,0,1-.85-1.32h0c.77,9.78-17.41,30.52-25.08,36.48-4.36,3.39-13.86-.65-13.86-.65h0c-2,.76-4.11,1.31-6,2.11a24.44,24.44,0,0,0-6,3c-2.77,2.23,2.26,5.75,4.27,6.26,9.41,2.33,18.26,2.59,24.25-.84,2.59-1.49,4-4.46,5.74-6.84a50.74,50.74,0,0,1,4.38-5.37l.33-.46a21,21,0,0,1,5.31-5,8.62,8.62,0,0,1,3.18-1.24c1.35,1.59,1.47,4.62,1.83,6.67a57,57,0,0,1,.76,7.82c0,1-.55,4.28.51,4.91C490.59,797.33,491.16,797.06,491.53,796.17Z" transform="translate(0 58.96)"/><path class="cls-16" d="M496.33,630.32c-.34-1.05,2.28-73.3-5.31-82.59-4.52-5.54-6-9.55-25-2.78-10.4,3.7-1.48,62,2.82,101,1.26,37.21-.66-18,8.4,105.55.12,1.66,8.4,2.21,11.78-1.26,1-10,1.24-22.23,2.29-32.25C493.32,699.11,501.38,645.79,496.33,630.32Z" transform="translate(0 58.96)"/><path class="cls-18" d="M531.09,548.86s28,35.67,2.31,64.32c-9.55,13.93-8.84,32.68-7.46,47.94-16.12,20.59-27.16,2.39-27.16,2.39s-34.61-63.26-32.72-113.19C491.59,541.37,531.09,548.86,531.09,548.86Z" transform="translate(0 58.96)"/><path class="cls-14" d="M515.9,806.34a.13.13,0,0,0-.06-.18c.64-1.9.43-4.06.86-6,.55-2.53.69-5.2,1.14-7.76.81-4.58,1.62-9.14,2.06-13.78.41-4.33.32-8.3-1.33-12.37a15.65,15.65,0,0,0-3.19-4.81,5,5,0,0,1-1.21-2.39c-.15-.27-.29-.54-.43-.81v0c-1.36-2.22-4.64-2.69-7.07-2.69a4.94,4.94,0,0,0-3.88,1.78,6.24,6.24,0,0,0-.36.56,19.62,19.62,0,0,0-.89,1.92,12,12,0,0,1-.52,2.32,17,17,0,0,1-2.3,4.93,59.46,59.46,0,0,1-3.94,5.52l-.8.94c-3.49,4.27-6.13,8.94-9.16,13.52-1.73,2.62-3.44,5.54-6.1,7.32s-6.2,2.42-9.16,3.67a24.44,24.44,0,0,0-6,3c-2.77,2.24,2.26,5.76,4.27,6.26,9.41,2.33,18.26,2.59,24.25-.84,2.59-1.48,4-4.45,5.74-6.84a50.74,50.74,0,0,1,4.38-5.37l.33-.46a21.18,21.18,0,0,1,5.31-5,8.62,8.62,0,0,1,3.18-1.24c1.35,1.59,1.47,4.63,1.83,6.67a57.19,57.19,0,0,1,.76,7.82c0,1-.56,4.28.51,4.92C515,807.5,515.54,807.23,515.9,806.34Z" transform="translate(0 58.96)"/><path class="cls-17" d="M515.9,806.34a.13.13,0,0,0-.06-.18c.64-1.9.43-4.06.86-6,.55-2.53.69-5.2,1.14-7.76.81-4.58,1.62-9.14,2.06-13.78.41-4.33.32-8.3-1.33-12.37a15.65,15.65,0,0,0-3.19-4.81,4.72,4.72,0,0,1-.85-1.32h0c.77,9.77-17.41,30.52-25.08,36.48-4.36,3.38-13.86-.66-13.86-.66h0c-2,.76-4.11,1.31-6,2.11a24.44,24.44,0,0,0-6,3c-2.77,2.24,2.26,5.76,4.27,6.26,9.41,2.33,18.26,2.59,24.25-.84,2.59-1.48,4-4.45,5.74-6.84a50.74,50.74,0,0,1,4.38-5.37l.33-.46a21.18,21.18,0,0,1,5.31-5,8.62,8.62,0,0,1,3.18-1.24c1.35,1.59,1.47,4.63,1.83,6.67a57.19,57.19,0,0,1,.76,7.82c0,1-.56,4.28.51,4.92C515,807.5,515.54,807.23,515.9,806.34Z" transform="translate(0 58.96)"/><path class="cls-18" d="M520.22,640.6c-.69-2.11-31.69-65.18-29.86-11.17,1.26,37.22,1.74,8.7,10.8,132.3.12,1.66,8.4,2.21,11.79-1.26,1-10,1.23-22.22,2.28-32.25C517.2,709.38,526.23,657.54,520.22,640.6Z" transform="translate(0 58.96)"/><path class="cls-14" d="M472.39,512.46l7.35-57.73c1.4-4.09,0-24.5,13.39-28.22,0,0,15.13-1.94,12.65,19.85l-11.3,61.34C489.69,515.58,473.35,519.94,472.39,512.46Z" transform="translate(0 58.96)"/><path class="cls-14" d="M493.79,497c1.79,8-6,24.22-7.13,27.46A292.49,292.49,0,0,1,475,552.18c-4.15,8.61-7.08,14-8.51,14.7l-5.82-2.26c-3.79-1.34-.37,1.38,8.37-48.74L476,487.77C482,487.21,493,489,493.79,497Z" transform="translate(0 58.96)"/><path class="cls-14" d="M465.54,562c-2.24-1.52-3.65-1.73-5.75-.72-5.25,6.82-10.65,14.53-14.38,22.27-.17.72-.32,1.44-.44,2.16v1.85c0,2.34-.27,4.69-.12,7a9.81,9.81,0,0,0,.89,3.47l.06.05a16.64,16.64,0,0,0,3.78,3.71,4.89,4.89,0,0,0,4,1c.69-.06,1.21.43,1.78.85a4.2,4.2,0,0,0,2.17,0,5.59,5.59,0,0,1,2.06-.81,9.87,9.87,0,0,1,1.33-.06l2.33-.64a4.1,4.1,0,0,0,.8-.56,2.2,2.2,0,0,1,.9-.63,5.43,5.43,0,0,0,2.05-.81,4.81,4.81,0,0,0,.57-1.16,18.91,18.91,0,0,0,.76-4.59l0-.67c0-1-.35-4.46-2.16-3.6a1.4,1.4,0,0,0-.65,1c0-.28.1-.57.17-.85a46.47,46.47,0,0,1,2.69-6.59c.39-.76.76-1.53,1.1-2.32a36.78,36.78,0,0,0,.13-9.72C469.17,568.34,468.45,563.94,465.54,562ZM450.38,595.9s1.1,2.8,1,2.74S450,596,450,595.86a34.4,34.4,0,0,1,.14-4.84c.06-.45.27-1.09.39-1.72A45.28,45.28,0,0,0,450.38,595.9Z" transform="translate(0 58.96)"/><path class="cls-19" d="M236.51,315.94c0,.24.06.48.08.72,0,0,0,.06,0,.09,0,.26,0,.52.06.78a0,0,0,0,1,0,0,2.61,2.61,0,0,0,.06.27c0,.06,0,.12,0,.18,0,.24.14.47.2.71s.12.55.21.83c0,.09.07.17.11.26a1.55,1.55,0,0,0,.06.23c.08.22.21.43.3.65s.21.54.35.81a2.69,2.69,0,0,0,.19.32c0,.09.07.18.12.27s.23.34.34.51.3.54.49.8.25.32.37.48.15.24.25.36.22.23.33.35.32.44.52.66.68.67,1,1c.13.13.22.26.35.38l.2.17.22.21c.29.26.64.5,1,.75s.62.51.95.76c.08.05.14.11.22.17.36.25.76.48,1.13.73s.57.4.89.59l.44.26a35.86,35.86,0,0,0,3.39,1.72l1,.44c.91.38,1.85.73,2.81,1.06l.65.25c.13,0,.28.07.41.12l1.83.52c.47.13.95.27,1.43.39.67.16,1.36.29,2,.43l1.11.24.19,0q2,.36,4.11.57l.3,0c.32,0,.64,0,1,.06.82.07,1.63.13,2.45.16l.58,0h1c.67,0,1.33,0,2,0H274l.9-.05c.61,0,1.23-.06,1.85-.1l.81,0c.28,0,.56-.07.85-.1.6-.06,1.2-.12,1.8-.2l.85-.09.77-.14c.63-.1,1.27-.21,1.9-.33l.9-.15c.2,0,.39-.11.6-.15.75-.16,1.48-.35,2.22-.54.31-.09.63-.15.93-.24a3,3,0,0,0,.32-.1c1.32-.39,2.6-.82,3.85-1.3.07,0,.15,0,.21-.07.56-.22,1.11-.48,1.66-.72.3-.14.6-.25.89-.39.91-.43,1.79-.89,2.65-1.38s1.71-1,2.48-1.59c.2-.14.35-.28.54-.42.56-.42,1.12-.84,1.62-1.28.2-.18.36-.36.55-.53.44-.42.89-.83,1.28-1.25.19-.22.34-.44.53-.66.33-.4.67-.79,1-1.2.18-.25.3-.51.46-.76s.5-.77.7-1.16.23-.55.35-.82a11.07,11.07,0,0,0,.48-1.14c.1-.29.15-.58.23-.87s.21-.75.28-1.12.05-.62.07-.92a9.81,9.81,0,0,0,.09-1.09v-.05l0,7.35c0,5.37-3.52,10.75-10.63,14.85-.84.49-1.73.95-2.63,1.38-.32.15-.65.28-1,.43-.51.23-1,.45-1.57.67l-.2.08c-1.25.49-2.55.92-3.87,1.31l-.3.08-.91.24c-.75.2-1.5.39-2.27.56l-.58.11-.88.18c-.64.12-1.28.24-1.93.34l-.76.1-.84.12c-.6.08-1.21.15-1.82.21l-.84.07-.81.07c-.61,0-1.21.07-1.82.09l-.92,0-.75,0c-.65,0-1.31,0-2,0l-1,0h-.57c-.83,0-1.64-.1-2.46-.17l-1-.08-.3,0c-1.37-.15-2.75-.33-4.09-.57l-.21,0-1.18-.24c-.66-.14-1.32-.27-2-.43-.47-.11-.95-.25-1.41-.37-.63-.18-1.26-.34-1.86-.54l-.39-.13-.64-.22c-1-.33-1.92-.69-2.84-1.07l-1-.44a35.86,35.86,0,0,1-3.39-1.72l-.44-.28c-.33-.2-.63-.41-.94-.61s-.88-.56-1.28-.85-.68-.54-1-.8-.75-.6-1.09-.91c-.09-.07-.15-.15-.23-.22l-.38-.37c-.55-.54-1.05-1.08-1.51-1.63-.12-.14-.23-.28-.34-.43l-.25-.31c-.31-.41-.58-.83-.84-1.25-.13-.2-.25-.39-.36-.59l-.13-.21c-.19-.37-.35-.73-.51-1.09s-.23-.51-.32-.76c0-.06,0-.11-.07-.17-.12-.34-.2-.68-.29-1a7.39,7.39,0,0,1-.22-.87.36.36,0,0,1,0-.1c-.07-.36-.09-.71-.13-1.07a9.83,9.83,0,0,1-.09-1.08v0l0-7.34C236.51,315.73,236.51,315.84,236.51,315.94Z" transform="translate(0 58.96)"/><path class="cls-20" d="M308.54,315.47a14.12,14.12,0,0,0-3.49-8.94,25.85,25.85,0,0,0-7-5.76,48,48,0,0,0-18.35-5.7,1.38,1.38,0,0,1-.2,0c-.38,0-.77-.05-1.14-.09a62.71,62.71,0,0,0-12.63.09,48.68,48.68,0,0,0-18.62,5.73c-7.94,4.59-11.43,10.77-10.48,16.76a0,0,0,0,1,0,0c.06.39.18.77.28,1.16s.12.55.21.83.31.76.47,1.14.21.54.35.81a12.65,12.65,0,0,0,.65,1.1c.16.26.3.54.49.8s.61.79.95,1.19c.18.22.32.44.52.66.48.52,1,1.05,1.58,1.56l.22.21c.58.51,1.23,1,1.9,1.51.08.05.14.11.22.17.77.54,1.58,1.07,2.46,1.58a35.86,35.86,0,0,0,3.39,1.72l1,.44c.91.38,1.85.73,2.81,1.06l1.06.37,1.83.52c.47.13.95.27,1.43.39.67.16,1.36.29,2,.43l1.3.26q2,.36,4.11.57c.42,0,.84.08,1.26.11.82.07,1.63.13,2.45.16.52,0,1,0,1.56,0,.67,0,1.33,0,2,0s1.07,0,1.61,0,1.23-.06,1.85-.1,1.11-.08,1.66-.14,1.2-.12,1.8-.2,1.08-.14,1.62-.23,1.27-.21,1.9-.33,1-.19,1.5-.3c.75-.16,1.48-.35,2.22-.54l1.25-.34c1.32-.39,2.6-.82,3.85-1.3.64-.25,1.25-.52,1.87-.79.3-.14.6-.25.89-.39.91-.43,1.79-.89,2.65-1.38s1.71-1,2.48-1.59c.2-.14.35-.28.54-.42.56-.42,1.12-.84,1.62-1.28.2-.18.36-.36.55-.53.44-.42.89-.83,1.28-1.25.19-.22.34-.44.53-.66.33-.4.67-.79,1-1.2.18-.25.3-.51.46-.76s.5-.77.7-1.16.23-.55.35-.82a11.07,11.07,0,0,0,.48-1.14c.1-.29.15-.58.23-.87s.21-.75.28-1.12.05-.62.07-.92A9.81,9.81,0,0,0,308.54,315.47Zm-21.72,6.26,4,2.34L289,325.12,287,326.31l-4.09-2.38a16.78,16.78,0,0,1-2.73.65,19,19,0,0,1-5.68,0,14.38,14.38,0,0,1-5-1.68c-2.23-1.3-3.17-2.83-2.86-4.64a7.74,7.74,0,0,1,1.87-3.22l.67-.82a2.52,2.52,0,0,0,.37-.45,3.47,3.47,0,0,0,.78-1.66c0-.51-.36-1-1.06-1.39a5.31,5.31,0,0,0-2.51-.68,4.65,4.65,0,0,0-2.44.6l-.06.06a1.94,1.94,0,0,0-1.16,1.44,1.9,1.9,0,0,0,1,1.56l-4.64,2.68a6.54,6.54,0,0,1-2.53-2.67,3.28,3.28,0,0,1,.13-2.91,5.23,5.23,0,0,1,1-1.32l-4.13-2.4,2-1.19,1.82-1.05,4.15,2.41h0a15.44,15.44,0,0,1,2.3-.55,16.85,16.85,0,0,1,5.11-.06,12.16,12.16,0,0,1,4.38,1.44,6,6,0,0,1,2.42,2.38,3.39,3.39,0,0,1,.13,2.75,7.89,7.89,0,0,1-1.1,1.71l-.67.75c-.21.23-.37.45-.54.66a4.75,4.75,0,0,0-1.06,2c-.1.79.35,1.5,1.4,2.11a6,6,0,0,0,3.15.76,6.32,6.32,0,0,0,3.18-.82l.17-.1a2.54,2.54,0,0,0,1.39-1.74c0-.67-.38-1.29-1.27-1.87l4.71-2.72a6.48,6.48,0,0,1,2.13,1.87,3.67,3.67,0,0,1,.81,2.27A4.68,4.68,0,0,1,286.82,321.73Z" transform="translate(0 58.96)"/><path class="cls-21" d="M289,325.12,287,326.31l-4.09-2.38a16.78,16.78,0,0,1-2.73.65,19,19,0,0,1-5.68,0,14.38,14.38,0,0,1-5-1.68c-2.23-1.3-3.17-2.83-2.86-4.64a7.74,7.74,0,0,1,1.87-3.22l.67-.82a2.52,2.52,0,0,0,.37-.45,3.47,3.47,0,0,0,.78-1.66c0-.51-.36-1-1.06-1.39a5.31,5.31,0,0,0-2.51-.68,4.65,4.65,0,0,0-2.44.6l-.06.06a1.94,1.94,0,0,0-1.16,1.44,1.9,1.9,0,0,0,1,1.56l-4.64,2.68a6.54,6.54,0,0,1-2.53-2.67,3.28,3.28,0,0,1,.13-2.91,5.23,5.23,0,0,1,1-1.32l-4.13-2.4,2-1.19,1.82-1.05,4.15,2.41h0a15.44,15.44,0,0,1,2.3-.55,16.85,16.85,0,0,1,5.11-.06,12.16,12.16,0,0,1,4.38,1.44,6,6,0,0,1,2.42,2.38,3.39,3.39,0,0,1,.13,2.75,7.89,7.89,0,0,1-1.1,1.71l-.67.75c-.21.23-.37.45-.54.66a4.75,4.75,0,0,0-1.06,2c-.1.79.35,1.5,1.4,2.11a6,6,0,0,0,3.15.76,6.32,6.32,0,0,0,3.18-.82l.17-.1a2.54,2.54,0,0,0,1.39-1.74c0-.67-.38-1.29-1.27-1.87l4.71-2.72a6.48,6.48,0,0,1,2.13,1.87,3.67,3.67,0,0,1,.81,2.27,4.68,4.68,0,0,1-1.78,3.57l4,2.34Z" transform="translate(0 58.96)"/><path class="cls-19" d="M2,632.68c0,.24.06.48.08.72a.28.28,0,0,0,0,.09,7.35,7.35,0,0,0,.07.82c0,.09,0,.17.05.26s0,.12,0,.18c0,.24.15.47.21.71s.11.56.2.83l.11.26a1.55,1.55,0,0,0,.07.23c.08.22.21.43.3.65s.21.54.34.81l.19.33c0,.09.08.18.13.26s.23.34.34.51.3.54.48.8.26.32.38.48.15.25.24.37.23.22.33.34.33.44.52.66.69.68,1,1c.12.12.22.26.35.37l.2.17c.07.07.13.14.21.21.29.26.64.5,1,.75s.61.51.95.76c.08.05.14.11.22.17.35.25.75.49,1.13.73s.57.4.89.59l.44.26a37.1,37.1,0,0,0,3.39,1.72l1,.44c.92.39,1.87.74,2.84,1.07.21.08.41.17.63.24l.39.11c.61.2,1.24.37,1.87.53.46.13.93.27,1.4.39.68.16,1.36.29,2.06.43.36.08.72.17,1.1.24l.18,0c1.36.24,2.73.43,4.12.58l.29,0c.32,0,.65,0,1,.06.82.07,1.63.13,2.45.17.19,0,.38,0,.58,0h3.69l.89-.05c.62,0,1.24,0,1.86-.1l.8,0c.29,0,.57-.07.87-.09.59-.06,1.19-.13,1.78-.21l.86-.09c.25,0,.51-.09.77-.13.63-.1,1.27-.21,1.89-.33l.9-.16c.21,0,.4-.11.6-.15.76-.16,1.5-.35,2.23-.54.31-.09.63-.15.93-.23l.31-.11c1.32-.38,2.61-.81,3.86-1.3l.2-.07c.57-.22,1.1-.47,1.65-.72.3-.13.61-.25.91-.39q1.36-.64,2.64-1.38t2.49-1.59c.22-.15.41-.33.62-.48.53-.4,1.06-.8,1.54-1.21.22-.2.4-.41.62-.61.41-.39.83-.78,1.2-1.18.22-.24.4-.49.6-.74s.63-.74.89-1.12.33-.54.5-.81.48-.73.67-1.1.23-.56.36-.84.34-.75.47-1.13.14-.57.21-.85.22-.76.29-1.14,0-.55.07-.82.09-.75.1-1.12l0,7.23c0,5.37-3.53,10.76-10.63,14.85-.85.5-1.73.95-2.64,1.38-.3.15-.63.27-.94.41-.53.24-1.06.47-1.61.69l-.2.08c-1.25.49-2.55.92-3.88,1.31l-.3.08-.89.24c-.76.2-1.51.39-2.28.56l-.59.12-.87.17c-.65.13-1.29.24-1.94.34l-.75.11-.85.12-1.81.2-.85.07-.8.07-1.83.1-.92,0-.74,0c-.66,0-1.31,0-2,0l-1,0-.58,0c-.82,0-1.64-.1-2.45-.17l-1-.07-.29,0c-1.38-.15-2.75-.33-4.09-.57l-.21,0c-.4-.07-.8-.17-1.2-.24-.65-.14-1.31-.27-1.95-.42l-1.43-.38c-.61-.17-1.24-.34-1.84-.53l-.4-.14-.65-.22c-1-.33-1.89-.68-2.81-1.07l-1-.44a37.1,37.1,0,0,1-3.39-1.72c-.16-.09-.29-.19-.44-.28-.35-.21-.67-.43-1-.65s-.83-.53-1.21-.8-.7-.56-1.05-.84-.73-.57-1.06-.87l-.23-.23c-.14-.12-.26-.25-.39-.38a20.32,20.32,0,0,1-1.5-1.61l-.34-.43L5,648c-.3-.41-.58-.82-.83-1.24-.12-.2-.25-.4-.36-.6l-.13-.21a11.94,11.94,0,0,1-.51-1.09c-.11-.25-.23-.5-.33-.76,0,0,0-.11-.06-.17-.12-.34-.21-.68-.3-1s-.16-.58-.21-.87l0-.1c-.06-.35-.09-.71-.12-1.07A9.83,9.83,0,0,1,2,639.74v0l0-7.34C2,632.48,2,632.58,2,632.68Z" transform="translate(0 58.96)"/><path class="cls-20" d="M73.94,633.4c0-.38.09-.75.1-1.12v0s0,0,0,0a14,14,0,0,0-3.49-8.93,25.34,25.34,0,0,0-7-5.76,42.56,42.56,0,0,0-10.28-4.16,60.38,60.38,0,0,0-30.27,0,43,43,0,0,0-10.39,4.17,24.68,24.68,0,0,0-7.94,6.89,13.3,13.3,0,0,0-2.59,9.08,7.35,7.35,0,0,0,.07.82,11.33,11.33,0,0,0,.28,1.15c.07.28.11.56.2.83s.31.76.48,1.14.21.54.34.81.43.73.66,1.1.3.54.48.8a15,15,0,0,0,.95,1.19c.18.22.33.44.52.66a21.4,21.4,0,0,0,1.59,1.56c.07.07.13.14.21.21.59.52,1.23,1,1.91,1.51.08.05.14.11.22.17.77.55,1.58,1.07,2.46,1.58a37.1,37.1,0,0,0,3.39,1.72l1,.44c.92.39,1.87.74,2.84,1.07l1,.35c.61.2,1.24.37,1.87.53.46.13.93.27,1.4.39.68.16,1.36.29,2.06.43.42.09.85.19,1.28.26,1.36.24,2.73.43,4.12.58l1.26.1c.82.07,1.63.13,2.45.17l1.56,0h2l1.6-.05c.62,0,1.24,0,1.86-.1s1.11-.08,1.67-.13,1.19-.13,1.78-.21,1.08-.14,1.63-.22,1.27-.21,1.89-.33l1.5-.31c.76-.16,1.5-.35,2.23-.54l1.24-.34c1.32-.38,2.61-.81,3.86-1.3.63-.24,1.24-.51,1.85-.79.3-.13.61-.25.91-.39q1.36-.64,2.64-1.38t2.49-1.59c.22-.15.41-.33.62-.48.53-.4,1.06-.8,1.54-1.21.22-.2.4-.41.62-.61.41-.39.83-.78,1.2-1.18.22-.24.4-.49.6-.74s.63-.74.89-1.12.33-.54.5-.81.48-.73.67-1.1.23-.56.36-.84.34-.75.47-1.13.14-.57.21-.85.22-.76.29-1.14S73.91,633.67,73.94,633.4Zm-17.26-9.54-4.12,2.38a5.78,5.78,0,0,1,1.13,1.57,3.78,3.78,0,0,1,0,3.3A6.82,6.82,0,0,1,50.8,634a14,14,0,0,1-8,1.65,26.45,26.45,0,0,1-5.58-1.06l-1.37-.39-.8-.2a12.47,12.47,0,0,0-2.86-.44,4.67,4.67,0,0,0-2.41.61,2,2,0,0,0-1.18,1.45c0,.52.32,1,1,1.41l.08,0a5.27,5.27,0,0,0,2.48.67,6,6,0,0,0,2.7-.59l4.61,2.68a14.42,14.42,0,0,1-4.6,1.46,15.64,15.64,0,0,1-5-.06,14.74,14.74,0,0,1-2.29-.57l-4.16,2.4-2-1.19-1.81-1,4.2-2.43h0a5,5,0,0,1-1-1.31,3.32,3.32,0,0,1-.07-3,5.42,5.42,0,0,1,2.49-2.54,12.42,12.42,0,0,1,4.12-1.41,16,16,0,0,1,4.74-.09,25.84,25.84,0,0,1,3,.63c.16,0,.58.18,1.3.38l1.13.32A19.61,19.61,0,0,0,43,632a6.61,6.61,0,0,0,3.66-.83c.9-.52,1.34-1.13,1.3-1.82a2.26,2.26,0,0,0-1.38-1.84l-.19-.09a6.71,6.71,0,0,0-6.25-.06l-4.69-2.72a12.18,12.18,0,0,1,3.26-1.24,15.14,15.14,0,0,1,3.92-.48,17.07,17.07,0,0,1,6.15,1l4.07-2.35,1.8,1.06Z" transform="translate(0 58.96)"/><path class="cls-21" d="M53.69,627.81a3.78,3.78,0,0,1,0,3.3A6.82,6.82,0,0,1,50.8,634a14,14,0,0,1-8,1.65,26.45,26.45,0,0,1-5.58-1.06l-1.37-.39-.8-.2a12.47,12.47,0,0,0-2.86-.44,4.67,4.67,0,0,0-2.41.61,2,2,0,0,0-1.18,1.45c0,.52.32,1,1,1.41l.08,0a5.27,5.27,0,0,0,2.48.67,6,6,0,0,0,2.7-.59l4.61,2.68a14.42,14.42,0,0,1-4.6,1.46,15.64,15.64,0,0,1-5-.06,14.74,14.74,0,0,1-2.29-.57l-4.16,2.4-2-1.19-1.81-1,4.2-2.43h0a5,5,0,0,1-1-1.31,3.32,3.32,0,0,1-.07-3,5.42,5.42,0,0,1,2.49-2.54,12.42,12.42,0,0,1,4.12-1.41,16,16,0,0,1,4.74-.09,25.84,25.84,0,0,1,3,.63c.16,0,.58.18,1.3.38l1.13.32A19.61,19.61,0,0,0,43,632a6.61,6.61,0,0,0,3.66-.83c.9-.52,1.34-1.13,1.3-1.82a2.26,2.26,0,0,0-1.38-1.84l-.19-.09a6.71,6.71,0,0,0-6.25-.06l-4.69-2.72a12.18,12.18,0,0,1,3.26-1.24,15.14,15.14,0,0,1,3.92-.48,17.07,17.07,0,0,1,6.15,1l4.07-2.35,1.8,1.06,2,1.18-4.12,2.38A5.78,5.78,0,0,1,53.69,627.81Z" transform="translate(0 58.96)"/><path class="cls-19" d="M59.8,412.81c.2-.2.42-.37.61-.58s.51-.66.76-1,.36-.44.52-.69a13.53,13.53,0,0,0,.66-1.19c.14-.25.29-.48.42-.75.21-.45.38-1,.56-1.43.1-.26.21-.5.3-.77.17-.53.3-1.11.44-1.68.06-.26.14-.5.2-.77.12-.64.21-1.33.3-2,0-.22.07-.43.09-.66.09-.93.14-1.9.14-2.92s0-1.87-.11-2.82h0c0-.43-.1-.88-.14-1.32s-.1-.94-.17-1.41h0A46.53,46.53,0,0,0,63,386.49c0-.08,0-.17-.07-.26h0c-.1-.36-.21-.71-.32-1.07h0c-.21-.68-.44-1.36-.68-2h0c-.1-.28-.19-.56-.3-.83h0c-.35-.94-.72-1.87-1.13-2.8h0c0-.12-.11-.23-.16-.34v0c-.18-.43-.39-.84-.59-1.26q-1.32-2.81-2.91-5.47c-.38-.62-.75-1.25-1.14-1.85l0,0c-.77-1.19-1.59-2.35-2.43-3.48l0,0-.48-.61c-.67-.87-1.37-1.72-2.08-2.54l-.55-.63,0,0c-.55-.61-1.1-1.2-1.67-1.78h0c-.36-.37-.72-.74-1.09-1.09h0l-.84-.79h0c-.34-.31-.69-.6-1-.9-.67-.57-1.35-1.12-2-1.64-.3-.22-.58-.45-.88-.66l0,0c-1-.75-2.1-1.46-3.18-2.09-.68-.39-1.35-.72-2-1-.4-.2-.8-.38-1.2-.56h0l-.18-.07a26.26,26.26,0,0,0-2.63-.95h0a0,0,0,0,0,0,0,19.46,19.46,0,0,0-4.25-.81H29c-.27,0-.53,0-.79,0s-.79,0-1.17,0H27c-.31,0-.6.08-.9.12a11.53,11.53,0,0,0-1.35.21h-.08l-.54.16a10.46,10.46,0,0,0-1.24.38l-.06,0c-.23.09-.45.21-.67.32s-.66.28-1,.46l0,0,6.34-3.69.15-.08A13.82,13.82,0,0,1,28.9,348l.26-.09.42-.15c.23-.08.44-.17.67-.23s.49-.12.73-.17l.46-.11.25-.06c.5-.08,1-.14,1.54-.18h.48c.41,0,.8,0,1.21,0,.14,0,.29,0,.43,0l.77.08c.23,0,.47,0,.71.07l0,0h0a19.44,19.44,0,0,1,2.26.48h0l0,0c.19.05.38.14.57.2.59.18,1.2.39,1.8.62.22.08.43.13.64.22s.25.13.37.19a27.5,27.5,0,0,1,3.22,1.6c.82.47,1.64,1,2.44,1.55l.76.54c.54.4,1.09.8,1.62,1.23l.86.71c.49.41,1,.84,1.46,1.28l.85.78c.18.18.36.34.55.51s.36.41.55.6c.57.58,1.13,1.18,1.68,1.79.18.2.38.38.56.59l.43.53c.33.39.66.79,1,1.2s.45.52.66.8l.5.67c.25.33.48.65.72,1s.33.42.48.64l.77,1.14c.16.26.34.51.51.77l.2.3c.45.71.9,1.43,1.32,2.16l.08.15.26.46c.29.51.58,1,.86,1.54.13.25.25.5.38.74s.26.51.38.77.24.44.34.67c.28.58.54,1.16.79,1.74.07.14.14.27.2.41a.21.21,0,0,0,0,.07c.33.76.64,1.52.94,2.29,0,.14.09.28.14.41.11.3.21.59.31.88s.29.75.41,1.13.18.58.27.88l.33,1.07c.06.22.14.43.2.65.1.39.19.77.28,1.16s.23.88.33,1.32c0,.15.07.3.11.45.06.31.09.62.15.93.14.69.26,1.37.36,2.06,0,.18.07.37.09.56.06.42.09.83.13,1.24l.09.94c.07.94.11,1.88.11,2.81,0,8.07-2.87,13.75-7.46,16.41l-6.35,3.69c.32-.19.61-.42.92-.64s.46-.29.68-.47S59.52,413.09,59.8,412.81Z" transform="translate(0 58.96)"/><path class="cls-20" d="M13.68,368.84c0,16.21,11.36,36,25.47,44.11s25.59,1.61,25.64-14.6-11.34-36-25.47-44.12S13.73,352.63,13.68,368.84ZM31.32,384.7c0-2.58.86-4.17,2.59-4.8a7.75,7.75,0,0,1,3.72,0l1,.18a3.05,3.05,0,0,0,.57.09,3.38,3.38,0,0,0,1.83-.16,1.72,1.72,0,0,0,.68-1.61,5.19,5.19,0,0,0-.67-2.51,4.69,4.69,0,0,0-1.74-1.82l-.08,0a2,2,0,0,0-1.82-.28,1.92,1.92,0,0,0-.85,1.65L32,372.75A6.33,6.33,0,0,1,33,369.23a3.21,3.21,0,0,1,2.57-1.34,5,5,0,0,1,1.65.2l0-4.78,2,1.18,1.82,1.06v4.8h0a15.65,15.65,0,0,1,1.63,1.71,16.9,16.9,0,0,1,2.6,4.39,12,12,0,0,1,.94,4.52,5.94,5.94,0,0,1-.85,3.28,3.35,3.35,0,0,1-2.31,1.49,8,8,0,0,1-2-.1l-1-.21c-.3-.06-.57-.08-.84-.13a4.85,4.85,0,0,0-2.29.09c-.73.31-1.11,1.06-1.12,2.27a6.12,6.12,0,0,0,.92,3.11A6.3,6.3,0,0,0,39,393.1l.17.1a2.52,2.52,0,0,0,2.2.32c.6-.29.93-1,1-2l4.72,2.72a6.61,6.61,0,0,1-.57,2.79A3.61,3.61,0,0,1,45,398.83a4.64,4.64,0,0,1-4,.24l0,4.67-1.82-1.05-2-1.18,0-4.74a17.24,17.24,0,0,1-1.94-2,18.7,18.7,0,0,1-2.87-4.9A14.36,14.36,0,0,1,31.32,384.7Z" transform="translate(0 58.96)"/><path class="cls-21" d="M33.91,379.9a7.75,7.75,0,0,1,3.72,0l1,.18a3.05,3.05,0,0,0,.57.09,3.38,3.38,0,0,0,1.83-.16,1.72,1.72,0,0,0,.68-1.61,5.19,5.19,0,0,0-.67-2.51,4.69,4.69,0,0,0-1.74-1.82l-.08,0a2,2,0,0,0-1.82-.28,1.92,1.92,0,0,0-.85,1.65L32,372.75A6.33,6.33,0,0,1,33,369.23a3.21,3.21,0,0,1,2.57-1.34,5,5,0,0,1,1.65.2l0-4.78,2,1.18,1.82,1.06v4.8h0a15.65,15.65,0,0,1,1.63,1.71,16.9,16.9,0,0,1,2.6,4.39,12,12,0,0,1,.94,4.52,5.94,5.94,0,0,1-.85,3.28,3.35,3.35,0,0,1-2.31,1.49,8,8,0,0,1-2-.1l-1-.21c-.3-.06-.57-.08-.84-.13a4.85,4.85,0,0,0-2.29.09c-.73.31-1.11,1.06-1.12,2.27a6.12,6.12,0,0,0,.92,3.11A6.3,6.3,0,0,0,39,393.1l.17.1a2.52,2.52,0,0,0,2.2.32c.6-.29.93-1,1-2l4.72,2.72a6.61,6.61,0,0,1-.57,2.79A3.61,3.61,0,0,1,45,398.83a4.64,4.64,0,0,1-4,.24l0,4.67-1.82-1.05-2-1.18,0-4.74a17.24,17.24,0,0,1-1.94-2,18.7,18.7,0,0,1-2.87-4.9,14.36,14.36,0,0,1-1-5.13C31.33,382.12,32.18,380.53,33.91,379.9Z" transform="translate(0 58.96)"/><polygon class="cls-6" points="149.37 855.96 166.97 855.96 184.26 868.09 168.14 872.87 149.64 869.28 149.37 855.96"/><polygon class="cls-6" points="219.79 855.96 237.39 855.96 254.68 868.09 238.57 872.87 220.07 869.28 219.79 855.96"/><polygon class="cls-6" points="169.19 492.69 175.59 614.59 166.55 622.8 157.06 614.59 165.01 492.92 169.19 492.69"/><polygon class="cls-22" points="144.17 460.48 167.97 482.02 153.03 493.09 139.56 463.88 144.17 460.48"/><polygon class="cls-22" points="185.08 467.25 167.97 482.02 178.09 493.89 189.79 471.01 185.08 467.25"/><polygon class="cls-23" points="190.2 645.28 422.43 606.4 341.66 586.53 106.45 614.14 190.2 645.28"/><rect class="cls-23" x="189.83" y="639.23" width="7.16" height="238.73"/><rect class="cls-23" x="112.02" y="615.86" width="7.16" height="261.34"/><rect class="cls-23" x="415.26" y="606.4" width="7.16" height="248.64"/><rect class="cls-23" x="332.9" y="605.51" width="7.16" height="226.52"/><polygon class="cls-23" points="189.63 674.13 107.19 647.36 106.45 614.14 190.82 644.28 189.63 674.13"/><polygon class="cls-23" points="422.43 640.49 195.37 676.88 195.37 642.79 422.43 606.4 422.43 640.49"/><polygon class="cls-22" points="158.71 587.13 165.13 588.45 159.84 607.05 154.41 606.35 158.71 587.13"/><polygon class="cls-24" points="211.67 608.19 263.74 612.27 208.78 619.95 155.31 613.67 211.67 608.19"/><path class="cls-25" d="M154.51,557.43l51.88,5.28.36-2.82-51.14-5.2a.74.74,0,0,0-.83.65Z" transform="translate(0 58.96)"/><path class="cls-7" d="M158.76,528.5a143.1,143.1,0,0,0,17.38,3.27c1.74,0,8.14.09,11.14.23h0c8.74-.15,18.57,0,20.55,1.69,1.63,1.39,8.95,9.77,12.23,13.76h0l.49.6.18.22.33.43a2.09,2.09,0,0,1,.14.17c.12.16.24.31.31.42,1.38,2,.69,4.17-3.65,2.58a11.33,11.33,0,0,1-2.32-1.27,2.82,2.82,0,0,1,0,1.9c-1,2-3.43,1.78-5.51-.45a32.27,32.27,0,0,1-2.58-3.54,25.41,25.41,0,0,0-3.48-4.36l-.81.19a35.31,35.31,0,0,1,2.42,4.26c1.19,2.62.69,4.71-.18,5.57a1.14,1.14,0,0,1-1.33.35c-1.38-.61-4-4.32-6.37-7.6-.24-.33-.49-.63-.73-.93a15.83,15.83,0,0,1-2.62.39h0a13.09,13.09,0,0,1,3.26,4.23c1,2.36-1,4.22-3.14,3.13s-9-5.57-11.16-4.3-6.87,3.55-9.47,3.84-5.37-.94-8-3.63-10-4.08-10.8-4.2C157.18,539.92,157.34,534.26,158.76,528.5Z" transform="translate(0 58.96)"/><path class="cls-25" d="M211.51,485.26,208.34,563c-1.57.22-5-.56-4.87-2.32l4-71.63C207.55,487.31,210,485.35,211.51,485.26Z" transform="translate(0 58.96)"/><path class="cls-26" d="M212.58,485l88-4.1c1.26-.07,2.23,1.12,2.16,2.67L297,547.35a3.3,3.3,0,0,1-2.44,3.18L208.34,563a2.4,2.4,0,0,1-2.66-2.77l3.94-71.94A3.4,3.4,0,0,1,212.58,485Z" transform="translate(0 58.96)"/><path class="cls-6" d="M164.56,356.75c.1,3.78,1.3,16.21-2.88,16.21-.77,0,.3-6.36-3.08-8.25-7-3.47-6.45,13.81-1.55,12.86,1,.83-2.16,12.59-3.93,14.49s-3.58-.7-3.58-.7,1.28-5.75-.18-7.25c-20.51-21.1-1.31-68.24,40.19-48.71,2.43,1.14,11.79,7.32,17.09,6.28-.3,1.64-1.27,3.73-4.63,3.5,2.06,1.07,3.25,1.18,5.43-.09C204.92,370.7,163.37,343.32,164.56,356.75Z" transform="translate(0 58.96)"/><path class="cls-6" d="M161.27,425.21l1.12,7.49a4.42,4.42,0,0,0,1.53,2.72,4.58,4.58,0,0,0-.25,1.5c0,2.25,1.56,4.08,3.48,4.08s3.48-1.83,3.48-4.08a4.66,4.66,0,0,0-.18-1.25,3.61,3.61,0,0,0,1.72-2.67l1.49-7.91-3.13-2.54-4.67.84Z" transform="translate(0 58.96)"/><path class="cls-27" d="M673.89,334.83a1.5,1.5,0,0,0,0-3,1.5,1.5,0,0,0,0,3Z" transform="translate(0 58.96)"/></g></g></svg>