<?xml version="1.0" encoding="utf-8"?>
<!-- Generator: Adobe Illustrator 22.1.0, SVG Export Plug-In . SVG Version: 6.00 Build 0)  -->
<svg version="1.1" id="Layer_1" xmlns="http://www.w3.org/2000/svg" xmlns:xlink="http://www.w3.org/1999/xlink" x="0px" y="0px"
	 viewBox="0 0 750 824" style="enable-background:new 0 0 750 824;" xml:space="preserve">
<style type="text/css">
	.st0{clip-path:url(#SVGID_2_);fill:#99CADC;}
	.st1{opacity:0.1;clip-path:url(#SVGID_2_);fill:#1C1918;}
	.st2{clip-path:url(#SVGID_2_);fill:#22272E;}
	.st3{clip-path:url(#SVGID_2_);fill:#1A2239;}
	.st4{clip-path:url(#SVGID_2_);fill:#F4D7CE;}
	.st5{clip-path:url(#SVGID_2_);fill:#D6E7EE;}
	.st6{clip-path:url(#SVGID_2_);fill:none;stroke:#133A50;stroke-miterlimit:10;}
	.st7{clip-path:url(#SVGID_2_);fill:#EBCBAB;}
	.st8{clip-path:url(#SVGID_2_);fill:#E5BF9A;}
	.st9{clip-path:url(#SVGID_2_);fill:#EFE565;}
	.st10{clip-path:url(#SVGID_2_);fill:#EACCB2;}
	.st11{clip-path:url(#SVGID_2_);fill:#F3D9BF;}
	.st12{clip-path:url(#SVGID_2_);fill:#223406;}
	.st13{clip-path:url(#SVGID_2_);fill:#1B2805;}
	.st14{clip-path:url(#SVGID_2_);fill:#7F9F22;}
	.st15{clip-path:url(#SVGID_2_);fill:#263808;}
	.st16{clip-path:url(#SVGID_2_);fill:#F4A800;}
	.st17{clip-path:url(#SVGID_2_);fill:#FFC436;}
	.st18{clip-path:url(#SVGID_2_);fill:#BF9328;}
	.st19{clip-path:url(#SVGID_2_);fill:#E9F2F4;}
	.st20{clip-path:url(#SVGID_2_);fill:#253242;}
	.st21{clip-path:url(#SVGID_2_);fill:url(#SVGID_3_);}
	.st22{clip-path:url(#SVGID_2_);fill:#A6AEBA;}
	.st23{clip-path:url(#SVGID_2_);fill:#D2DCEB;}
	.st24{clip-path:url(#SVGID_2_);}
	.st25{fill:#303955;}
</style>
<g id="bg">
	<defs>
		<rect id="SVGID_1_" y="-45" width="750" height="869"/>
	</defs>
	<clipPath id="SVGID_2_">
		<use xlink:href="#SVGID_1_"  style="overflow:visible;"/>
	</clipPath>
	<path class="st0" d="M0,325.8l0,498.8h150.1c-2.2-33.5,3.8-66.6,21.1-95.9c25.2-42.6,69.7-68.8,116.5-83.6
		c51-16.2,108.5-6.9,157.1-26.7c21.2-8.6,40.1-25,46.4-46.6c5.8-20,0.2-41.2-2-61.8c-2.1-20.6,0.7-44.5,17.7-56.9
		c17.6-12.8,42.2-7.8,63.4-2.2c34.8,9.1,108.8,45,132.6-0.9c16.4-31.5-19.8-63.7-31.1-97.4c-11.9-35.8,7.3-76.3,37.8-99.4
		c30.5-23.1,69.8-31.6,108.1-35.4c29-2.9,58.7-3.5,86.2-12.9c27.5-9.4,53.3-30,58.8-58C974,90.3,903.1,50.4,889.7-5.6
		c-8.4-34.9,8-73.7,35.1-98.3h-174c18.9,59.8,8,141-66.1,150.5c-75.9,10.6-162.6-60.1-220.5,7.1c-43.4,49.5,10.8,130.8-57.8,166.2
		c-83.1,38.9-166.2-7.1-249.4-3.5c-0.2,0-0.4,0-0.5,0c-27.9,0.1-52.2,18.4-60.1,44.6C75.5,329.9,35.5,308.8,0,325.8z"/>
	<path class="st1" d="M583.7,754.4c0,5.4-43.7,9.7-97.6,9.7c-53.9,0-97.6-4.4-97.6-9.7c0-5.4,43.7-9.7,97.6-9.7
		C540,744.7,583.7,749,583.7,754.4z"/>
	<path class="st2" d="M208.6,749.7c0.2,2.2-1.6,4.2-4.1,4.5l0,0c-2.5,0.2-4.8-1.4-5-3.7l-18-167.7c-0.2-2.2,1.6-4.2,4.1-4.5l0,0
		c2.5-0.2,4.8,1.4,5,3.7L208.6,749.7z"/>
	<path class="st2" d="M80.1,749.7c-0.2,2.2,1.6,4.2,4.1,4.5l0,0c2.5,0.2,4.8-1.4,5-3.7l18-167.7c0.2-2.2-1.6-4.2-4.1-4.5l0,0
		c-2.5-0.2-4.8,1.4-5,3.7L80.1,749.7z"/>
	<path class="st2" d="M198.5,580.3c0,2.9-2.1,5.3-4.6,5.3H95.1c-2.6,0-4.6-2.4-4.6-5.3l0,0c0-2.9,2.1-5.3,4.6-5.3h98.7
		C196.4,575,198.5,577.4,198.5,580.3L198.5,580.3z"/>
	<path class="st2" d="M201,704.1c0,2-2.2,3.6-4.8,3.6H92.7c-2.7,0-4.8-1.6-4.8-3.6l0,0c0-2,2.2-3.6,4.8-3.6h103.4
		C198.8,700.5,201,702.1,201,704.1L201,704.1z"/>
	<path class="st2" d="M192,623.3c0,2-1.8,3.6-4.1,3.6h-87.1c-2.3,0-4.1-1.6-4.1-3.6l0,0c0-2,1.8-3.6,4.1-3.6h87.1
		C190.2,619.7,192,621.3,192,623.3L192,623.3z"/>
	<path class="st2" d="M100.8,621.5c0,1-0.9,1.8-2,1.8c-1.1,0-2-0.8-2-1.8c0-1,0.9-1.8,2-1.8C99.9,619.7,100.8,620.5,100.8,621.5z"/>
	<path class="st2" d="M192,621.5c0,1-0.9,1.8-2,1.8c-1.1,0-2-0.8-2-1.8c0-1,0.9-1.8,2-1.8C191.1,619.7,192,620.5,192,621.5z"/>
	<path class="st2" d="M200.9,704.1c0,1-0.9,1.8-2,1.8c-1.1,0-2-0.8-2-1.8c0-1,0.9-1.8,2-1.8C200,702.3,200.9,703.1,200.9,704.1z"/>
	<ellipse class="st2" cx="144.1" cy="578.3" rx="59.5" ry="11.5"/>
	<path class="st3" d="M107.4,528c0,0-18.3,21.5-8.4,41.4c3.8,7.6,62.4,53.6,62.4,53.6L149.4,752H167c0,0,29.3-73.5,35.2-100.8
		c5.9-27.3,13.4-39.4,5.6-53.6c-7.8-14.2-40.8-44.7-40.8-44.7l-11.3-32L107.4,528z"/>
	<path class="st3" d="M149.1,524.4c0,0-18.3,21.5-8.4,41.4c3.8,7.6,91.8,57.1,91.8,57.1L220.4,752H238c0,0,29.3-73.5,35.2-100.8
		c5.9-27.3,13.4-39.4,5.6-53.6c-7.8-14.2-70.2-48.2-70.2-48.2l-11.3-32L149.1,524.4z"/>
	<path class="st4" d="M173.8,347.2c0,0,2.6,10.3,8.4,14.9c9.1,7.3,26.3,17.7,26.3,17.7s1,5-13,15.4c-14,10.4-33.7,16-51.7,7.6
		c-18-8.4-4.2-42.9-4.2-42.9s7.6-1.7,11.4-8.1c4.1-7.1,3.7-11.4,3.7-11.4L173.8,347.2z"/>
	<path class="st5" d="M248.6,452c0,0-29.1-69.6-37.9-74.1c0,0-11.4-7.2-22.3-10.8c0,0-5.9,11-19.6,14c0,0-12-1.5-19-7.7
		c-6.9-6.3-10.2-13.4-10.2-13.4s-28.9,7.6-29.1,8.4c-11.3,4.2-15.7,13.8-16.6,55.6c-0.4,18.1,6,39.8,12.1,51.8
		c0.3,30.6,0.6,59.2,0.6,59.2s17.7,11.4,43.9,11.2c26.2-0.2,45.3-19.8,45.3-19.8s6.2-67.6,8.4-101.3c0,0,16.9,41.4,25.7,48.4
		c8.9,7.1,41.1,30.9,41.1,30.9c5.7-9.5,15.4-10.1,15.4-10.1L248.6,452z"/>
	<path class="st4" d="M161.7,294.5c-7.1,4.1-5.9,17.2-5.9,17.2s-1,2.9-1.7,6.9c-0.1,0-0.3,0-0.4,0c-6.2-0.1-5.5,8-2.3,13.3
		c0.8,1.3,1.8,3,2.8,4.5c0.6,3.6,1.7,6.8,4.4,10.5c4.7,6.3,16.6,14.9,23.2,12.3c6.6-2.6,10.7-10.6,13.5-19.4c2-6.3,3.7-18.1,3.6-25
		C198.8,307.8,188.9,278.6,161.7,294.5z"/>
	<ellipse class="st6" cx="178.3" cy="324.3" rx="6.6" ry="7.7"/>
	<ellipse class="st6" cx="193.6" cy="323.4" rx="5.5" ry="7.3"/>
	<line class="st6" x1="158.7" y1="319.2" x2="172.2" y2="320.8"/>
	<line class="st6" x1="184.5" y1="321.4" x2="188.2" y2="321.3"/>
	<path class="st7" d="M496.8,447.3c0.7,8.2-9.3,23.2-10.8,26.2c-4.1,8.1-10.3,18.3-15.3,25.9c-5.3,8-8.9,12.9-10.4,13.4l-5.5-3
		c-3.6-1.9-0.6,1.3,15-47.1l10.7-26.9C486.5,436,497.1,439.3,496.8,447.3z"/>
	<path class="st7" d="M461.5,503.5c-2.1-1.7-3.5-2-5.7-1.2c-5.8,6.4-11.7,13.7-16.1,21.1c-0.2,0.7-0.4,1.4-0.6,2.1
		c-0.1,0.6-0.1,1.2-0.1,1.8c-0.2,2.3-0.6,4.7-0.7,7c0,1.3,0.2,2.4,0.6,3.5c0,0,0,0,0.1,0.1c0.9,1.6,2.2,2.8,3.5,4
		c1.2,1.1,2.3,1.3,3.9,1.3c0.7,0,1.2,0.5,1.7,1c0.7,0.2,1.4,0.3,2.2,0.1c0.7-0.3,1.3-0.6,2.1-0.7c0.4,0,0.9,0,1.3,0
		c0.8-0.1,1.6-0.3,2.4-0.5c0.3-0.1,0.6-0.3,0.8-0.5c0.3-0.2,0.6-0.5,0.9-0.6c0.9-0.2,1.6-0.3,2.1-0.7c0.3-0.3,0.5-0.7,0.7-1.1
		c0.6-1.5,0.9-3,1.1-4.5c0-0.2,0-0.5,0-0.7c0-1,0-4.5-1.9-3.8c-0.4,0.1-0.6,0.5-0.7,0.9c0.1-0.3,0.1-0.6,0.2-0.8
		c0.9-2.2,2-4.3,3.2-6.4c0.4-0.7,0.9-1.5,1.3-2.2c0.7-3.2,1-6.4,0.9-9.7C464.6,510.2,464.3,505.7,461.5,503.5z M443.8,536.2
		c0,0,0.9,2.9,0.8,2.8c-0.1-0.1-1.2-2.7-1.2-2.9c0-1.2,0.3-3.9,0.5-4.8c0.1-0.4,0.3-1.1,0.5-1.7
		C444.1,531.6,443.8,534.2,443.8,536.2z"/>
	<path class="st7" d="M442.3,527.4c-0.4,0-1.1-0.1-1.4-0.3c-0.4-0.2-0.6-0.6-0.7-1c0,0,0,0,0,0c0,0.5,0.2,0.9,0.5,1.2
		c0.2,0.2,0.6,0.3,0.9,0.4c0.3,0.1,0.5,0,0.7-0.1C442.4,527.5,442.4,527.4,442.3,527.4z"/>
	<path class="st7" d="M448.6,529c-0.4,0-0.8,0.1-1.2,0.1c-0.4-0.1-0.9-0.4-1.2-0.6c0,0,0,0,0,0c0.3,0.3,0.7,0.7,1.1,0.9
		c0.4,0.1,0.9,0,1.3-0.1C448.7,529.1,448.7,529,448.6,529z"/>
	<path class="st7" d="M458.5,535.6C458.5,535.6,458.5,535.6,458.5,535.6c0.2-1.1,0.6-2.2,0.8-3.4c0,0,0-0.1-0.1,0
		c-0.7,2-1.4,3.9-0.8,6c0,0,0,0,0,0C458.3,537.3,458.3,536.5,458.5,535.6c0.1,0.3,0.2,0.5,0.4,0.7c0.1,0.2,0.2,0.6,0.3,0.7
		c0,0,0.1,0,0-0.1c-0.2-0.2-0.1-0.5-0.2-0.7C458.8,536.1,458.7,535.9,458.5,535.6z"/>
	<path class="st7" d="M458.1,542.2c-1.2-0.1-2.3-1.6-3.1-2.6c-1.8-2.1-2-4.5-1.9-7.2l0,0c-0.1,2.4-0.2,4.8,1.3,6.7
		C455.3,540.2,456.7,542.2,458.1,542.2C458.1,542.2,458.1,542.2,458.1,542.2z"/>
	<path class="st7" d="M453.7,543.7c-1.5,0.2-3.2-2.4-4-3.4c-1.5-1.8-1.6-3.7-1.8-5.9c0,0,0,0,0,0c0.2,2.7,0.4,4.4,2.1,6.5
		C450.8,541.9,452.1,544,453.7,543.7C453.7,543.8,453.7,543.7,453.7,543.7z"/>
	<path class="st7" d="M448.4,544.3c-1.2-0.6-2.2-2.4-2.8-3.6c-0.6-1.1-1.1-2.4-1.6-3.6c0,0,0,0,0,0
		C444.9,539.4,446,543.1,448.4,544.3C448.4,544.4,448.4,544.3,448.4,544.3z"/>
	<path class="st8" d="M508.5,366.2c0.7,5.3-20.9,12.6-21.3,9.8c0,0-0.3-9.8-6.7-29.8c-1.5-4.7,2.5-7.6,6.8-10.3l6.4-5.4
		c3.9-2.8,4.6-0.9,9.2,16.1L508.5,366.2z"/>
	<path class="st9" d="M491.6,364.8c0,0-4.7,2.6-13.1,9.7c-9.6,8.1-28.3,23.3-22.9,40.9c6.1,19.9,6.1,19.9,6.1,19.9
		s0.1,17.8-0.3,29.9c-0.5,15.4,0.1,29.6,1.1,34.7c2.4,11.4,44.8,57,69.7,55c0,0,5.2-44.3-14.9-88.3c-5.2-19.6,3.5-33.5,6-43.7
		c4.8-19.9-1.8-47.1-14.3-61.3C504.3,356.3,501.4,360.5,491.6,364.8z"/>
	<path class="st10" d="M495.6,376.6c0,0-9.5-1.6-17,18c-7.6,19.5-2.4,32.1,10.5,34.3c12.8,2.2,22.7-12,21.1-30.9
		C508.5,379.6,503,377.5,495.6,376.6z"/>
	<path class="st7" d="M524.3,320.7c3-4.3,5-8.5,5.2-14c0.1-5.6-0.8-11.5-3.1-16.7c-3.7-8.3-10.8-13.7-19.4-16.2
		c-10.2-2.9-21.8-2.8-31.4,2.1c-0.4,0.2-0.7,0.4-1.1,0.6c-7.5,12.5,3.1,35.3,5.6,41.9l9.4,22.4l1.2,5.4l9.7-2.9
		c0,0,1.9-3.1,16.2-15.2C519.6,325.3,522.2,322.9,524.3,320.7z"/>
	<path class="st11" d="M475.5,275.8c-4.1,2.1-8.1,4.8-11,8.5c-3.2,4-4.5,8.5-5.3,13.5c-0.5,3.1,0.1,5.1,0.5,8.2
		c0.2,1.9,3.7,6.3,2.8,8.2c-1.6,3.5-0.9,3.1-3.4,7c-2,3.2-3.4,4.7-2.7,5.5c2,2.4,5.5,2.4,5.9,2.4c0,0,0.1,0.6-0.3,1.7
		c-0.2,0.7-1.2,1.5-0.9,2.3c0.5,1.4,2.3,1.4,3.3,2.5c0.1,0.1-1.8,2.6-1.2,3.8c0.4,0.7,1.5,0.9,2.3,2c0.1,0.3,0.1,2.8,0.3,5.2
		c0.4,1.2,0.8,2.5,1.6,3.4c1.7,1.8,4.3,1.5,6.6,1.2c6.4-1.3,14.8-6.6,17.4-9.9c2.7-3.3,2.3-2.6,5.5-12.4l4.9-56.2
		C493,271,483.6,271.8,475.5,275.8z"/>
	<path class="st12" d="M534.5,339.1c-0.5-0.6-1-1.3-1.4-2.1c-1.1-1.5-1.8-3.1-1.8-5.3c0.1-0.6,0.3-1.2,0.6-1.8
		c1.1-2.5,3.1-4.8,3.4-7.5c0.5-4.5-3.3-7.7-4.3-11.8c-1.5-6.4,4.2-7.8,0.8-19.3c-2.1-6.7-8.9-13.6-15.4-16.8
		c-8.4-4.2-17.8-6.1-27.2-5.6c-4.4,0.2-9.1,1.3-13.4,2.6c-3.6,1.1-7.6,3.2-10.6,5.5c-0.7,0.6-1.4,1.1-2.1,1.7
		c-1.4,1-2.9,2.1-4.1,3.3c-3.8,2.6-7.3,6.1-7.3,11.1c0,2.2,1.3,4.4,2.7,6.1c1.4,1.5,3,2.8,4.4,3.7c1.5,1,3,1.7,4.6,2.6
		c3.8,2.2,8.2,5,9.8,9.4c0.9,2.5,0.6,6.2-1.5,7.9c-0.4,0.6-0.8,1.1-1.4,1.1c3.6,1.7,6.1-3,7.1-5.7c0.1-0.3,0.2-0.6,0.3-0.9
		c-0.1,2.6-0.9,5.2-1.3,7.8c-0.4,2.7,0.3,5.8,2.1,7.8c0.7,0.9,1.8,1.7,2.8,2.2c1.1,0.6,2.2,0.6,2.8,2c0.5,1.1-0.2,4.4-2.2,3.6
		c-0.1,0-0.1,0-0.2,0c0.6,1,2.5,1,3.4,0.4c0,0,0.1-0.1,0.1-0.1c0.6-0.5,1.1-1.2,1.2-1.8c0.5-1.6,0.4-3.1,0.3-4.8
		c2.2,1.1,4,4,3.7,6.5c-0.8,5.8-8.6,12.6-5.3,18.6c0.8,1.4,2.2,2.5,3.3,3.8c1,0.9,1.8,2,1.6,3.1c-0.1,0.8-1.2,1.6-2,1.6
		c-0.3,0-0.5-0.1-0.7-0.1c0.4,0.8,1.6,1.4,2.4,1.2c2.5-0.7,3.9-3.4,3.8-6c0.4,0.6,0.8,1.1,1.2,1.6c1.8,2.1,4.8,2.6,7.3,3.2
		c3.5,0.9,7,2.1,9.1,5.3c1.2,1.9,1.2,4,0.2,5.9c-0.2,1.3-1.1,2.1-2.2,2c-0.2,0-0.4,0-0.6-0.1c-0.1,0-0.2-0.1-0.4-0.2
		c-0.8-0.4-1.4-1.1-1.7-1.9c-0.1,0.4-0.2,0.9-0.1,0.7c-0.3,1.9,1.3,3.1,2.9,3.3c1.7,0.2,3.2-0.8,4.3-2c-0.6,2.3-0.2,4.8,0.7,6.9
		c1,2.3,3.1,3.4,5.5,3c1.4-0.2,2.9-2,3.2-3.5c-0.7,0.7-1.7,1-2.8,0.9c-0.9-0.1-1.8-0.7-1.7-1.7c0-0.3,0.1-0.6,0.1-0.8
		c0-0.5,0-1,0.1-1.6c0.5-1,1.3-1.8,2.2-2.5c0.5-0.6,0.9-1.2,1.3-1.7c0.2-0.2,0.4-0.2,0.5-0.1c1-1.1,2-2.2,2.8-3.5
		c0.4-0.7,0.7-1.4,0.9-2.2c1.6,0,2.4-1,3.4-2.4c1.3-1.8,1.3-3.8,0.4-5.8c-0.9-2.2-2.4-4-3.1-6.3c0.1,0.1,0.1,0.2,0.2,0.2
		c1.3,1.5,3.4,0.8,4.6-0.3c0.1-0.1,0.1-0.2,0.1-0.3c-0.5,0.4-1.1,0.7-1.8,0.5c-0.9-0.2-1.8-0.7-1.6-1.8c0.1-0.9,0.6-1.8,1.3-2.7
		c0.3-0.4,0.6-0.7,0.9-1c1-1.2,2.2-2.4,3.5-3.3c2.1-1.5,3.1-4,3.2-6.5C536.7,342.4,535.7,340.7,534.5,339.1z"/>
	<path class="st13" d="M462.5,499.9c0,0-4.6,54.4,6.2,76.8c10.7,22.4,4.5,51.9,4.5,51.9l2.8,51.9l8.9-27.8l7.2-46.6l-2.7-38.5
		l5.4-44.8l-15.2-15.2L462.5,499.9z"/>
	<path class="st11" d="M491.5,751.2c0-0.1,0-0.2-0.1-0.2c0.6-1.9,0.4-4.1,0.9-6c0.5-2.5,0.7-5.2,1.1-7.8c0.8-4.6,1.6-9.1,2.1-13.8
		c0.4-4.3,0.3-8.3-1.3-12.4c-0.8-1.9-1.8-3.4-3.2-4.8c-0.7-0.7-1-1.5-1.2-2.4c-0.1-0.3-0.3-0.5-0.4-0.8c0,0,0,0,0,0
		c-1.4-2.2-4.6-2.7-7.1-2.7c-1.4,0-3.1,0.6-3.9,1.8c-0.1,0.1-0.2,0.3-0.4,0.6c-0.3,0.6-0.6,1.3-0.9,1.9c-0.1,0.8-0.3,1.6-0.5,2.3
		c-0.4,1.9-1.4,3.3-2.3,4.9c-1.1,2-2.6,3.7-3.9,5.5c-0.3,0.3-0.5,0.6-0.8,0.9c-3.5,4.3-6.1,8.9-9.2,13.5c-1.7,2.6-3.4,5.5-6.1,7.3
		c-2.7,1.8-6.2,2.4-9.2,3.7c-2,0.9-4.3,1.6-6,3c-2.8,2.2,2.3,5.8,4.3,6.3c9.4,2.3,18.3,2.6,24.2-0.8c2.6-1.5,4-4.5,5.7-6.8
		c1.4-1.9,2.8-3.7,4.4-5.4c0.1-0.2,0.2-0.3,0.3-0.5c1.5-2,3.3-3.7,5.3-5c1.1-0.7,2.1-1,3.2-1.2c1.3,1.6,1.5,4.6,1.8,6.7
		c0.5,2.6,0.6,5.2,0.8,7.8c0,1-0.6,4.3,0.5,4.9C490.6,752.3,491.2,752.1,491.5,751.2z"/>
	<path class="st14" d="M491.5,751.2c0-0.1,0-0.2-0.1-0.2c0.6-1.9,0.4-4.1,0.9-6c0.5-2.5,0.7-5.2,1.1-7.8c0.8-4.6,1.6-9.1,2.1-13.8
		c0.4-4.3,0.3-8.3-1.3-12.4c-0.8-1.9-1.8-3.4-3.2-4.8c-0.4-0.4-0.6-0.9-0.9-1.3l0,0c0.8,9.8-17.4,30.5-25.1,36.5
		c-4.4,3.4-13.9-0.7-13.9-0.7l0,0c-2,0.8-4.1,1.3-6,2.1c-2,0.9-4.3,1.6-6,3c-2.8,2.2,2.3,5.8,4.3,6.3c9.4,2.3,18.3,2.6,24.2-0.8
		c2.6-1.5,4-4.5,5.7-6.8c1.4-1.9,2.8-3.7,4.4-5.4c0.1-0.2,0.2-0.3,0.3-0.5c1.5-2,3.3-3.7,5.3-5c1.1-0.7,2.1-1,3.2-1.2
		c1.3,1.6,1.5,4.6,1.8,6.7c0.5,2.6,0.6,5.2,0.8,7.8c0,1-0.6,4.3,0.5,4.9C490.6,752.3,491.2,752.1,491.5,751.2z"/>
	<path class="st13" d="M496.3,585.3c-0.3-1,2.3-73.3-5.3-82.6c-4.5-5.5-6-9.5-25-2.8c-10.4,3.7-1.5,62,2.8,101
		c1.3,37.2-0.7-18,8.4,105.6c0.1,1.7,8.4,2.2,11.8-1.3c1-10,1.2-22.2,2.3-32.2C493.3,654.1,501.4,600.8,496.3,585.3z"/>
	<path class="st15" d="M531.1,503.9c0,0,28,35.7,2.3,64.3c-9.5,13.9-8.8,32.7-7.5,47.9c-16.1,20.6-27.2,2.4-27.2,2.4
		s-34.6-63.3-32.7-113.2C491.6,496.4,531.1,503.9,531.1,503.9z"/>
	<path class="st11" d="M515.9,761.3c0-0.1,0-0.2-0.1-0.2c0.6-1.9,0.4-4.1,0.9-6c0.5-2.5,0.7-5.2,1.1-7.8c0.8-4.6,1.6-9.1,2.1-13.8
		c0.4-4.3,0.3-8.3-1.3-12.4c-0.8-1.9-1.8-3.4-3.2-4.8c-0.7-0.7-1-1.5-1.2-2.4c-0.1-0.3-0.3-0.5-0.4-0.8c0,0,0,0,0,0
		c-1.4-2.2-4.6-2.7-7.1-2.7c-1.4,0-3.1,0.6-3.9,1.8c-0.1,0.1-0.2,0.3-0.4,0.6c-0.3,0.6-0.6,1.3-0.9,1.9c-0.1,0.8-0.3,1.6-0.5,2.3
		c-0.4,1.9-1.4,3.3-2.3,4.9c-1.1,2-2.6,3.7-3.9,5.5c-0.3,0.3-0.5,0.6-0.8,0.9c-3.5,4.3-6.1,8.9-9.2,13.5c-1.7,2.6-3.4,5.5-6.1,7.3
		c-2.7,1.8-6.2,2.4-9.2,3.7c-2,0.9-4.3,1.6-6,3c-2.8,2.2,2.3,5.8,4.3,6.3c9.4,2.3,18.3,2.6,24.2-0.8c2.6-1.5,4-4.5,5.7-6.8
		c1.4-1.9,2.8-3.7,4.4-5.4c0.1-0.2,0.2-0.3,0.3-0.5c1.5-2,3.3-3.7,5.3-5c1.1-0.7,2.1-1,3.2-1.2c1.3,1.6,1.5,4.6,1.8,6.7
		c0.5,2.6,0.6,5.2,0.8,7.8c0,1-0.6,4.3,0.5,4.9C515,762.5,515.5,762.2,515.9,761.3z"/>
	<path class="st14" d="M515.9,761.3c0-0.1,0-0.2-0.1-0.2c0.6-1.9,0.4-4.1,0.9-6c0.5-2.5,0.7-5.2,1.1-7.8c0.8-4.6,1.6-9.1,2.1-13.8
		c0.4-4.3,0.3-8.3-1.3-12.4c-0.8-1.9-1.8-3.4-3.2-4.8c-0.4-0.4-0.6-0.9-0.9-1.3l0,0c0.8,9.8-17.4,30.5-25.1,36.5
		c-4.4,3.4-13.9-0.7-13.9-0.7l0,0c-2,0.8-4.1,1.3-6,2.1c-2,0.9-4.3,1.6-6,3c-2.8,2.2,2.3,5.8,4.3,6.3c9.4,2.3,18.3,2.6,24.2-0.8
		c2.6-1.5,4-4.5,5.7-6.8c1.4-1.9,2.8-3.7,4.4-5.4c0.1-0.2,0.2-0.3,0.3-0.5c1.5-2,3.3-3.7,5.3-5c1.1-0.7,2.1-1,3.2-1.2
		c1.3,1.6,1.5,4.6,1.8,6.7c0.5,2.6,0.6,5.2,0.8,7.8c0,1-0.6,4.3,0.5,4.9C515,762.5,515.5,762.2,515.9,761.3z"/>
	<path class="st15" d="M520.2,595.6c-0.7-2.1-31.7-65.2-29.9-11.2c1.3,37.2,1.7,8.7,10.8,132.3c0.1,1.7,8.4,2.2,11.8-1.3
		c1-10,1.2-22.2,2.3-32.2C517.2,664.4,526.2,612.5,520.2,595.6z"/>
	<path class="st11" d="M472.4,467.5l7.4-57.7c1.4-4.1,0-24.5,13.4-28.2c0,0,15.1-1.9,12.7,19.8l-11.3,61.3
		C489.7,470.6,473.4,474.9,472.4,467.5z"/>
	<path class="st11" d="M493.8,452c1.8,8-6,24.2-7.1,27.5c-3,8.6-7.7,19.6-11.6,27.7c-4.2,8.6-7.1,14-8.5,14.7l-5.8-2.3
		c-3.8-1.3-0.4,1.4,8.4-48.7l6.9-28.1C482,442.2,493,444,493.8,452z"/>
	<path class="st11" d="M465.5,517c-2.2-1.5-3.6-1.7-5.7-0.7c-5.2,6.8-10.6,14.5-14.4,22.3c-0.2,0.7-0.3,1.4-0.4,2.2
		c0,0.6,0,1.2,0,1.8c0,2.3-0.3,4.7-0.1,7c0.1,1.3,0.4,2.4,0.9,3.5c0,0,0,0,0.1,0.1c1,1.5,2.4,2.6,3.8,3.7c1.3,1,2.4,1.1,4,1
		c0.7-0.1,1.2,0.4,1.8,0.9c0.7,0.2,1.5,0.2,2.2,0c0.6-0.4,1.3-0.7,2.1-0.8c0.4-0.1,0.9-0.1,1.3-0.1c0.8-0.2,1.6-0.4,2.3-0.6
		c0.3-0.2,0.6-0.3,0.8-0.6c0.3-0.3,0.5-0.5,0.9-0.6c0.8-0.2,1.5-0.4,2-0.8c0.2-0.4,0.4-0.8,0.6-1.2c0.5-1.5,0.7-3,0.8-4.6
		c0-0.2,0-0.5,0-0.7c-0.1-1-0.4-4.5-2.2-3.6c-0.4,0.2-0.5,0.6-0.7,1c0.1-0.3,0.1-0.6,0.2-0.9c0.7-2.3,1.6-4.5,2.7-6.6
		c0.4-0.8,0.8-1.5,1.1-2.3c0.5-3.2,0.5-6.5,0.1-9.7C469.2,523.3,468.5,518.9,465.5,517z M450.4,550.9c0,0,1.1,2.8,1,2.7
		c-0.1-0.1-1.4-2.6-1.4-2.8c-0.1-1.2,0-3.9,0.1-4.8c0.1-0.4,0.3-1.1,0.4-1.7C450.3,546.3,450.2,548.9,450.4,550.9z"/>
	<path class="st16" d="M236.5,270.9c0,0.2,0.1,0.5,0.1,0.7c0,0,0,0.1,0,0.1c0,0.3,0,0.5,0.1,0.8c0,0,0,0,0,0c0,0.1,0,0.2,0.1,0.3
		c0,0.1,0,0.1,0,0.2c0,0.2,0.1,0.5,0.2,0.7c0.1,0.3,0.1,0.6,0.2,0.8c0,0.1,0.1,0.2,0.1,0.3c0,0.1,0,0.2,0.1,0.2
		c0.1,0.2,0.2,0.4,0.3,0.6c0.1,0.3,0.2,0.5,0.3,0.8c0.1,0.1,0.1,0.2,0.2,0.3c0,0.1,0.1,0.2,0.1,0.3c0.1,0.2,0.2,0.3,0.3,0.5
		c0.2,0.3,0.3,0.5,0.5,0.8c0.1,0.2,0.3,0.3,0.4,0.5c0.1,0.1,0.1,0.2,0.2,0.4c0.1,0.1,0.2,0.2,0.3,0.4c0.2,0.2,0.3,0.4,0.5,0.7
		c0.3,0.3,0.7,0.7,1,1c0.1,0.1,0.2,0.3,0.4,0.4c0.1,0.1,0.1,0.1,0.2,0.2c0.1,0.1,0.1,0.1,0.2,0.2c0.3,0.3,0.6,0.5,1,0.8
		c0.3,0.2,0.6,0.5,0.9,0.8c0.1,0.1,0.1,0.1,0.2,0.2c0.4,0.2,0.8,0.5,1.1,0.7c0.3,0.2,0.6,0.4,0.9,0.6c0.1,0.1,0.3,0.2,0.4,0.3
		c1.1,0.6,2.2,1.2,3.4,1.7c0.3,0.2,0.7,0.3,1,0.4c0.9,0.4,1.8,0.7,2.8,1.1c0.2,0.1,0.4,0.2,0.6,0.2c0.1,0,0.3,0.1,0.4,0.1
		c0.6,0.2,1.2,0.4,1.8,0.5c0.5,0.1,0.9,0.3,1.4,0.4c0.7,0.2,1.4,0.3,2,0.4c0.4,0.1,0.7,0.2,1.1,0.2c0.1,0,0.1,0,0.2,0
		c1.4,0.2,2.7,0.4,4.1,0.6c0.1,0,0.2,0,0.3,0c0.3,0,0.6,0,1,0.1c0.8,0.1,1.6,0.1,2.4,0.2c0.2,0,0.4,0,0.6,0c0.3,0,0.7,0,1,0
		c0.7,0,1.3,0,2,0c0.2,0,0.5,0,0.7,0c0.3,0,0.6,0,0.9,0c0.6,0,1.2-0.1,1.9-0.1c0.3,0,0.5,0,0.8,0c0.3,0,0.6-0.1,0.9-0.1
		c0.6-0.1,1.2-0.1,1.8-0.2c0.3,0,0.6-0.1,0.9-0.1c0.3,0,0.5-0.1,0.8-0.1c0.6-0.1,1.3-0.2,1.9-0.3c0.3-0.1,0.6-0.1,0.9-0.2
		c0.2,0,0.4-0.1,0.6-0.1c0.8-0.2,1.5-0.4,2.2-0.5c0.3-0.1,0.6-0.1,0.9-0.2c0.1,0,0.2-0.1,0.3-0.1c1.3-0.4,2.6-0.8,3.9-1.3
		c0.1,0,0.1,0,0.2-0.1c0.6-0.2,1.1-0.5,1.7-0.7c0.3-0.1,0.6-0.3,0.9-0.4c0.9-0.4,1.8-0.9,2.6-1.4c0.9-0.5,1.7-1,2.5-1.6
		c0.2-0.1,0.4-0.3,0.5-0.4c0.6-0.4,1.1-0.8,1.6-1.3c0.2-0.2,0.4-0.4,0.5-0.5c0.4-0.4,0.9-0.8,1.3-1.2c0.2-0.2,0.3-0.4,0.5-0.7
		c0.3-0.4,0.7-0.8,1-1.2c0.2-0.2,0.3-0.5,0.5-0.8c0.2-0.4,0.5-0.8,0.7-1.2c0.1-0.3,0.2-0.5,0.4-0.8c0.2-0.4,0.4-0.8,0.5-1.1
		c0.1-0.3,0.1-0.6,0.2-0.9c0.1-0.4,0.2-0.7,0.3-1.1c0-0.3,0.1-0.6,0.1-0.9c0-0.4,0.1-0.7,0.1-1.1c0,0,0,0,0-0.1l0,7.3
		c0,5.4-3.5,10.8-10.6,14.9c-0.8,0.5-1.7,0.9-2.6,1.4c-0.3,0.1-0.7,0.3-1,0.4c-0.5,0.2-1,0.5-1.6,0.7c-0.1,0-0.1,0.1-0.2,0.1
		c-1.3,0.5-2.5,0.9-3.9,1.3c-0.1,0-0.2,0.1-0.3,0.1c-0.3,0.1-0.6,0.2-0.9,0.2c-0.8,0.2-1.5,0.4-2.3,0.6c-0.2,0-0.4,0.1-0.6,0.1
		c-0.3,0.1-0.6,0.1-0.9,0.2c-0.6,0.1-1.3,0.2-1.9,0.3c-0.2,0-0.5,0.1-0.8,0.1c-0.3,0-0.6,0.1-0.8,0.1c-0.6,0.1-1.2,0.1-1.8,0.2
		c-0.3,0-0.6,0-0.8,0.1c-0.3,0-0.5,0.1-0.8,0.1c-0.6,0-1.2,0.1-1.8,0.1c-0.3,0-0.6,0-0.9,0c-0.3,0-0.5,0-0.7,0c-0.7,0-1.3,0-2,0
		c-0.3,0-0.7,0-1,0c-0.2,0-0.4,0-0.6,0c-0.8,0-1.6-0.1-2.5-0.2c-0.3,0-0.6-0.1-1-0.1c-0.1,0-0.2,0-0.3,0c-1.4-0.1-2.7-0.3-4.1-0.6
		c-0.1,0-0.1,0-0.2,0c-0.4-0.1-0.8-0.2-1.2-0.2c-0.7-0.1-1.3-0.3-2-0.4c-0.5-0.1-0.9-0.3-1.4-0.4c-0.6-0.2-1.3-0.3-1.9-0.5
		c-0.1,0-0.3-0.1-0.4-0.1c-0.2-0.1-0.4-0.1-0.6-0.2c-1-0.3-1.9-0.7-2.8-1.1c-0.3-0.1-0.7-0.3-1-0.4c-1.2-0.5-2.3-1.1-3.4-1.7
		c-0.2-0.1-0.3-0.2-0.4-0.3c-0.3-0.2-0.6-0.4-0.9-0.6c-0.4-0.3-0.9-0.6-1.3-0.9c-0.4-0.3-0.7-0.5-1-0.8c-0.4-0.3-0.8-0.6-1.1-0.9
		c-0.1-0.1-0.1-0.1-0.2-0.2c-0.1-0.1-0.3-0.3-0.4-0.4c-0.5-0.5-1.1-1.1-1.5-1.6c-0.1-0.1-0.2-0.3-0.3-0.4c-0.1-0.1-0.2-0.2-0.2-0.3
		c-0.3-0.4-0.6-0.8-0.8-1.2c-0.1-0.2-0.2-0.4-0.4-0.6c0-0.1-0.1-0.1-0.1-0.2c-0.2-0.4-0.4-0.7-0.5-1.1c-0.1-0.3-0.2-0.5-0.3-0.8
		c0-0.1,0-0.1-0.1-0.2c-0.1-0.3-0.2-0.7-0.3-1c-0.1-0.3-0.2-0.6-0.2-0.9c0,0,0-0.1,0-0.1c-0.1-0.4-0.1-0.7-0.1-1.1
		c0-0.4-0.1-0.7-0.1-1.1c0,0,0,0,0,0l0-7.3C236.5,270.7,236.5,270.8,236.5,270.9z"/>
	<path class="st17" d="M308.5,270.5c0-3.1-1.2-6.1-3.5-8.9c-1.7-2.1-4-4-7-5.8c-5.2-3-11.6-4.9-18.3-5.7c-0.1,0-0.1,0-0.2,0
		c-0.4,0-0.8-0.1-1.1-0.1c-4.2-0.4-8.5-0.4-12.6,0.1c-6.8,0.8-13.3,2.7-18.6,5.7c-7.9,4.6-11.4,10.8-10.5,16.8c0,0,0,0,0,0
		c0.1,0.4,0.2,0.8,0.3,1.2c0.1,0.3,0.1,0.6,0.2,0.8c0.1,0.4,0.3,0.8,0.5,1.1c0.1,0.3,0.2,0.5,0.3,0.8c0.2,0.4,0.4,0.7,0.7,1.1
		c0.2,0.3,0.3,0.5,0.5,0.8c0.3,0.4,0.6,0.8,0.9,1.2c0.2,0.2,0.3,0.4,0.5,0.7c0.5,0.5,1,1.1,1.6,1.6c0.1,0.1,0.1,0.1,0.2,0.2
		c0.6,0.5,1.2,1,1.9,1.5c0.1,0.1,0.1,0.1,0.2,0.2c0.8,0.5,1.6,1.1,2.5,1.6c1.1,0.6,2.2,1.2,3.4,1.7c0.3,0.2,0.7,0.3,1,0.4
		c0.9,0.4,1.8,0.7,2.8,1.1c0.4,0.1,0.7,0.2,1.1,0.4c0.6,0.2,1.2,0.4,1.8,0.5c0.5,0.1,0.9,0.3,1.4,0.4c0.7,0.2,1.4,0.3,2,0.4
		c0.4,0.1,0.9,0.2,1.3,0.3c1.4,0.2,2.7,0.4,4.1,0.6c0.4,0,0.8,0.1,1.3,0.1c0.8,0.1,1.6,0.1,2.4,0.2c0.5,0,1,0,1.6,0c0.7,0,1.3,0,2,0
		c0.5,0,1.1,0,1.6,0c0.6,0,1.2-0.1,1.9-0.1c0.6,0,1.1-0.1,1.7-0.1c0.6-0.1,1.2-0.1,1.8-0.2c0.5-0.1,1.1-0.1,1.6-0.2
		c0.6-0.1,1.3-0.2,1.9-0.3c0.5-0.1,1-0.2,1.5-0.3c0.8-0.2,1.5-0.4,2.2-0.5c0.4-0.1,0.8-0.2,1.3-0.3c1.3-0.4,2.6-0.8,3.9-1.3
		c0.6-0.2,1.2-0.5,1.9-0.8c0.3-0.1,0.6-0.3,0.9-0.4c0.9-0.4,1.8-0.9,2.6-1.4c0.9-0.5,1.7-1,2.5-1.6c0.2-0.1,0.4-0.3,0.5-0.4
		c0.6-0.4,1.1-0.8,1.6-1.3c0.2-0.2,0.4-0.4,0.5-0.5c0.4-0.4,0.9-0.8,1.3-1.2c0.2-0.2,0.3-0.4,0.5-0.7c0.3-0.4,0.7-0.8,1-1.2
		c0.2-0.2,0.3-0.5,0.5-0.8c0.2-0.4,0.5-0.8,0.7-1.2c0.1-0.3,0.2-0.5,0.4-0.8c0.2-0.4,0.4-0.8,0.5-1.1c0.1-0.3,0.1-0.6,0.2-0.9
		c0.1-0.4,0.2-0.7,0.3-1.1c0-0.3,0.1-0.6,0.1-0.9C308.5,271.2,308.5,270.8,308.5,270.5z M286.8,276.7l4,2.3l-1.8,1.1l-2.1,1.2
		l-4.1-2.4c-0.9,0.3-1.7,0.5-2.7,0.7c-1.9,0.3-3.8,0.3-5.7,0c-1.9-0.3-3.5-0.9-5-1.7c-2.2-1.3-3.2-2.8-2.9-4.6
		c0.2-0.9,0.8-1.9,1.9-3.2l0.7-0.8c0.2-0.2,0.3-0.3,0.4-0.5c0.5-0.7,0.8-1.2,0.8-1.7c0-0.5-0.4-1-1.1-1.4c-0.7-0.4-1.6-0.6-2.5-0.7
		c-0.9,0-1.7,0.2-2.4,0.6l-0.1,0.1c-0.7,0.4-1.1,0.9-1.2,1.4c0,0.5,0.3,1.1,1,1.6l-4.6,2.7c-1.3-0.8-2.1-1.7-2.5-2.7
		c-0.4-1-0.4-1.9,0.1-2.9c0.2-0.5,0.6-0.9,1-1.3l-4.1-2.4l2.1-1.2l1.8-1.1l4.2,2.4l0,0c0.7-0.2,1.5-0.4,2.3-0.6
		c1.7-0.3,3.4-0.3,5.1-0.1c1.7,0.2,3.1,0.7,4.4,1.4c1.1,0.7,1.9,1.5,2.4,2.4c0.4,0.9,0.5,1.8,0.1,2.7c-0.2,0.5-0.6,1-1.1,1.7
		c-0.1,0.1-0.3,0.3-0.7,0.7c-0.2,0.2-0.4,0.5-0.5,0.7c-0.6,0.8-1,1.5-1.1,2c-0.1,0.8,0.4,1.5,1.4,2.1c0.9,0.5,1.9,0.8,3.1,0.8
		c1.2,0,2.3-0.3,3.2-0.8l0.2-0.1c0.9-0.5,1.3-1.1,1.4-1.7c0-0.7-0.4-1.3-1.3-1.9l4.7-2.7c1.1,0.7,1.8,1.3,2.1,1.9
		c0.5,0.7,0.8,1.4,0.8,2.3C288.6,274.5,288,275.7,286.8,276.7z"/>
	<path class="st18" d="M289,280.1l-2.1,1.2l-4.1-2.4c-0.9,0.3-1.7,0.5-2.7,0.7c-1.9,0.3-3.8,0.3-5.7,0c-1.9-0.3-3.5-0.9-5-1.7
		c-2.2-1.3-3.2-2.8-2.9-4.6c0.2-0.9,0.8-1.9,1.9-3.2l0.7-0.8c0.2-0.2,0.3-0.3,0.4-0.5c0.5-0.7,0.8-1.2,0.8-1.7c0-0.5-0.4-1-1.1-1.4
		c-0.7-0.4-1.6-0.6-2.5-0.7c-0.9,0-1.7,0.2-2.4,0.6l-0.1,0.1c-0.7,0.4-1.1,0.9-1.2,1.4c0,0.5,0.3,1.1,1,1.6l-4.6,2.7
		c-1.3-0.8-2.1-1.7-2.5-2.7c-0.4-1-0.4-1.9,0.1-2.9c0.2-0.5,0.6-0.9,1-1.3l-4.1-2.4l2.1-1.2l1.8-1.1l4.2,2.4l0,0
		c0.7-0.2,1.5-0.4,2.3-0.6c1.7-0.3,3.4-0.3,5.1-0.1c1.7,0.2,3.1,0.7,4.4,1.4c1.1,0.7,1.9,1.5,2.4,2.4c0.4,0.9,0.5,1.8,0.1,2.7
		c-0.2,0.5-0.6,1-1.1,1.7c-0.1,0.1-0.3,0.3-0.7,0.7c-0.2,0.2-0.4,0.5-0.5,0.7c-0.6,0.8-1,1.5-1.1,2c-0.1,0.8,0.4,1.5,1.4,2.1
		c0.9,0.5,1.9,0.8,3.1,0.8c1.2,0,2.3-0.3,3.2-0.8l0.2-0.1c0.9-0.5,1.3-1.1,1.4-1.7c0-0.7-0.4-1.3-1.3-1.9l4.7-2.7
		c1.1,0.7,1.8,1.3,2.1,1.9c0.5,0.7,0.8,1.4,0.8,2.3c0,1.3-0.6,2.5-1.8,3.6l4,2.3L289,280.1z"/>
	<path class="st16" d="M2,587.7c0,0.2,0.1,0.5,0.1,0.7c0,0,0,0.1,0,0.1c0,0.3,0,0.5,0.1,0.8c0,0.1,0,0.2,0.1,0.3c0,0.1,0,0.1,0,0.2
		c0,0.2,0.1,0.5,0.2,0.7c0.1,0.3,0.1,0.6,0.2,0.8c0,0.1,0.1,0.2,0.1,0.3c0,0.1,0,0.2,0.1,0.2c0.1,0.2,0.2,0.4,0.3,0.6
		c0.1,0.3,0.2,0.5,0.3,0.8c0.1,0.1,0.1,0.2,0.2,0.3c0,0.1,0.1,0.2,0.1,0.3c0.1,0.2,0.2,0.3,0.3,0.5c0.2,0.3,0.3,0.5,0.5,0.8
		c0.1,0.2,0.3,0.3,0.4,0.5c0.1,0.1,0.1,0.2,0.2,0.4c0.1,0.1,0.2,0.2,0.3,0.3c0.2,0.2,0.3,0.4,0.5,0.7c0.3,0.4,0.7,0.7,1,1
		c0.1,0.1,0.2,0.3,0.4,0.4c0.1,0.1,0.1,0.1,0.2,0.2c0.1,0.1,0.1,0.1,0.2,0.2c0.3,0.3,0.6,0.5,1,0.8c0.3,0.3,0.6,0.5,0.9,0.8
		c0.1,0.1,0.1,0.1,0.2,0.2c0.4,0.2,0.8,0.5,1.1,0.7c0.3,0.2,0.6,0.4,0.9,0.6c0.1,0.1,0.3,0.2,0.4,0.3c1.1,0.6,2.2,1.2,3.4,1.7
		c0.3,0.2,0.7,0.3,1,0.4c0.9,0.4,1.9,0.7,2.8,1.1c0.2,0.1,0.4,0.2,0.6,0.2c0.1,0,0.3,0.1,0.4,0.1c0.6,0.2,1.2,0.4,1.9,0.5
		c0.5,0.1,0.9,0.3,1.4,0.4c0.7,0.2,1.4,0.3,2.1,0.4c0.4,0.1,0.7,0.2,1.1,0.2c0.1,0,0.1,0,0.2,0c1.4,0.2,2.7,0.4,4.1,0.6
		c0.1,0,0.2,0,0.3,0c0.3,0,0.6,0,1,0.1c0.8,0.1,1.6,0.1,2.4,0.2c0.2,0,0.4,0,0.6,0c0.3,0,0.6,0,1,0c0.7,0,1.3,0,2,0
		c0.2,0,0.5,0,0.7,0c0.3,0,0.6,0,0.9,0c0.6,0,1.2-0.1,1.9-0.1c0.3,0,0.5,0,0.8,0c0.3,0,0.6-0.1,0.9-0.1c0.6-0.1,1.2-0.1,1.8-0.2
		c0.3,0,0.6-0.1,0.9-0.1c0.3,0,0.5-0.1,0.8-0.1c0.6-0.1,1.3-0.2,1.9-0.3c0.3-0.1,0.6-0.1,0.9-0.2c0.2,0,0.4-0.1,0.6-0.1
		c0.8-0.2,1.5-0.4,2.2-0.5c0.3-0.1,0.6-0.1,0.9-0.2c0.1,0,0.2-0.1,0.3-0.1c1.3-0.4,2.6-0.8,3.9-1.3c0.1,0,0.1,0,0.2-0.1
		c0.6-0.2,1.1-0.5,1.6-0.7c0.3-0.1,0.6-0.3,0.9-0.4c0.9-0.4,1.8-0.9,2.6-1.4c0.9-0.5,1.7-1,2.5-1.6c0.2-0.2,0.4-0.3,0.6-0.5
		c0.5-0.4,1.1-0.8,1.5-1.2c0.2-0.2,0.4-0.4,0.6-0.6c0.4-0.4,0.8-0.8,1.2-1.2c0.2-0.2,0.4-0.5,0.6-0.7c0.3-0.4,0.6-0.7,0.9-1.1
		c0.2-0.3,0.3-0.5,0.5-0.8c0.2-0.4,0.5-0.7,0.7-1.1c0.1-0.3,0.2-0.6,0.4-0.8c0.2-0.4,0.3-0.7,0.5-1.1c0.1-0.3,0.1-0.6,0.2-0.9
		c0.1-0.4,0.2-0.8,0.3-1.1c0-0.3,0-0.5,0.1-0.8c0-0.4,0.1-0.7,0.1-1.1l0,7.2c0,5.4-3.5,10.8-10.6,14.9c-0.8,0.5-1.7,0.9-2.6,1.4
		c-0.3,0.1-0.6,0.3-0.9,0.4c-0.5,0.2-1.1,0.5-1.6,0.7c-0.1,0-0.1,0.1-0.2,0.1c-1.3,0.5-2.5,0.9-3.9,1.3c-0.1,0-0.2,0.1-0.3,0.1
		c-0.3,0.1-0.6,0.2-0.9,0.2c-0.8,0.2-1.5,0.4-2.3,0.6c-0.2,0-0.4,0.1-0.6,0.1c-0.3,0.1-0.6,0.1-0.9,0.2c-0.6,0.1-1.3,0.2-1.9,0.3
		c-0.3,0-0.5,0.1-0.8,0.1c-0.3,0-0.6,0.1-0.8,0.1c-0.6,0.1-1.2,0.1-1.8,0.2c-0.3,0-0.6,0.1-0.8,0.1c-0.3,0-0.5,0.1-0.8,0.1
		c-0.6,0-1.2,0.1-1.8,0.1c-0.3,0-0.6,0-0.9,0c-0.2,0-0.5,0-0.7,0c-0.7,0-1.3,0-2,0c-0.3,0-0.7,0-1,0c-0.2,0-0.4,0-0.6,0
		c-0.8,0-1.6-0.1-2.5-0.2c-0.3,0-0.6,0-1-0.1c-0.1,0-0.2,0-0.3,0c-1.4-0.1-2.7-0.3-4.1-0.6c-0.1,0-0.1,0-0.2,0
		c-0.4-0.1-0.8-0.2-1.2-0.2c-0.7-0.1-1.3-0.3-2-0.4c-0.5-0.1-1-0.3-1.4-0.4c-0.6-0.2-1.2-0.3-1.8-0.5c-0.1,0-0.3-0.1-0.4-0.1
		c-0.2-0.1-0.4-0.1-0.6-0.2c-1-0.3-1.9-0.7-2.8-1.1c-0.4-0.1-0.7-0.3-1-0.4c-1.2-0.5-2.3-1.1-3.4-1.7c-0.2-0.1-0.3-0.2-0.4-0.3
		c-0.4-0.2-0.7-0.4-1-0.6c-0.4-0.3-0.8-0.5-1.2-0.8c-0.4-0.3-0.7-0.6-1.1-0.8c-0.4-0.3-0.7-0.6-1.1-0.9c-0.1-0.1-0.2-0.2-0.2-0.2
		c-0.1-0.1-0.3-0.3-0.4-0.4c-0.5-0.5-1-1.1-1.5-1.6c-0.1-0.1-0.2-0.3-0.3-0.4c-0.1-0.1-0.2-0.2-0.3-0.3c-0.3-0.4-0.6-0.8-0.8-1.2
		c-0.1-0.2-0.3-0.4-0.4-0.6c0-0.1-0.1-0.1-0.1-0.2c-0.2-0.4-0.3-0.7-0.5-1.1c-0.1-0.3-0.2-0.5-0.3-0.8c0-0.1,0-0.1-0.1-0.2
		c-0.1-0.3-0.2-0.7-0.3-1c-0.1-0.3-0.2-0.6-0.2-0.9c0,0,0-0.1,0-0.1c-0.1-0.4-0.1-0.7-0.1-1.1c0-0.4-0.1-0.7-0.1-1.1c0,0,0,0,0,0
		l0-7.3C2,587.5,2,587.6,2,587.7z"/>
	<path class="st17" d="M73.9,588.4c0-0.4,0.1-0.7,0.1-1.1c0,0,0,0,0,0c0,0,0,0,0,0c0-3.1-1.2-6.1-3.5-8.9c-1.7-2.1-4-4-7-5.8
		c-3.1-1.8-6.6-3.2-10.3-4.2c-9.6-2.6-20.7-2.6-30.3,0c-3.8,1-7.3,2.4-10.4,4.2c-3.5,2-6.2,4.4-7.9,6.9c-2,2.9-2.9,6-2.6,9.1
		c0,0.3,0,0.5,0.1,0.8c0.1,0.4,0.2,0.8,0.3,1.1c0.1,0.3,0.1,0.6,0.2,0.8c0.1,0.4,0.3,0.8,0.5,1.1c0.1,0.3,0.2,0.5,0.3,0.8
		c0.2,0.4,0.4,0.7,0.7,1.1c0.2,0.3,0.3,0.5,0.5,0.8c0.3,0.4,0.6,0.8,0.9,1.2c0.2,0.2,0.3,0.4,0.5,0.7c0.5,0.5,1,1.1,1.6,1.6
		c0.1,0.1,0.1,0.1,0.2,0.2c0.6,0.5,1.2,1,1.9,1.5c0.1,0.1,0.1,0.1,0.2,0.2c0.8,0.5,1.6,1.1,2.5,1.6c1.1,0.6,2.2,1.2,3.4,1.7
		c0.3,0.2,0.7,0.3,1,0.4c0.9,0.4,1.9,0.7,2.8,1.1c0.3,0.1,0.7,0.2,1,0.4c0.6,0.2,1.2,0.4,1.9,0.5c0.5,0.1,0.9,0.3,1.4,0.4
		c0.7,0.2,1.4,0.3,2.1,0.4c0.4,0.1,0.9,0.2,1.3,0.3c1.4,0.2,2.7,0.4,4.1,0.6c0.4,0,0.8,0.1,1.3,0.1c0.8,0.1,1.6,0.1,2.4,0.2
		c0.5,0,1,0,1.6,0c0.7,0,1.3,0,2,0c0.5,0,1.1,0,1.6,0c0.6,0,1.2-0.1,1.9-0.1c0.6,0,1.1-0.1,1.7-0.1c0.6-0.1,1.2-0.1,1.8-0.2
		c0.5-0.1,1.1-0.1,1.6-0.2c0.6-0.1,1.3-0.2,1.9-0.3c0.5-0.1,1-0.2,1.5-0.3c0.8-0.2,1.5-0.4,2.2-0.5c0.4-0.1,0.8-0.2,1.2-0.3
		c1.3-0.4,2.6-0.8,3.9-1.3c0.6-0.2,1.2-0.5,1.9-0.8c0.3-0.1,0.6-0.3,0.9-0.4c0.9-0.4,1.8-0.9,2.6-1.4c0.9-0.5,1.7-1,2.5-1.6
		c0.2-0.2,0.4-0.3,0.6-0.5c0.5-0.4,1.1-0.8,1.5-1.2c0.2-0.2,0.4-0.4,0.6-0.6c0.4-0.4,0.8-0.8,1.2-1.2c0.2-0.2,0.4-0.5,0.6-0.7
		c0.3-0.4,0.6-0.7,0.9-1.1c0.2-0.3,0.3-0.5,0.5-0.8c0.2-0.4,0.5-0.7,0.7-1.1c0.1-0.3,0.2-0.6,0.4-0.8c0.2-0.4,0.3-0.7,0.5-1.1
		c0.1-0.3,0.1-0.6,0.2-0.9c0.1-0.4,0.2-0.8,0.3-1.1C73.9,588.9,73.9,588.7,73.9,588.4z M56.7,578.9l-4.1,2.4c0.5,0.5,0.9,1,1.1,1.6
		c0.5,1.1,0.5,2.2,0,3.3c-0.5,1.1-1.5,2.1-2.9,2.9c-2.2,1.3-4.9,1.8-8,1.7c-1.5-0.1-3.4-0.4-5.6-1.1l-1.4-0.4
		c-0.3-0.1-0.5-0.1-0.8-0.2c-1.1-0.3-2.1-0.4-2.9-0.4c-0.9,0-1.7,0.2-2.4,0.6c-0.8,0.4-1.1,0.9-1.2,1.5c0,0.5,0.3,1,1,1.4l0.1,0
		c0.7,0.4,1.6,0.6,2.5,0.7c0.9,0,1.8-0.2,2.7-0.6l4.6,2.7c-1.4,0.7-2.9,1.2-4.6,1.5c-1.7,0.3-3.4,0.2-5-0.1
		c-0.8-0.1-1.6-0.3-2.3-0.6l-4.2,2.4l-2-1.2l-1.8-1l4.2-2.4l0,0c-0.4-0.4-0.7-0.8-1-1.3c-0.5-1-0.5-2-0.1-3c0.4-1,1.2-1.8,2.5-2.5
		c1.1-0.7,2.5-1.1,4.1-1.4c1.6-0.3,3.2-0.3,4.7-0.1c0.8,0.1,1.8,0.3,3,0.6c0.2,0,0.6,0.2,1.3,0.4c0.4,0.1,0.8,0.2,1.1,0.3
		c1.4,0.4,2.6,0.6,3.5,0.6c1.4,0.1,2.6-0.2,3.7-0.8c0.9-0.5,1.3-1.1,1.3-1.8c0-0.7-0.5-1.3-1.4-1.8l-0.2-0.1c-0.9-0.5-1.9-0.8-3-0.8
		c-1.1,0-2.2,0.2-3.2,0.7l-4.7-2.7c1.1-0.6,2.2-1,3.3-1.2c1.2-0.3,2.5-0.5,3.9-0.5c2.3,0,4.3,0.3,6.1,1l4.1-2.3l1.8,1.1L56.7,578.9z
		"/>
	<path class="st18" d="M53.7,582.8c0.5,1.1,0.5,2.2,0,3.3c-0.5,1.1-1.5,2.1-2.9,2.9c-2.2,1.3-4.9,1.8-8,1.7
		c-1.5-0.1-3.4-0.4-5.6-1.1l-1.4-0.4c-0.3-0.1-0.5-0.1-0.8-0.2c-1.1-0.3-2.1-0.4-2.9-0.4c-0.9,0-1.7,0.2-2.4,0.6
		c-0.8,0.4-1.1,0.9-1.2,1.5c0,0.5,0.3,1,1,1.4l0.1,0c0.7,0.4,1.6,0.6,2.5,0.7c0.9,0,1.8-0.2,2.7-0.6l4.6,2.7
		c-1.4,0.7-2.9,1.2-4.6,1.5c-1.7,0.3-3.4,0.2-5-0.1c-0.8-0.1-1.6-0.3-2.3-0.6l-4.2,2.4l-2-1.2l-1.8-1l4.2-2.4l0,0
		c-0.4-0.4-0.7-0.8-1-1.3c-0.5-1-0.5-2-0.1-3c0.4-1,1.2-1.8,2.5-2.5c1.1-0.7,2.5-1.1,4.1-1.4c1.6-0.3,3.2-0.3,4.7-0.1
		c0.8,0.1,1.8,0.3,3,0.6c0.2,0,0.6,0.2,1.3,0.4c0.4,0.1,0.8,0.2,1.1,0.3c1.4,0.4,2.6,0.6,3.5,0.6c1.4,0.1,2.6-0.2,3.7-0.8
		c0.9-0.5,1.3-1.1,1.3-1.8c0-0.7-0.5-1.3-1.4-1.8l-0.2-0.1c-0.9-0.5-1.9-0.8-3-0.8c-1.1,0-2.2,0.2-3.2,0.7l-4.7-2.7
		c1.1-0.6,2.2-1,3.3-1.2c1.2-0.3,2.5-0.5,3.9-0.5c2.3,0,4.3,0.3,6.1,1l4.1-2.3l1.8,1.1l2,1.2l-4.1,2.4
		C53.1,581.7,53.4,582.2,53.7,582.8z"/>
	<path class="st16" d="M59.8,367.8c0.2-0.2,0.4-0.4,0.6-0.6c0.3-0.3,0.5-0.7,0.8-1c0.2-0.2,0.4-0.4,0.5-0.7c0.2-0.4,0.4-0.8,0.7-1.2
		c0.1-0.3,0.3-0.5,0.4-0.8c0.2-0.4,0.4-0.9,0.6-1.4c0.1-0.3,0.2-0.5,0.3-0.8c0.2-0.5,0.3-1.1,0.4-1.7c0.1-0.3,0.1-0.5,0.2-0.8
		c0.1-0.6,0.2-1.3,0.3-2c0-0.2,0.1-0.4,0.1-0.7c0.1-0.9,0.1-1.9,0.1-2.9c0-0.9,0-1.9-0.1-2.8c0,0,0,0,0,0c0-0.4-0.1-0.9-0.1-1.3
		c-0.1-0.5-0.1-0.9-0.2-1.4c0,0,0,0,0,0c-0.3-2.1-0.8-4.2-1.4-6.3c0-0.1,0-0.2-0.1-0.3h0c-0.1-0.4-0.2-0.7-0.3-1.1c0,0,0,0,0,0
		c-0.2-0.7-0.4-1.4-0.7-2l0,0c-0.1-0.3-0.2-0.6-0.3-0.8c0,0,0,0,0,0c-0.4-0.9-0.7-1.9-1.1-2.8c0,0,0,0,0,0c-0.1-0.1-0.1-0.2-0.2-0.3
		c0,0,0,0,0,0c-0.2-0.4-0.4-0.8-0.6-1.3c-0.9-1.9-1.8-3.7-2.9-5.5c-0.4-0.6-0.8-1.2-1.1-1.9c0,0,0,0,0,0c-0.8-1.2-1.6-2.4-2.4-3.5
		c0,0,0,0,0,0c-0.2-0.2-0.3-0.4-0.5-0.6c-0.7-0.9-1.4-1.7-2.1-2.5c-0.2-0.2-0.4-0.4-0.6-0.6c0,0,0,0,0,0c-0.5-0.6-1.1-1.2-1.7-1.8
		c0,0,0,0,0,0c-0.4-0.4-0.7-0.7-1.1-1.1h0c-0.3-0.3-0.6-0.5-0.8-0.8c0,0,0,0,0,0c-0.3-0.3-0.7-0.6-1-0.9c-0.7-0.6-1.3-1.1-2-1.6
		c-0.3-0.2-0.6-0.4-0.9-0.7c0,0,0,0,0,0c-1-0.8-2.1-1.5-3.2-2.1c-0.7-0.4-1.3-0.7-2-1c-0.4-0.2-0.8-0.4-1.2-0.6h0
		c-0.1,0-0.1,0-0.2-0.1c-0.9-0.4-1.8-0.7-2.6-1c0,0,0,0,0,0c0,0,0,0,0,0c-1.5-0.4-2.9-0.7-4.3-0.8c0,0,0,0,0,0c-0.3,0-0.5,0-0.8,0
		c-0.4,0-0.8,0-1.2,0c0,0,0,0-0.1,0c-0.3,0-0.6,0.1-0.9,0.1c-0.5,0.1-0.9,0.1-1.4,0.2c0,0-0.1,0-0.1,0c-0.2,0-0.4,0.1-0.5,0.2
		c-0.4,0.1-0.8,0.2-1.2,0.4c0,0,0,0-0.1,0c-0.2,0.1-0.4,0.2-0.7,0.3c-0.3,0.1-0.7,0.3-1,0.5c0,0,0,0,0,0l6.3-3.7
		c0,0,0.1-0.1,0.1-0.1c0.4-0.2,0.8-0.4,1.3-0.6c0.1,0,0.2-0.1,0.3-0.1c0.1-0.1,0.3-0.1,0.4-0.1c0.2-0.1,0.4-0.2,0.7-0.2
		c0.2-0.1,0.5-0.1,0.7-0.2c0.2,0,0.3-0.1,0.5-0.1c0.1,0,0.2,0,0.2-0.1c0.5-0.1,1-0.1,1.5-0.2c0,0,0.1,0,0.1,0c0.1,0,0.3,0,0.4,0
		c0.4,0,0.8,0,1.2,0c0.1,0,0.3,0,0.4,0c0.3,0,0.5,0.1,0.8,0.1c0.2,0,0.5,0,0.7,0.1l-0.1,0l0,0c0.7,0.1,1.5,0.3,2.3,0.5l0,0l0,0
		c0.2,0,0.4,0.1,0.6,0.2c0.6,0.2,1.2,0.4,1.8,0.6c0.2,0.1,0.4,0.1,0.6,0.2c0.1,0.1,0.3,0.1,0.4,0.2c1.1,0.5,2.1,1,3.2,1.6
		c0.8,0.5,1.6,1,2.4,1.5c0.3,0.2,0.5,0.4,0.8,0.5c0.5,0.4,1.1,0.8,1.6,1.2c0.3,0.2,0.6,0.5,0.9,0.7c0.5,0.4,1,0.8,1.5,1.3
		c0.3,0.3,0.6,0.5,0.8,0.8c0.2,0.2,0.4,0.3,0.5,0.5c0.2,0.2,0.4,0.4,0.6,0.6c0.6,0.6,1.1,1.2,1.7,1.8c0.2,0.2,0.4,0.4,0.6,0.6
		c0.1,0.2,0.3,0.4,0.4,0.5c0.3,0.4,0.7,0.8,1,1.2c0.2,0.3,0.4,0.5,0.7,0.8c0.2,0.2,0.3,0.5,0.5,0.7c0.2,0.3,0.5,0.7,0.7,1
		c0.2,0.2,0.3,0.4,0.5,0.6c0.3,0.4,0.5,0.8,0.8,1.1c0.2,0.3,0.3,0.5,0.5,0.8c0.1,0.1,0.1,0.2,0.2,0.3c0.5,0.7,0.9,1.4,1.3,2.2
		c0,0,0.1,0.1,0.1,0.1c0.1,0.1,0.2,0.3,0.3,0.5c0.3,0.5,0.6,1,0.9,1.5c0.1,0.2,0.2,0.5,0.4,0.7c0.1,0.3,0.3,0.5,0.4,0.8
		c0.1,0.2,0.2,0.4,0.3,0.7c0.3,0.6,0.5,1.2,0.8,1.7c0.1,0.1,0.1,0.3,0.2,0.4c0,0,0,0,0,0.1c0.3,0.8,0.6,1.5,0.9,2.3
		c0.1,0.1,0.1,0.3,0.1,0.4c0.1,0.3,0.2,0.6,0.3,0.9c0.1,0.4,0.3,0.8,0.4,1.1c0.1,0.3,0.2,0.6,0.3,0.9c0.1,0.4,0.2,0.7,0.3,1.1
		c0.1,0.2,0.1,0.4,0.2,0.6c0.1,0.4,0.2,0.8,0.3,1.2c0.1,0.4,0.2,0.9,0.3,1.3c0,0.1,0.1,0.3,0.1,0.4c0.1,0.3,0.1,0.6,0.2,0.9
		c0.1,0.7,0.3,1.4,0.4,2.1c0,0.2,0.1,0.4,0.1,0.6c0.1,0.4,0.1,0.8,0.1,1.2c0,0.3,0.1,0.6,0.1,0.9c0.1,0.9,0.1,1.9,0.1,2.8
		c0,8.1-2.9,13.7-7.5,16.4l-6.3,3.7c0.3-0.2,0.6-0.4,0.9-0.6c0.2-0.2,0.5-0.3,0.7-0.5C59.2,368.4,59.5,368.1,59.8,367.8z"/>
	<path class="st17" d="M13.7,323.8c0,16.2,11.4,36,25.5,44.1c14.1,8.2,25.6,1.6,25.6-14.6c0-16.2-11.3-36-25.5-44.1
		C25.2,301.1,13.7,307.6,13.7,323.8z M31.3,339.7c0-2.6,0.9-4.2,2.6-4.8c0.8-0.3,2.1-0.3,3.7,0l1,0.2c0.2,0.1,0.4,0.1,0.6,0.1
		c0.8,0.1,1.5,0,1.8-0.2c0.4-0.3,0.7-0.8,0.7-1.6c0-0.9-0.2-1.7-0.7-2.5c-0.4-0.8-1-1.4-1.7-1.8l-0.1,0c-0.7-0.4-1.3-0.5-1.8-0.3
		c-0.5,0.3-0.8,0.8-0.9,1.7l-4.6-2.7c0.1-1.5,0.4-2.7,1-3.5c0.6-0.8,1.5-1.3,2.6-1.3c0.5,0,1.1,0,1.7,0.2l0-4.8l2,1.2l1.8,1.1l0,4.8
		l0,0c0.6,0.5,1.1,1.1,1.6,1.7c1.1,1.3,2,2.8,2.6,4.4c0.6,1.6,0.9,3.1,0.9,4.5c0,1.3-0.3,2.4-0.9,3.3c-0.6,0.8-1.3,1.3-2.3,1.5
		c-0.5,0.1-1.2,0-2-0.1c-0.1,0-0.4-0.1-1-0.2c-0.3-0.1-0.6-0.1-0.8-0.1c-1-0.1-1.8-0.1-2.3,0.1c-0.7,0.3-1.1,1.1-1.1,2.3
		c0,1,0.3,2.1,0.9,3.1c0.6,1,1.4,1.8,2.3,2.3l0.2,0.1c0.9,0.5,1.6,0.6,2.2,0.3c0.6-0.3,0.9-1,1-2l4.7,2.7c0,1.3-0.2,2.2-0.6,2.8
		c-0.3,0.8-0.9,1.4-1.6,1.8c-1.1,0.7-2.5,0.7-4,0.2l0,4.7l-1.8-1.1l-2-1.2l0-4.7c-0.7-0.6-1.3-1.3-1.9-2c-1.2-1.5-2.2-3.1-2.9-4.9
		C31.7,343,31.3,341.3,31.3,339.7z"/>
	<path class="st18" d="M33.9,334.9c0.8-0.3,2.1-0.3,3.7,0l1,0.2c0.2,0.1,0.4,0.1,0.6,0.1c0.8,0.1,1.5,0,1.8-0.2
		c0.4-0.3,0.7-0.8,0.7-1.6c0-0.9-0.2-1.7-0.7-2.5c-0.4-0.8-1-1.4-1.7-1.8l-0.1,0c-0.7-0.4-1.3-0.5-1.8-0.3c-0.5,0.3-0.8,0.8-0.9,1.7
		l-4.6-2.7c0.1-1.5,0.4-2.7,1-3.5c0.6-0.8,1.5-1.3,2.6-1.3c0.5,0,1.1,0,1.7,0.2l0-4.8l2,1.2l1.8,1.1l0,4.8l0,0
		c0.6,0.5,1.1,1.1,1.6,1.7c1.1,1.3,2,2.8,2.6,4.4c0.6,1.6,0.9,3.1,0.9,4.5c0,1.3-0.3,2.4-0.9,3.3c-0.6,0.8-1.3,1.3-2.3,1.5
		c-0.5,0.1-1.2,0-2-0.1c-0.1,0-0.4-0.1-1-0.2c-0.3-0.1-0.6-0.1-0.8-0.1c-1-0.1-1.8-0.1-2.3,0.1c-0.7,0.3-1.1,1.1-1.1,2.3
		c0,1,0.3,2.1,0.9,3.1c0.6,1,1.4,1.8,2.3,2.3l0.2,0.1c0.9,0.5,1.6,0.6,2.2,0.3c0.6-0.3,0.9-1,1-2l4.7,2.7c0,1.3-0.2,2.2-0.6,2.8
		c-0.3,0.8-0.9,1.4-1.6,1.8c-1.1,0.7-2.5,0.7-4,0.2l0,4.7l-1.8-1.1l-2-1.2l0-4.7c-0.7-0.6-1.3-1.3-1.9-2c-1.2-1.5-2.2-3.1-2.9-4.9
		c-0.7-1.8-1-3.5-1-5.1C31.3,337.1,32.2,335.5,33.9,334.9z"/>
	<polygon class="st3" points="149.4,752 167,752 184.3,764.1 168.1,768.9 149.6,765.3 	"/>
	<polygon class="st3" points="219.8,752 237.4,752 254.7,764.1 238.6,768.9 220.1,765.3 	"/>
	<polygon class="st3" points="169.2,388.7 175.6,510.6 166.6,518.8 157.1,510.6 165,389 	"/>
	<polygon class="st19" points="144.2,356.5 168,378.1 153,389.1 139.6,359.9 	"/>
	<polygon class="st19" points="185.1,363.3 168,378.1 178.1,389.9 189.8,367.1 	"/>
	<polygon class="st20" points="190.2,541.3 422.4,502.4 341.7,482.6 106.4,510.2 	"/>
	<rect x="189.8" y="535.3" class="st20" width="7.2" height="238.7"/>
	<rect x="112" y="511.9" class="st20" width="7.2" height="261.3"/>
	<rect x="415.3" y="502.4" class="st20" width="7.2" height="248.6"/>
	<rect x="332.9" y="501.6" class="st20" width="7.2" height="226.5"/>
	<polygon class="st20" points="189.6,570.2 107.2,543.4 106.4,510.2 190.8,540.3 	"/>
	<polygon class="st20" points="422.4,536.5 195.4,572.9 195.4,538.8 422.4,502.4 	"/>
	<polygon class="st19" points="158.7,483.2 165.1,484.5 159.8,503.1 154.4,502.4 	"/>
	
		<linearGradient id="SVGID_3_" gradientUnits="userSpaceOnUse" x1="658.0755" y1="-137.1907" x2="661.282" y2="-113.6764" gradientTransform="matrix(-0.9129 -7.151996e-02 -3.764421e-02 0.4803 808.4687 612.2086)">
		<stop  offset="0" style="stop-color:#FFFFFF"/>
		<stop  offset="0.1513" style="stop-color:#F1F6FB"/>
		<stop  offset="0.4227" style="stop-color:#DEEAF7"/>
		<stop  offset="0.7022" style="stop-color:#D3E3F4"/>
		<stop  offset="1" style="stop-color:#CFE1F3"/>
	</linearGradient>
	<polygon class="st21" points="211.7,504.2 263.7,508.3 208.8,516 155.3,509.7 	"/>
	<path class="st22" d="M154.5,512.4l51.9,5.3l0.4-2.8l-51.1-5.2c-0.4,0-0.8,0.2-0.8,0.7L154.5,512.4z"/>
	<path class="st4" d="M158.8,483.5c8.3,2,14.6,3,17.4,3.3c1.7,0,8.1,0.1,11.1,0.2c0,0,0,0,0,0c8.7-0.1,18.6,0,20.6,1.7
		c1.6,1.4,8.9,9.8,12.2,13.8c0,0,0,0,0,0c0.2,0.2,0.3,0.4,0.5,0.6c0.1,0.1,0.1,0.1,0.2,0.2c0.1,0.2,0.2,0.3,0.3,0.4
		c0,0.1,0.1,0.1,0.1,0.2c0.1,0.2,0.2,0.3,0.3,0.4c1.4,2,0.7,4.2-3.7,2.6c-0.7-0.3-1.5-0.7-2.3-1.3c0.2,0.8,0.3,1.5,0.1,1.9
		c-1,2-3.4,1.8-5.5-0.5c-0.8-0.8-1.6-2.2-2.6-3.5c-1.1-1.6-2.3-3.2-3.5-4.4c-0.3,0.1-0.5,0.1-0.8,0.2c1,1.5,1.9,3,2.4,4.3
		c1.2,2.6,0.7,4.7-0.2,5.6c-0.4,0.4-0.9,0.5-1.3,0.3c-1.4-0.6-4-4.3-6.4-7.6c-0.2-0.3-0.5-0.6-0.7-0.9c-0.9,0.2-1.8,0.4-2.6,0.4l0,0
		c1.3,1.1,2.6,2.6,3.3,4.2c1,2.4-1,4.2-3.1,3.1c-2.2-1.1-9-5.6-11.2-4.3c-2.2,1.3-6.9,3.6-9.5,3.8c-2.6,0.3-5.4-0.9-8-3.6
		c-2.5-2.6-10.1-4.1-10.8-4.2C157.2,494.9,157.3,489.3,158.8,483.5z"/>
	<path class="st22" d="M211.5,440.3l-3.2,77.7c-1.6,0.2-5-0.6-4.9-2.3l4-71.6C207.6,442.3,210,440.4,211.5,440.3z"/>
	<path class="st23" d="M212.6,440l88-4.1c1.3-0.1,2.2,1.1,2.2,2.7l-5.7,63.8c-0.1,1.6-1.2,3-2.4,3.2L208.3,518
		c-1.6,0.2-2.8-1-2.7-2.8l3.9-71.9C209.7,441.6,211,440.1,212.6,440z"/>
	<path class="st3" d="M164.6,311.7c0.1,3.8,1.3,16.2-2.9,16.2c-0.8,0,0.3-6.4-3.1-8.3c-7-3.5-6.4,13.8-1.5,12.9
		c1,0.8-2.2,12.6-3.9,14.5c-1.8,1.9-3.6-0.7-3.6-0.7s1.3-5.8-0.2-7.3c-20.5-21.1-1.3-68.2,40.2-48.7c2.4,1.1,11.8,7.3,17.1,6.3
		c-0.3,1.6-1.3,3.7-4.6,3.5c2.1,1.1,3.2,1.2,5.4-0.1C204.9,325.7,163.4,298.3,164.6,311.7z"/>
	<path class="st3" d="M161.3,380.2l1.1,7.5c0.2,1.1,0.7,2,1.5,2.7c-0.2,0.5-0.3,1-0.3,1.5c0,2.3,1.6,4.1,3.5,4.1
		c1.9,0,3.5-1.8,3.5-4.1c0-0.4-0.1-0.9-0.2-1.3c0.8-0.5,1.5-1.3,1.7-2.7l1.5-7.9l-3.1-2.5l-4.7,0.8L161.3,380.2z"/>
	<g class="st24">
		<g>
			<path class="st25" d="M673.9,289.8c1.9,0,1.9-3,0-3C672,286.8,672,289.8,673.9,289.8L673.9,289.8z"/>
		</g>
	</g>
</g>
</svg>
