<svg xmlns="http://www.w3.org/2000/svg" viewBox="0 0 1920 1079.9"><defs><style>.cls-1{fill:#27a5b7;}</style></defs><title>qualifybg</title><g id="Layer_2" data-name="Layer 2"><g id="section2how_to_qualify" data-name="section2how to qualify"><path class="cls-1" d="M0,489c21.3,89.14,51.57,116.59,77.19,123.51,28.67,7.74,57,7.25,75.79,28.07,26.67,29.47,15.85,33.71,47.72,78.6,26.66,37.54,49.9,27.28,105.27,66,68.46,47.83,51.24,76.32,122.1,133.34,33.73,27.13,82,66,147.37,68.77,46.39,2,80.94,5.12,117.9,14,47.35,11.43,71.92,44.71,89.82,78.6H0Z"/><path class="cls-1" d="M1459.63,0c-1.4,71.58,78.6,88.42,113.69,87,40.7-2.81,96.84,14,101,74.38,2,50.06,20.19,66.36,34.23,80.4,30.46,29.46,81,24,104.72,51.53,29.27,34,43.63,146.47,106.68,127.56V0Z"/></g></g></svg>