<?xml version="1.0" encoding="utf-8"?>
<!-- Generator: Adobe Illustrator 23.0.2, SVG Export Plug-In . SVG Version: 6.00 Build 0)  -->
<svg version="1.1" id="Layer_1" xmlns="http://www.w3.org/2000/svg" xmlns:xlink="http://www.w3.org/1999/xlink" x="0px" y="0px"
	 viewBox="0 0 1920 1079.9" style="enable-background:new 0 0 1920 1079.9;" xml:space="preserve">
<style type="text/css">
	.st0{fill:#99CADC;}
</style>
<title>qualifybg</title>
<g>
	<g id="section2how_to_qualify">
		<path class="st0" d="M0,489c21.3,89.1,51.6,116.6,77.2,123.5c28.7,7.7,57,7.2,75.8,28.1c26.7,29.5,15.9,33.7,47.7,78.6
			c26.7,37.5,49.9,27.3,105.3,66c68.5,47.8,51.2,76.3,122.1,133.3c33.7,27.1,82,66,147.4,68.8c46.4,2,80.9,5.1,117.9,14
			c47.3,11.4,71.9,44.7,89.8,78.6H0V489z"/>
		<path class="st0" d="M1459.6,0c-1.4,71.6,78.6,88.4,113.7,87c40.7-2.8,96.8,14,101,74.4c2,50.1,20.2,66.4,34.2,80.4
			c30.5,29.5,81,24,104.7,51.5c29.3,34,43.6,146.5,106.7,127.6V0H1459.6z"/>
	</g>
</g>
</svg>
