<?xml version="1.0" encoding="utf-8"?>
<!-- Generator: Adobe Illustrator 23.0.2, SVG Export Plug-In . SVG Version: 6.00 Build 0)  -->
<svg version="1.1" id="Layer_1" xmlns="http://www.w3.org/2000/svg" xmlns:xlink="http://www.w3.org/1999/xlink" x="0px" y="0px"
	 viewBox="0 0 475.6 1080" style="enable-background:new 0 0 475.6 1080;" xml:space="preserve">
<style type="text/css">
	.st0{fill:#99CADC;}
</style>
<title>testimonialbg</title>
<g>
	<g id="section6">
		<path class="st0" d="M453.8,0c15.6,32.7,33.1,82.8,12.2,123.1c-26.2,50.4-89.1,39.8-109.5,85.2c-27.9,62,69.1,127.8,42.6,182.5
			c-22.9,47-105.7,21-167.3,85.2c-11.9,12.4-48.5,49-45.6,94.3c2.9,45.5,42.2,50.3,51.7,94.3c14.9,69.2-72.6,101.2-63.9,173.4
			c6.9,57.1,65,64.1,82.1,136.9c9.8,41.9,0.1,80.1-9.1,105.1H0V0H453.8z"/>
	</g>
</g>
</svg>
