<?xml version="1.0" encoding="utf-8"?>
<!-- Generator: Adobe Illustrator 23.0.2, SVG Export Plug-In . SVG Version: 6.00 Build 0)  -->
<svg version="1.1" id="Layer_1" xmlns="http://www.w3.org/2000/svg" xmlns:xlink="http://www.w3.org/1999/xlink" x="0px" y="0px"
	 viewBox="0 0 485 336" style="enable-background:new 0 0 485 336;" xml:space="preserve">
<style type="text/css">
	.st0{fill:none;stroke:#D6E7EE;stroke-width:3;stroke-linecap:round;stroke-linejoin:round;}
	.st1{fill:none;stroke:#022D41;stroke-width:3;stroke-miterlimit:10;}
</style>
<title>testimonialsbg</title>
<polyline class="st0" points="22.8,21.5 23.8,20.3 21.4,28.2 27.3,20.7 23,30.1 31,19.9 23.8,35.2 37.8,17.4 24.4,40.3 38.3,22.6 
	23.3,48 45,20.4 20.9,55.4 50.3,17.9 21.5,59.9 53.1,19.7 24.7,60.7 55.7,21.3 24,66.4 61.9,18.2 20.5,77.4 63.3,22.9 23.1,77.6 
	67.4,21.2 22.7,84.8 74.2,19.1 20.8,91.9 77.2,20.1 24.3,94.1 80.2,22.9 21.4,102.5 87.2,18.7 21.1,107.8 89.4,20.8 24.3,110.1 
	94.9,20.3 23.2,117.9 99.1,21.3 21,126.9 104.5,20.7 24.1,128.3 107,22.8 24.9,131.6 110.1,23 24.2,138.1 114.8,22.7 23.1,143.3 
	118,22.6 22.1,149.2 124.4,19 24.4,150.2 128.1,18.2 23.1,158.3 131.9,19.8 22.3,163.1 136.2,18 23.2,167.8 139.4,19.8 23.6,173.5 
	144,20.3 21.2,181.4 148.3,19.6 22.3,183.4 152.4,17.7 24,186.6 156.8,17.5 21,196.8 160.3,19.5 21,200.8 163.1,19.9 22.8,203.9 
	167.4,19.7 23.3,207.1 168.1,22.7 23.3,212.8 175.2,19.3 23.2,216.8 177.3,20.6 22.5,223.2 182.3,19.8 20.7,230 183.1,23.1 
	23.7,231.2 187.2,23 23.8,235.9 191.1,23 20.7,246.2 196.1,23 21.7,249.2 203.8,17.4 20.6,255.3 206.2,18.9 23.8,255.6 210.4,18 
	21.6,263.2 214.3,17.8 23.7,265.2 214,23 23.7,270.4 220.3,20.1 23.4,276.8 226.8,17.8 24.6,281.2 231.3,18 22.3,288.1 234.5,18 
	23.7,290.1 235.2,20.8 22.3,296.4 240.2,19 23.4,300.4 245.2,18 21.6,307.1 247.4,19.6 24.8,307.4 250.4,20.1 20.6,317.7 252,23 
	25.1,317.7 259.3,19.4 30.6,314.1 262.5,18.7 33.5,315 264.1,21.4 37.1,314.2 268.7,19.4 38.3,316.2 269.7,21.5 40.4,318.3 
	273.2,21.9 48,313.8 277.3,21.8 47.7,318.5 281.1,21.3 55,313.3 284.5,21 57.2,314.5 290.3,17.7 58.4,316.6 290.5,21.1 63.5,315.6 
	295.6,20 69.1,314.3 300.1,20.2 70.7,315.8 302.7,20.4 72.4,318.2 307.4,19 80.6,313.1 308.6,22.9 85.3,313.8 316.6,19.3 86.4,318 
	320.5,19.8 91,316.3 322.8,21.2 95.6,315.2 325.8,22.2 97.3,316.5 330.6,19.4 100.7,316.5 335.2,17.9 102.1,318.4 338.4,17.5 
	110.6,314 340,21.8 114.3,315.7 347,19.5 118.7,313.7 350.5,18.6 121.1,316.7 354.1,19.9 123.1,318.6 358.2,19.2 130.7,313.9 
	360.9,20.7 135.1,314 365.5,20.5 136.9,317.3 368.7,22.1 142,317.3 377.2,17.7 144.7,318.1 376.5,22.9 152.1,314 382.4,20.7 
	153.4,318.1 388.5,18.8 158.5,315.1 390.5,19.7 162.9,315.3 394.8,20.1 166,315.3 397.9,20 169.5,315.1 399.2,22.6 172,318.3 
	404.4,22.5 176.4,316.9 410,19.5 183.3,314.3 413.9,20.7 185.6,314.9 418.7,18.1 187.6,315.8 419.7,20.2 192.9,313.9 425.5,17.8 
	195.2,315 427.7,18.9 199.1,315.2 430.9,20.1 203.5,314.4 432.9,22.4 207.9,314.6 439,20.3 209.7,317.4 445,17.8 213.5,318.3 
	446.5,21.6 218.3,315.8 449.7,21.2 222.1,316.4 453.7,21.5 225.4,317.4 457,22.5 230.7,317 461.3,23.5 236.5,314.6 460.6,29.2 
	240.6,315.7 459.6,36.9 242.3,317.4 460.2,39.9 246.3,318.2 460.6,45.3 251,316.1 458.4,52.1 254.4,316.7 459.7,55.3 256.6,318 
	457.8,61.9 260.9,318 458.1,66.9 268.2,314.8 457.7,73.5 272.9,314.8 459,77.8 276.2,314.5 460.2,80.2 281,313.9 458,88.6 
	282.4,316.9 459.1,91.9 287.3,315.2 461.1,93.9 292.1,315.4 459.1,102.8 298.5,313.4 460,107.8 299.9,315.2 460.8,110.4 
	302.2,316.4 461.1,114.2 306,318 460.2,121.7 310.1,318.6 459.3,128.7 316.2,317.1 460.5,133.4 320.5,317.2 457.6,142.7 
	324.3,317.6 460.2,144.6 327.6,317.6 460,149.1 335.2,314.2 461.4,153.5 340.1,313.1 461.4,158.6 343.9,314.9 461,165.8 
	347.9,314.8 459.1,173.2 351,315 457.1,180 351.5,318.4 461.5,178.3 357.1,314.5 460.1,183.4 356.6,318.6 457.6,189.9 362.7,315.2 
	461,190.1 367.6,313 461.4,193.6 367.9,316.3 457.1,202.6 375.1,313.5 459.2,206.4 377,315.6 457.8,212.7 380.6,316.7 457.7,218.6 
	387.2,314.9 460.1,222.1 388.3,317.7 460.1,226.3 392.5,316.6 458.1,233 396.1,318.6 459.5,237.9 402.6,315.2 458.1,244.5 
	404.2,316.6 458,248.1 410.3,314.7 459.1,252.6 413,316.8 459.2,257.9 417.6,314.4 459.3,261.4 420.9,315.6 461,264.6 425.7,314.2 
	457.2,274.1 429.2,315.2 457.3,279.5 430.8,316.9 458.5,281.6 437.5,313.5 459.9,284.9 442,313.5 461.4,288.8 446.5,313.9 
	458.1,299.1 448.1,316.5 458.1,303.8 450.7,318 460.7,305.2 455.5,315.7 461.1,308.6 458.4,315.7 461.4,311.9 "/>
<rect x="8" y="7" class="st1" width="469" height="321.6"/>
</svg>
