<?xml version="1.0" encoding="utf-8"?>
<!-- Generator: Adobe Illustrator 23.0.2, SVG Export Plug-In . SVG Version: 6.00 Build 0)  -->
<svg version="1.1" id="Layer_1" xmlns="http://www.w3.org/2000/svg" xmlns:xlink="http://www.w3.org/1999/xlink" x="0px" y="0px"
	 viewBox="0 0 1920 515.6" style="enable-background:new 0 0 1920 515.6;" xml:space="preserve">
<style type="text/css">
	.st0{fill:#99CADC;}
</style>
<title>volunteerbg</title>
<g>
	<g id="section4">
		<path class="st0" d="M1464,0c70.4,6.5,70.2,19.5,75.6,38.8c3.9,34.2,64.7,27.9,80.8,42c22.8,20-8.6,57.2,26.1,81.1
			c29,20,85.5,0,115.3,41.5c36.9,51.3-6.9,66.6,37.1,119.7c21,25.3,73.2,68.1,75.3,117c1.5,34.8,19.6,62,45.8,75.5V0H1464z"/>
		<path class="st0" d="M456,0c-70.4,6.5-70.2,19.5-75.6,38.8c-3.9,34.2-64.7,27.9-80.8,42c-22.8,20,8.6,57.2-26.1,81.1
			c-29,20-85.5,0-115.3,41.5c-36.9,51.3,6.9,66.6-37.1,119.7c-21,25.3-76.4,49.7-78.5,98.7c-1.5,34.8-16.4,80.4-42.6,93.8V0H456z"/>
	</g>
</g>
</svg>
