<svg xmlns="http://www.w3.org/2000/svg" viewBox="0 0 1920 515.6"><defs><style>.cls-1{fill:#27a5b7;}</style></defs><title>volunteerbg</title><g id="Layer_2" data-name="Layer 2"><g id="section4"><path class="cls-1" d="M1464,0c70.37,6.5,70.24,19.53,75.58,38.75,3.91,34.2,64.73,27.89,80.8,42,22.75,20-8.58,57.2,26.06,81.1,29,20,85.48,0,115.33,41.53,36.92,51.33-6.86,66.57,37.14,119.7,21,25.29,73.23,68.06,75.35,117,1.51,34.79,19.63,62,45.79,75.45V0Z"/><path class="cls-1" d="M456.05,0c-70.37,6.5-70.24,19.53-75.58,38.75-3.91,34.2-64.73,27.89-80.8,42-22.75,20,8.58,57.2-26.06,81.1-29,20-85.48,0-115.33,41.53-36.92,51.33,6.86,66.57-37.14,119.7-21,25.29-76.4,49.69-78.53,98.67C41.1,456.56,26.16,502.18,0,515.6V0Z"/></g></g></svg>